M48
; DRILL file {KiCad 7.0.1} date Fri Apr 28 03:37:43 2023
; FORMAT={-:-/ absolute / metric / decimal}
; #@! TF.CreationDate,2023-04-28T03:37:43-07:00
; #@! TF.GenerationSoftware,Kicad,Pcbnew,7.0.1
; #@! TF.FileFunction,MixedPlating,1,2
FMAT,2
METRIC
; #@! TA.AperFunction,Plated,PTH,ViaDrill
T1C0.300
; #@! TA.AperFunction,Plated,PTH,ViaDrill
T2C0.305
; #@! TA.AperFunction,Plated,PTH,ComponentDrill
T3C0.350
; #@! TA.AperFunction,Plated,PTH,ComponentDrill
T4C0.600
; #@! TA.AperFunction,Plated,PTH,ComponentDrill
T5C1.000
; #@! TA.AperFunction,Plated,PTH,ComponentDrill
T6C1.500
; #@! TA.AperFunction,Plated,PTH,ComponentDrill
T7C2.200
; #@! TA.AperFunction,NonPlated,NPTH,ComponentDrill
T8C0.650
; #@! TA.AperFunction,NonPlated,NPTH,ComponentDrill
T9C1.750
; #@! TA.AperFunction,NonPlated,NPTH,ComponentDrill
T10C3.000
; #@! TA.AperFunction,NonPlated,NPTH,ComponentDrill
T11C3.988
%
G90
G05
T1
X42.862Y-39.688
X42.862Y-63.5
X56.82Y-63.449
X57.944Y-75.406
X59.842Y-64.262
X62.205Y-63.856
X62.706Y-32.544
X65.888Y-68.732
X66.278Y-67.866
X68.263Y-67.866
X70.637Y-68.758
X71.552Y-69.444
X73.025Y-33.337
X73.304Y-63.856
X73.965Y-61.316
X74.524Y-56.236
X75.616Y-66.345
X75.844Y-56.794
X75.946Y-57.658
X75.946Y-59.436
X76.606Y-61.214
X77.47Y-50.292
X77.787Y-44.45
X77.787Y-63.5
X77.787Y-68.263
X78.181Y-58.369
X78.867Y-54.864
X79.604Y-72.568
X80.772Y-47.228
X81.153Y-42.545
X81.407Y-39.624
X82.296Y-60.096
X82.423Y-52.451
X83.566Y-46.736
X83.693Y-40.132
X83.82Y-63.5
X84.074Y-57.81
X84.252Y-58.826
X84.48Y-49.327
X84.709Y-50.419
X85.141Y-58.268
X85.344Y-42.545
X85.623Y-64.541
X85.75Y-58.953
X86.055Y-54.102
X86.081Y-55.982
X86.081Y-57.633
X86.335Y-56.794
X86.716Y-61.951
X88.087Y-41.707
X88.138Y-36.576
X88.9Y-48.26
X88.9Y-50.038
X91.364Y-64.364
X92.869Y-43.656
X92.869Y-62.706
X92.869Y-68.263
X93.345Y-48.514
X93.662Y-77.391
X93.98Y-60.452
X94.456Y-42.069
X94.488Y-61.214
X94.869Y-46.736
X95.25Y-76.994
X95.707Y-47.65
X96.044Y-42.069
X96.368Y-61.214
X96.837Y-59.134
X97.282Y-77.978
X98.028Y-59.134
X99.771Y-80.213
X101.6Y-56.753
X103.886Y-80.213
X105.966Y-44.45
X106.426Y-61.773
X109.474Y-79.502
X109.537Y-36.116
X109.537Y-41.275
X109.537Y-55.166
X109.537Y-59.928
X109.537Y-61.912
X111.506Y-77.978
X112.674Y-62.027
X114.697Y-57.944
X116.586Y-77.978
X116.681Y-58.737
X119.177Y-80.213
X119.532Y-62.179
X120.253Y-56.753
X122.479Y-80.213
X124.765Y-62.179
X125.016Y-44.45
X128.524Y-79.502
X128.588Y-36.116
X128.588Y-41.275
X128.588Y-55.166
X128.588Y-60.325
X128.588Y-62.309
X130.302Y-77.978
X135.731Y-58.341
X137.922Y-80.264
X142.138Y-80.264
X144.066Y-44.45
X147.637Y-63.103
X149.225Y-63.103
X149.606Y-43.688
X153.389Y-52.07
X153.643Y-55.372
X154.104Y-48.832
X155.702Y-50.8
X155.702Y-57.15
T2
X70.104Y-51.054
X74.93Y-45.212
X80.899Y-50.419
X82.169Y-51.689
T3
X79.096Y-53.975
X79.997Y-53.073
X79.997Y-54.877
X80.899Y-52.172
X80.899Y-53.975
X80.899Y-55.778
X81.801Y-53.073
X81.801Y-54.877
X82.702Y-53.975
T5
X57.825Y-46.975
X57.825Y-61.475
X60.325Y-61.475
X62.825Y-46.975
X62.825Y-61.475
X68.104Y-74.612
X70.644Y-74.612
X73.184Y-74.612
T7
X60.325Y-38.481
X60.325Y-69.85
T8
X157.022Y-51.085
X157.022Y-56.865
T9
X97.314Y-34.925
X97.314Y-53.975
X97.314Y-73.025
X107.474Y-34.925
X107.474Y-53.975
X107.474Y-73.025
X116.364Y-34.925
X116.364Y-53.975
X116.364Y-73.025
X126.524Y-34.925
X126.524Y-53.975
X126.524Y-73.025
X135.414Y-34.925
X135.414Y-53.975
X135.414Y-73.025
X145.574Y-34.925
X145.574Y-53.975
X145.574Y-73.025
T10
X98.584Y-32.385
X98.584Y-51.435
X98.584Y-70.485
X104.934Y-29.845
X104.934Y-48.895
X104.934Y-67.945
X117.634Y-32.385
X117.634Y-51.435
X117.634Y-70.485
X123.984Y-29.845
X123.984Y-48.895
X123.984Y-67.945
X136.684Y-32.385
X136.684Y-51.435
X136.684Y-70.485
X143.034Y-29.845
X143.034Y-48.895
X143.034Y-67.945
T11
X102.394Y-34.925
X102.394Y-53.975
X102.394Y-73.025
X121.444Y-34.925
X121.444Y-53.975
X121.444Y-73.025
X140.494Y-34.925
X140.494Y-53.975
X140.494Y-73.025
T4
X155.972Y-49.655G85X157.072Y-49.655
G05
X155.972Y-58.295G85X157.072Y-58.295
G05
X160.302Y-49.655G85X161.102Y-49.655
G05
X160.302Y-58.295G85X161.102Y-58.295
G05
T6
X54.725Y-54.625G85X54.725Y-53.325
G05
X65.925Y-54.625G85X65.925Y-53.325
G05
T0
M30
