G04 #@! TF.GenerationSoftware,KiCad,Pcbnew,7.0.1*
G04 #@! TF.CreationDate,2023-04-28T03:37:42-07:00*
G04 #@! TF.ProjectId,jam-pad,6a616d2d-7061-4642-9e6b-696361645f70,rev?*
G04 #@! TF.SameCoordinates,Original*
G04 #@! TF.FileFunction,Paste,Top*
G04 #@! TF.FilePolarity,Positive*
%FSLAX46Y46*%
G04 Gerber Fmt 4.6, Leading zero omitted, Abs format (unit mm)*
G04 Created by KiCad (PCBNEW 7.0.1) date 2023-04-28 03:37:42*
%MOMM*%
%LPD*%
G01*
G04 APERTURE LIST*
%ADD10R,1.600000X0.300000*%
%ADD11R,1.500000X1.000000*%
%ADD12R,1.000000X1.500000*%
G04 APERTURE END LIST*
D10*
G04 #@! TO.C,J1*
X155721875Y-57325000D03*
X155721875Y-56525000D03*
X155721875Y-55225000D03*
X155721875Y-54225000D03*
X155721875Y-53725000D03*
X155721875Y-52725000D03*
X155721875Y-51425000D03*
X155721875Y-50625000D03*
X155721875Y-50925000D03*
X155721875Y-51725000D03*
X155721875Y-52225000D03*
X155721875Y-53225000D03*
X155721875Y-54725000D03*
X155721875Y-55725000D03*
X155721875Y-56225000D03*
X155721875Y-57025000D03*
G04 #@! TD*
D11*
G04 #@! TO.C,D16*
X62775000Y-30968750D03*
X62775000Y-27768750D03*
X57875000Y-27768750D03*
X57875000Y-30968750D03*
G04 #@! TD*
D12*
G04 #@! TO.C,D17*
X41287500Y-39618750D03*
X38087500Y-39618750D03*
X38087500Y-44518750D03*
X41287500Y-44518750D03*
G04 #@! TD*
G04 #@! TO.C,D12*
X41287500Y-63431250D03*
X38087500Y-63431250D03*
X38087500Y-68331250D03*
X41287500Y-68331250D03*
G04 #@! TD*
G04 #@! TO.C,D10*
X79362500Y-68331250D03*
X82562500Y-68331250D03*
X82562500Y-63431250D03*
X79362500Y-63431250D03*
G04 #@! TD*
G04 #@! TO.C,D15*
X79362500Y-44518750D03*
X82562500Y-44518750D03*
X82562500Y-39618750D03*
X79362500Y-39618750D03*
G04 #@! TD*
D11*
G04 #@! TO.C,D11*
X57875000Y-76981250D03*
X57875000Y-80181250D03*
X62775000Y-80181250D03*
X62775000Y-76981250D03*
G04 #@! TD*
M02*
