G04 #@! TF.GenerationSoftware,KiCad,Pcbnew,7.0.1*
G04 #@! TF.CreationDate,2023-04-28T03:37:43-07:00*
G04 #@! TF.ProjectId,jam-pad,6a616d2d-7061-4642-9e6b-696361645f70,rev?*
G04 #@! TF.SameCoordinates,Original*
G04 #@! TF.FileFunction,Profile,NP*
%FSLAX46Y46*%
G04 Gerber Fmt 4.6, Leading zero omitted, Abs format (unit mm)*
G04 Created by KiCad (PCBNEW 7.0.1) date 2023-04-28 03:37:43*
%MOMM*%
%LPD*%
G01*
G04 APERTURE LIST*
G04 #@! TA.AperFunction,Profile*
%ADD10C,0.100000*%
G04 #@! TD*
G04 #@! TA.AperFunction,Profile*
%ADD11C,0.120000*%
G04 #@! TD*
G04 APERTURE END LIST*
D10*
X156368750Y-28575000D02*
X156368750Y-46831250D01*
X161528125Y-59531250D02*
X157956267Y-59531250D01*
X60325000Y-25400000D02*
G75*
G03*
X60325000Y-82550000I0J-28575000D01*
G01*
X156368750Y-46831250D02*
G75*
G03*
X157956267Y-48418750I1587550J50D01*
G01*
X156368700Y-28575000D02*
G75*
G03*
X153193750Y-25400000I-3175000J0D01*
G01*
X156368750Y-61118750D02*
X156368750Y-79375000D01*
X157956250Y-59531250D02*
G75*
G03*
X156368750Y-61118750I50J-1587550D01*
G01*
X157956267Y-48418750D02*
X161528325Y-48418750D01*
X163115625Y-50006250D02*
X163115625Y-57943750D01*
X163115850Y-50006250D02*
G75*
G03*
X161528325Y-48418750I-1587750J-250D01*
G01*
X161528125Y-59531225D02*
G75*
G03*
X163115625Y-57943750I-25J1587525D01*
G01*
X60325000Y-25400000D02*
X153193750Y-25400000D01*
X153193750Y-82550000D02*
X60325000Y-82550000D01*
X153193750Y-82550050D02*
G75*
G03*
X156368750Y-79375000I-50J3175050D01*
G01*
D11*
G04 #@! TO.C,SW4*
X104193750Y-57455000D02*
X100593750Y-57455000D01*
X100593750Y-57455000D02*
X100593750Y-60655000D01*
X100593750Y-60655000D02*
X104193750Y-60655000D01*
X104193750Y-60655000D02*
X104193750Y-57455000D01*
G04 #@! TO.C,SW9*
X142293750Y-76505000D02*
X138693750Y-76505000D01*
X138693750Y-76505000D02*
X138693750Y-79705000D01*
X138693750Y-79705000D02*
X142293750Y-79705000D01*
X142293750Y-79705000D02*
X142293750Y-76505000D01*
G04 #@! TO.C,SW5*
X123243750Y-57455000D02*
X119643750Y-57455000D01*
X119643750Y-57455000D02*
X119643750Y-60655000D01*
X119643750Y-60655000D02*
X123243750Y-60655000D01*
X123243750Y-60655000D02*
X123243750Y-57455000D01*
G04 #@! TO.C,SW7*
X104193750Y-76505000D02*
X100593750Y-76505000D01*
X100593750Y-76505000D02*
X100593750Y-79705000D01*
X100593750Y-79705000D02*
X104193750Y-79705000D01*
X104193750Y-79705000D02*
X104193750Y-76505000D01*
G04 #@! TO.C,SW8*
X123243750Y-76505000D02*
X119643750Y-76505000D01*
X119643750Y-76505000D02*
X119643750Y-79705000D01*
X119643750Y-79705000D02*
X123243750Y-79705000D01*
X123243750Y-79705000D02*
X123243750Y-76505000D01*
G04 #@! TO.C,SW6*
X142293750Y-57455000D02*
X138693750Y-57455000D01*
X138693750Y-57455000D02*
X138693750Y-60655000D01*
X138693750Y-60655000D02*
X142293750Y-60655000D01*
X142293750Y-60655000D02*
X142293750Y-57455000D01*
G04 #@! TO.C,SW1*
X104193750Y-38405000D02*
X100593750Y-38405000D01*
X100593750Y-38405000D02*
X100593750Y-41605000D01*
X100593750Y-41605000D02*
X104193750Y-41605000D01*
X104193750Y-41605000D02*
X104193750Y-38405000D01*
G04 #@! TO.C,SW2*
X123243750Y-38405000D02*
X119643750Y-38405000D01*
X119643750Y-38405000D02*
X119643750Y-41605000D01*
X119643750Y-41605000D02*
X123243750Y-41605000D01*
X123243750Y-41605000D02*
X123243750Y-38405000D01*
G04 #@! TO.C,SW3*
X142293750Y-38405000D02*
X138693750Y-38405000D01*
X138693750Y-38405000D02*
X138693750Y-41605000D01*
X138693750Y-41605000D02*
X142293750Y-41605000D01*
X142293750Y-41605000D02*
X142293750Y-38405000D01*
G04 #@! TD*
M02*
