G04 #@! TF.GenerationSoftware,KiCad,Pcbnew,7.0.1*
G04 #@! TF.CreationDate,2023-04-28T03:37:42-07:00*
G04 #@! TF.ProjectId,jam-pad,6a616d2d-7061-4642-9e6b-696361645f70,rev?*
G04 #@! TF.SameCoordinates,Original*
G04 #@! TF.FileFunction,Paste,Bot*
G04 #@! TF.FilePolarity,Positive*
%FSLAX46Y46*%
G04 Gerber Fmt 4.6, Leading zero omitted, Abs format (unit mm)*
G04 Created by KiCad (PCBNEW 7.0.1) date 2023-04-28 03:37:42*
%MOMM*%
%LPD*%
G01*
G04 APERTURE LIST*
G04 Aperture macros list*
%AMRoundRect*
0 Rectangle with rounded corners*
0 $1 Rounding radius*
0 $2 $3 $4 $5 $6 $7 $8 $9 X,Y pos of 4 corners*
0 Add a 4 corners polygon primitive as box body*
4,1,4,$2,$3,$4,$5,$6,$7,$8,$9,$2,$3,0*
0 Add four circle primitives for the rounded corners*
1,1,$1+$1,$2,$3*
1,1,$1+$1,$4,$5*
1,1,$1+$1,$6,$7*
1,1,$1+$1,$8,$9*
0 Add four rect primitives between the rounded corners*
20,1,$1+$1,$2,$3,$4,$5,0*
20,1,$1+$1,$4,$5,$6,$7,0*
20,1,$1+$1,$6,$7,$8,$9,0*
20,1,$1+$1,$8,$9,$2,$3,0*%
G04 Aperture macros list end*
%ADD10R,2.550000X2.500000*%
%ADD11R,1.740000X0.820000*%
%ADD12RoundRect,0.237500X0.300000X0.237500X-0.300000X0.237500X-0.300000X-0.237500X0.300000X-0.237500X0*%
%ADD13RoundRect,0.237500X0.237500X-0.300000X0.237500X0.300000X-0.237500X0.300000X-0.237500X-0.300000X0*%
%ADD14R,1.200000X0.900000*%
%ADD15RoundRect,0.237500X0.250000X0.237500X-0.250000X0.237500X-0.250000X-0.237500X0.250000X-0.237500X0*%
%ADD16RoundRect,0.250000X-0.475000X0.337500X-0.475000X-0.337500X0.475000X-0.337500X0.475000X0.337500X0*%
%ADD17RoundRect,0.237500X0.237500X-0.250000X0.237500X0.250000X-0.237500X0.250000X-0.237500X-0.250000X0*%
%ADD18R,0.850000X1.500000*%
%ADD19RoundRect,0.237500X-0.250000X-0.237500X0.250000X-0.237500X0.250000X0.237500X-0.250000X0.237500X0*%
%ADD20RoundRect,0.250001X0.624999X-0.462499X0.624999X0.462499X-0.624999X0.462499X-0.624999X-0.462499X0*%
%ADD21RoundRect,0.237500X-0.237500X0.300000X-0.237500X-0.300000X0.237500X-0.300000X0.237500X0.300000X0*%
%ADD22RoundRect,0.237500X-0.237500X0.250000X-0.237500X-0.250000X0.237500X-0.250000X0.237500X0.250000X0*%
%ADD23R,1.200000X1.400000*%
%ADD24RoundRect,0.237500X-0.300000X-0.237500X0.300000X-0.237500X0.300000X0.237500X-0.300000X0.237500X0*%
%ADD25RoundRect,0.150000X0.512500X0.150000X-0.512500X0.150000X-0.512500X-0.150000X0.512500X-0.150000X0*%
%ADD26RoundRect,0.150000X0.150000X-0.825000X0.150000X0.825000X-0.150000X0.825000X-0.150000X-0.825000X0*%
%ADD27R,1.500000X0.850000*%
%ADD28RoundRect,0.150000X-0.150000X0.512500X-0.150000X-0.512500X0.150000X-0.512500X0.150000X0.512500X0*%
%ADD29RoundRect,0.150000X-0.512500X-0.150000X0.512500X-0.150000X0.512500X0.150000X-0.512500X0.150000X0*%
%ADD30RoundRect,0.250000X0.413257X0.000000X0.000000X0.413257X-0.413257X0.000000X0.000000X-0.413257X0*%
%ADD31RoundRect,0.050000X0.309359X-0.238649X-0.238649X0.309359X-0.309359X0.238649X0.238649X-0.309359X0*%
%ADD32RoundRect,0.050000X0.309359X0.238649X0.238649X0.309359X-0.309359X-0.238649X-0.238649X-0.309359X0*%
G04 APERTURE END LIST*
D10*
G04 #@! TO.C,SW4*
X95308750Y-51435000D03*
X108235750Y-48895000D03*
D11*
X99663750Y-58305000D03*
X105123750Y-58305000D03*
X99663750Y-59805000D03*
X105123750Y-59805000D03*
G04 #@! TD*
D10*
G04 #@! TO.C,SW9*
X133408750Y-70485000D03*
X146335750Y-67945000D03*
D11*
X143223750Y-78855000D03*
X137763750Y-78855000D03*
X143223750Y-77355000D03*
X137763750Y-77355000D03*
G04 #@! TD*
D10*
G04 #@! TO.C,SW5*
X114358750Y-51435000D03*
X127285750Y-48895000D03*
D11*
X118713750Y-58305000D03*
X124173750Y-58305000D03*
X118713750Y-59805000D03*
X124173750Y-59805000D03*
G04 #@! TD*
D10*
G04 #@! TO.C,SW7*
X95308750Y-70485000D03*
X108235750Y-67945000D03*
D11*
X105123750Y-78855000D03*
X99663750Y-78855000D03*
X105123750Y-77355000D03*
X99663750Y-77355000D03*
G04 #@! TD*
D10*
G04 #@! TO.C,SW8*
X114358750Y-70485000D03*
X127285750Y-67945000D03*
D11*
X124173750Y-78855000D03*
X118713750Y-78855000D03*
X124173750Y-77355000D03*
X118713750Y-77355000D03*
G04 #@! TD*
D10*
G04 #@! TO.C,SW6*
X133408750Y-51435000D03*
X146335750Y-48895000D03*
D11*
X137763750Y-58305000D03*
X143223750Y-58305000D03*
X137763750Y-59805000D03*
X143223750Y-59805000D03*
G04 #@! TD*
D10*
G04 #@! TO.C,SW1*
X95308750Y-32385000D03*
X108235750Y-29845000D03*
D11*
X105123750Y-40755000D03*
X99663750Y-40755000D03*
X105123750Y-39255000D03*
X99663750Y-39255000D03*
G04 #@! TD*
D10*
G04 #@! TO.C,SW2*
X114358750Y-32385000D03*
X127285750Y-29845000D03*
D11*
X124173750Y-40755000D03*
X118713750Y-40755000D03*
X124173750Y-39255000D03*
X118713750Y-39255000D03*
G04 #@! TD*
D10*
G04 #@! TO.C,SW3*
X133408750Y-32385000D03*
X146335750Y-29845000D03*
D11*
X143223750Y-40755000D03*
X137763750Y-40755000D03*
X143223750Y-39255000D03*
X137763750Y-39255000D03*
G04 #@! TD*
D12*
G04 #@! TO.C,C11*
X85317500Y-45593000D03*
X83592500Y-45593000D03*
G04 #@! TD*
D13*
G04 #@! TO.C,C24*
X126603125Y-81031250D03*
X126603125Y-79306250D03*
G04 #@! TD*
D14*
G04 #@! TO.C,D4*
X95250000Y-59593750D03*
X95250000Y-56293750D03*
G04 #@! TD*
D15*
G04 #@! TO.C,R12*
X79612500Y-65151000D03*
X77787500Y-65151000D03*
G04 #@! TD*
D16*
G04 #@! TO.C,C1*
X86106000Y-36554500D03*
X86106000Y-38629500D03*
G04 #@! TD*
D13*
G04 #@! TO.C,C6*
X77597000Y-48741500D03*
X77597000Y-47016500D03*
G04 #@! TD*
D17*
G04 #@! TO.C,R3*
X90297000Y-64082300D03*
X90297000Y-62257300D03*
G04 #@! TD*
D18*
G04 #@! TO.C,SW13*
X90318200Y-72542000D03*
X90318200Y-66142000D03*
X86618200Y-72542000D03*
X86618200Y-66142000D03*
G04 #@! TD*
D14*
G04 #@! TO.C,D1*
X95250000Y-40543750D03*
X95250000Y-37243750D03*
G04 #@! TD*
D12*
G04 #@! TO.C,C13*
X87349500Y-49911000D03*
X85624500Y-49911000D03*
G04 #@! TD*
D19*
G04 #@! TO.C,R10*
X70080500Y-52451000D03*
X71905500Y-52451000D03*
G04 #@! TD*
D12*
G04 #@! TO.C,C19*
X143737500Y-42862500D03*
X142012500Y-42862500D03*
G04 #@! TD*
D14*
G04 #@! TO.C,D2*
X114300000Y-40543750D03*
X114300000Y-37243750D03*
G04 #@! TD*
G04 #@! TO.C,D8*
X114300000Y-78643750D03*
X114300000Y-75343750D03*
G04 #@! TD*
D20*
G04 #@! TO.C,F1*
X151130000Y-46699500D03*
X151130000Y-43724500D03*
G04 #@! TD*
D21*
G04 #@! TO.C,C9*
X83566000Y-60224500D03*
X83566000Y-61949500D03*
G04 #@! TD*
D22*
G04 #@! TO.C,R2*
X152372858Y-55983500D03*
X152372858Y-57808500D03*
G04 #@! TD*
D23*
G04 #@! TO.C,Y1*
X70904000Y-60622000D03*
X70904000Y-62822000D03*
X69304000Y-62822000D03*
X69304000Y-60622000D03*
G04 #@! TD*
D19*
G04 #@! TO.C,R8*
X73001500Y-62230000D03*
X74826500Y-62230000D03*
G04 #@! TD*
D24*
G04 #@! TO.C,C12*
X73051500Y-57658000D03*
X74776500Y-57658000D03*
G04 #@! TD*
D12*
G04 #@! TO.C,C31*
X64431250Y-34131250D03*
X62706250Y-34131250D03*
G04 #@! TD*
D21*
G04 #@! TO.C,C32*
X44450000Y-37962500D03*
X44450000Y-39687500D03*
G04 #@! TD*
D12*
G04 #@! TO.C,C15*
X70966500Y-65024000D03*
X69241500Y-65024000D03*
G04 #@! TD*
D13*
G04 #@! TO.C,C25*
X145653125Y-81031250D03*
X145653125Y-79306250D03*
G04 #@! TD*
D14*
G04 #@! TO.C,D3*
X133350000Y-40543750D03*
X133350000Y-37243750D03*
G04 #@! TD*
D12*
G04 #@! TO.C,C20*
X137318750Y-56356250D03*
X135593750Y-56356250D03*
G04 #@! TD*
D14*
G04 #@! TO.C,D9*
X133350000Y-78643750D03*
X133350000Y-75343750D03*
G04 #@! TD*
D13*
G04 #@! TO.C,C23*
X107553125Y-81031250D03*
X107553125Y-79306250D03*
G04 #@! TD*
D17*
G04 #@! TO.C,R1*
X152372858Y-51204500D03*
X152372858Y-49379500D03*
G04 #@! TD*
D14*
G04 #@! TO.C,D5*
X114300000Y-59593750D03*
X114300000Y-56293750D03*
G04 #@! TD*
D25*
G04 #@! TO.C,U4*
X83687500Y-36642000D03*
X83687500Y-37592000D03*
X83687500Y-38542000D03*
X81412500Y-38542000D03*
X81412500Y-36642000D03*
G04 #@! TD*
D14*
G04 #@! TO.C,D7*
X95250000Y-78643750D03*
X95250000Y-75343750D03*
G04 #@! TD*
D16*
G04 #@! TO.C,C2*
X78994000Y-36554500D03*
X78994000Y-38629500D03*
G04 #@! TD*
D19*
G04 #@! TO.C,R7*
X90400500Y-46736000D03*
X92225500Y-46736000D03*
G04 #@! TD*
D17*
G04 #@! TO.C,R9*
X74041000Y-50518700D03*
X74041000Y-48693700D03*
G04 #@! TD*
D26*
G04 #@! TO.C,U3*
X92811600Y-58253400D03*
X91541600Y-58253400D03*
X90271600Y-58253400D03*
X89001600Y-58253400D03*
X89001600Y-53303400D03*
X90271600Y-53303400D03*
X91541600Y-53303400D03*
X92811600Y-53303400D03*
G04 #@! TD*
D24*
G04 #@! TO.C,C27*
X56218750Y-73818750D03*
X57943750Y-73818750D03*
G04 #@! TD*
D19*
G04 #@! TO.C,R11*
X97909375Y-42862500D03*
X99734375Y-42862500D03*
G04 #@! TD*
D12*
G04 #@! TO.C,C17*
X105637500Y-42862500D03*
X103912500Y-42862500D03*
G04 #@! TD*
D13*
G04 #@! TO.C,C26*
X76200000Y-69987500D03*
X76200000Y-68262500D03*
G04 #@! TD*
D14*
G04 #@! TO.C,D13*
X65024000Y-39752000D03*
X65024000Y-43052000D03*
G04 #@! TD*
D24*
G04 #@! TO.C,C3*
X83592500Y-43815000D03*
X85317500Y-43815000D03*
G04 #@! TD*
D12*
G04 #@! TO.C,C21*
X118406250Y-56356250D03*
X116681250Y-56356250D03*
G04 #@! TD*
D19*
G04 #@! TO.C,R6*
X90400500Y-48514000D03*
X92225500Y-48514000D03*
G04 #@! TD*
D27*
G04 #@! TO.C,SW15*
X71907000Y-46283000D03*
X65507000Y-46283000D03*
X71907000Y-49983000D03*
X65507000Y-49983000D03*
G04 #@! TD*
D22*
G04 #@! TO.C,R5*
X87797000Y-62257300D03*
X87797000Y-64082300D03*
G04 #@! TD*
D12*
G04 #@! TO.C,C22*
X99356250Y-56356250D03*
X97631250Y-56356250D03*
G04 #@! TD*
D24*
G04 #@! TO.C,C16*
X69241500Y-58420000D03*
X70966500Y-58420000D03*
G04 #@! TD*
G04 #@! TO.C,C5*
X85624500Y-48133000D03*
X87349500Y-48133000D03*
G04 #@! TD*
D14*
G04 #@! TO.C,D6*
X133350000Y-59593750D03*
X133350000Y-56293750D03*
G04 #@! TD*
D12*
G04 #@! TO.C,C4*
X92556500Y-50622200D03*
X90831500Y-50622200D03*
G04 #@! TD*
D13*
G04 #@! TO.C,C7*
X75819000Y-50468700D03*
X75819000Y-48743700D03*
G04 #@! TD*
D12*
G04 #@! TO.C,C8*
X74776500Y-59436000D03*
X73051500Y-59436000D03*
G04 #@! TD*
D21*
G04 #@! TO.C,C28*
X44450000Y-61775000D03*
X44450000Y-63500000D03*
G04 #@! TD*
D13*
G04 #@! TO.C,C14*
X81153000Y-45566500D03*
X81153000Y-43841500D03*
G04 #@! TD*
D28*
G04 #@! TO.C,U5*
X81473000Y-65283500D03*
X82423000Y-65283500D03*
X83373000Y-65283500D03*
X83373000Y-67558500D03*
X81473000Y-67558500D03*
G04 #@! TD*
D12*
G04 #@! TO.C,C18*
X124687500Y-42862500D03*
X122962500Y-42862500D03*
G04 #@! TD*
D17*
G04 #@! TO.C,R4*
X79375000Y-45616500D03*
X79375000Y-43791500D03*
G04 #@! TD*
D29*
G04 #@! TO.C,U2*
X89746875Y-42225000D03*
X89746875Y-41275000D03*
X89746875Y-40325000D03*
X92021875Y-40325000D03*
X92021875Y-42225000D03*
G04 #@! TD*
D21*
G04 #@! TO.C,C30*
X76200000Y-42725000D03*
X76200000Y-44450000D03*
G04 #@! TD*
D30*
G04 #@! TO.C,U1*
X80899000Y-54876561D03*
X81800561Y-53975000D03*
X79997439Y-53975000D03*
X80899000Y-53073439D03*
D31*
X85168157Y-54567202D03*
X84885314Y-54850045D03*
X84602472Y-55132887D03*
X84319629Y-55415730D03*
X84036786Y-55698573D03*
X83753944Y-55981415D03*
X83471101Y-56264258D03*
X83188258Y-56547101D03*
X82905415Y-56829944D03*
X82622573Y-57112786D03*
X82339730Y-57395629D03*
X82056887Y-57678472D03*
X81774045Y-57961314D03*
X81491202Y-58244157D03*
D32*
X80306798Y-58244157D03*
X80023955Y-57961314D03*
X79741113Y-57678472D03*
X79458270Y-57395629D03*
X79175427Y-57112786D03*
X78892585Y-56829944D03*
X78609742Y-56547101D03*
X78326899Y-56264258D03*
X78044056Y-55981415D03*
X77761214Y-55698573D03*
X77478371Y-55415730D03*
X77195528Y-55132887D03*
X76912686Y-54850045D03*
X76629843Y-54567202D03*
D31*
X76629843Y-53382798D03*
X76912686Y-53099955D03*
X77195528Y-52817113D03*
X77478371Y-52534270D03*
X77761214Y-52251427D03*
X78044056Y-51968585D03*
X78326899Y-51685742D03*
X78609742Y-51402899D03*
X78892585Y-51120056D03*
X79175427Y-50837214D03*
X79458270Y-50554371D03*
X79741113Y-50271528D03*
X80023955Y-49988686D03*
X80306798Y-49705843D03*
D32*
X81491202Y-49705843D03*
X81774045Y-49988686D03*
X82056887Y-50271528D03*
X82339730Y-50554371D03*
X82622573Y-50837214D03*
X82905415Y-51120056D03*
X83188258Y-51402899D03*
X83471101Y-51685742D03*
X83753944Y-51968585D03*
X84036786Y-52251427D03*
X84319629Y-52534270D03*
X84602472Y-52817113D03*
X84885314Y-53099955D03*
X85168157Y-53382798D03*
G04 #@! TD*
D21*
G04 #@! TO.C,C10*
X85725000Y-60224500D03*
X85725000Y-61949500D03*
G04 #@! TD*
M02*
