G04 #@! TF.GenerationSoftware,KiCad,Pcbnew,7.0.1*
G04 #@! TF.CreationDate,2023-04-28T03:37:42-07:00*
G04 #@! TF.ProjectId,jam-pad,6a616d2d-7061-4642-9e6b-696361645f70,rev?*
G04 #@! TF.SameCoordinates,Original*
G04 #@! TF.FileFunction,Soldermask,Top*
G04 #@! TF.FilePolarity,Negative*
%FSLAX46Y46*%
G04 Gerber Fmt 4.6, Leading zero omitted, Abs format (unit mm)*
G04 Created by KiCad (PCBNEW 7.0.1) date 2023-04-28 03:37:42*
%MOMM*%
%LPD*%
G01*
G04 APERTURE LIST*
%ADD10C,1.750000*%
%ADD11C,3.000000*%
%ADD12C,3.987800*%
%ADD13C,4.400000*%
%ADD14R,2.000000X2.000000*%
%ADD15C,2.000000*%
%ADD16R,2.000000X3.200000*%
%ADD17C,0.650000*%
%ADD18R,1.600000X0.300000*%
%ADD19O,2.100000X1.000000*%
%ADD20O,1.800000X1.000000*%
%ADD21R,1.500000X1.000000*%
%ADD22R,1.000000X1.500000*%
%ADD23C,1.700000*%
%ADD24O,1.700000X1.700000*%
G04 APERTURE END LIST*
D10*
G04 #@! TO.C,SW4*
X97313750Y-53975000D03*
D11*
X98583750Y-51435000D03*
D12*
X102393750Y-53975000D03*
D11*
X104933750Y-48895000D03*
D10*
X107473750Y-53975000D03*
G04 #@! TD*
G04 #@! TO.C,SW9*
X135413750Y-73025000D03*
D11*
X136683750Y-70485000D03*
D12*
X140493750Y-73025000D03*
D11*
X143033750Y-67945000D03*
D10*
X145573750Y-73025000D03*
G04 #@! TD*
D13*
G04 #@! TO.C,H1*
X60325000Y-38481000D03*
G04 #@! TD*
D14*
G04 #@! TO.C,SW14*
X57825000Y-61475000D03*
D15*
X62825000Y-61475000D03*
X60325000Y-61475000D03*
D16*
X54725000Y-53975000D03*
X65925000Y-53975000D03*
D15*
X62825000Y-46975000D03*
X57825000Y-46975000D03*
G04 #@! TD*
D17*
G04 #@! TO.C,J1*
X157021875Y-56865000D03*
X157021875Y-51085000D03*
D18*
X155721875Y-57325000D03*
X155721875Y-56525000D03*
X155721875Y-55225000D03*
X155721875Y-54225000D03*
X155721875Y-53725000D03*
X155721875Y-52725000D03*
X155721875Y-51425000D03*
X155721875Y-50625000D03*
X155721875Y-50925000D03*
X155721875Y-51725000D03*
X155721875Y-52225000D03*
X155721875Y-53225000D03*
X155721875Y-54725000D03*
X155721875Y-55725000D03*
X155721875Y-56225000D03*
X155721875Y-57025000D03*
D19*
X156521875Y-58295000D03*
D20*
X160701875Y-58295000D03*
D19*
X156521875Y-49655000D03*
D20*
X160701875Y-49655000D03*
G04 #@! TD*
D10*
G04 #@! TO.C,SW5*
X116363750Y-53975000D03*
D11*
X117633750Y-51435000D03*
D12*
X121443750Y-53975000D03*
D11*
X123983750Y-48895000D03*
D10*
X126523750Y-53975000D03*
G04 #@! TD*
D13*
G04 #@! TO.C,H2*
X60325000Y-69850000D03*
G04 #@! TD*
D21*
G04 #@! TO.C,D16*
X62775000Y-30968750D03*
X62775000Y-27768750D03*
X57875000Y-27768750D03*
X57875000Y-30968750D03*
G04 #@! TD*
D10*
G04 #@! TO.C,SW7*
X97313750Y-73025000D03*
D11*
X98583750Y-70485000D03*
D12*
X102393750Y-73025000D03*
D11*
X104933750Y-67945000D03*
D10*
X107473750Y-73025000D03*
G04 #@! TD*
G04 #@! TO.C,SW8*
X116363750Y-73025000D03*
D11*
X117633750Y-70485000D03*
D12*
X121443750Y-73025000D03*
D11*
X123983750Y-67945000D03*
D10*
X126523750Y-73025000D03*
G04 #@! TD*
G04 #@! TO.C,SW6*
X135413750Y-53975000D03*
D11*
X136683750Y-51435000D03*
D12*
X140493750Y-53975000D03*
D11*
X143033750Y-48895000D03*
D10*
X145573750Y-53975000D03*
G04 #@! TD*
D22*
G04 #@! TO.C,D17*
X41287500Y-39618750D03*
X38087500Y-39618750D03*
X38087500Y-44518750D03*
X41287500Y-44518750D03*
G04 #@! TD*
G04 #@! TO.C,D12*
X41287500Y-63431250D03*
X38087500Y-63431250D03*
X38087500Y-68331250D03*
X41287500Y-68331250D03*
G04 #@! TD*
D10*
G04 #@! TO.C,SW1*
X97313750Y-34925000D03*
D11*
X98583750Y-32385000D03*
D12*
X102393750Y-34925000D03*
D11*
X104933750Y-29845000D03*
D10*
X107473750Y-34925000D03*
G04 #@! TD*
G04 #@! TO.C,SW2*
X116363750Y-34925000D03*
D11*
X117633750Y-32385000D03*
D12*
X121443750Y-34925000D03*
D11*
X123983750Y-29845000D03*
D10*
X126523750Y-34925000D03*
G04 #@! TD*
D22*
G04 #@! TO.C,D10*
X79362500Y-68331250D03*
X82562500Y-68331250D03*
X82562500Y-63431250D03*
X79362500Y-63431250D03*
G04 #@! TD*
D10*
G04 #@! TO.C,SW3*
X135413750Y-34925000D03*
D11*
X136683750Y-32385000D03*
D12*
X140493750Y-34925000D03*
D11*
X143033750Y-29845000D03*
D10*
X145573750Y-34925000D03*
G04 #@! TD*
D22*
G04 #@! TO.C,D15*
X79362500Y-44518750D03*
X82562500Y-44518750D03*
X82562500Y-39618750D03*
X79362500Y-39618750D03*
G04 #@! TD*
D21*
G04 #@! TO.C,D11*
X57875000Y-76981250D03*
X57875000Y-80181250D03*
X62775000Y-80181250D03*
X62775000Y-76981250D03*
G04 #@! TD*
D23*
G04 #@! TO.C,J2*
X68103750Y-74612500D03*
D24*
X70643750Y-74612500D03*
X73183750Y-74612500D03*
G04 #@! TD*
M02*
