G04 #@! TF.GenerationSoftware,KiCad,Pcbnew,7.0.1*
G04 #@! TF.CreationDate,2023-04-28T03:37:42-07:00*
G04 #@! TF.ProjectId,jam-pad,6a616d2d-7061-4642-9e6b-696361645f70,rev?*
G04 #@! TF.SameCoordinates,Original*
G04 #@! TF.FileFunction,Legend,Bot*
G04 #@! TF.FilePolarity,Positive*
%FSLAX46Y46*%
G04 Gerber Fmt 4.6, Leading zero omitted, Abs format (unit mm)*
G04 Created by KiCad (PCBNEW 7.0.1) date 2023-04-28 03:37:42*
%MOMM*%
%LPD*%
G01*
G04 APERTURE LIST*
%ADD10C,0.240000*%
%ADD11C,0.400000*%
%ADD12C,0.150000*%
%ADD13C,0.120000*%
%ADD14C,0.010000*%
G04 APERTURE END LIST*
D10*
X88936605Y-78243071D02*
X88765177Y-78300214D01*
X88765177Y-78300214D02*
X88708034Y-78357357D01*
X88708034Y-78357357D02*
X88650891Y-78471642D01*
X88650891Y-78471642D02*
X88650891Y-78643071D01*
X88650891Y-78643071D02*
X88708034Y-78757357D01*
X88708034Y-78757357D02*
X88765177Y-78814500D01*
X88765177Y-78814500D02*
X88879462Y-78871642D01*
X88879462Y-78871642D02*
X89336605Y-78871642D01*
X89336605Y-78871642D02*
X89336605Y-77671642D01*
X89336605Y-77671642D02*
X88936605Y-77671642D01*
X88936605Y-77671642D02*
X88822320Y-77728785D01*
X88822320Y-77728785D02*
X88765177Y-77785928D01*
X88765177Y-77785928D02*
X88708034Y-77900214D01*
X88708034Y-77900214D02*
X88708034Y-78014500D01*
X88708034Y-78014500D02*
X88765177Y-78128785D01*
X88765177Y-78128785D02*
X88822320Y-78185928D01*
X88822320Y-78185928D02*
X88936605Y-78243071D01*
X88936605Y-78243071D02*
X89336605Y-78243071D01*
X88136605Y-78871642D02*
X88136605Y-78071642D01*
X88136605Y-78300214D02*
X88079462Y-78185928D01*
X88079462Y-78185928D02*
X88022320Y-78128785D01*
X88022320Y-78128785D02*
X87908034Y-78071642D01*
X87908034Y-78071642D02*
X87793748Y-78071642D01*
X86879463Y-78871642D02*
X86879463Y-78243071D01*
X86879463Y-78243071D02*
X86936605Y-78128785D01*
X86936605Y-78128785D02*
X87050891Y-78071642D01*
X87050891Y-78071642D02*
X87279463Y-78071642D01*
X87279463Y-78071642D02*
X87393748Y-78128785D01*
X86879463Y-78814500D02*
X86993748Y-78871642D01*
X86993748Y-78871642D02*
X87279463Y-78871642D01*
X87279463Y-78871642D02*
X87393748Y-78814500D01*
X87393748Y-78814500D02*
X87450891Y-78700214D01*
X87450891Y-78700214D02*
X87450891Y-78585928D01*
X87450891Y-78585928D02*
X87393748Y-78471642D01*
X87393748Y-78471642D02*
X87279463Y-78414500D01*
X87279463Y-78414500D02*
X86993748Y-78414500D01*
X86993748Y-78414500D02*
X86879463Y-78357357D01*
X86308034Y-78071642D02*
X86308034Y-78871642D01*
X86308034Y-78185928D02*
X86250891Y-78128785D01*
X86250891Y-78128785D02*
X86136606Y-78071642D01*
X86136606Y-78071642D02*
X85965177Y-78071642D01*
X85965177Y-78071642D02*
X85850891Y-78128785D01*
X85850891Y-78128785D02*
X85793749Y-78243071D01*
X85793749Y-78243071D02*
X85793749Y-78871642D01*
X84708035Y-78871642D02*
X84708035Y-77671642D01*
X84708035Y-78814500D02*
X84822320Y-78871642D01*
X84822320Y-78871642D02*
X85050892Y-78871642D01*
X85050892Y-78871642D02*
X85165177Y-78814500D01*
X85165177Y-78814500D02*
X85222320Y-78757357D01*
X85222320Y-78757357D02*
X85279463Y-78643071D01*
X85279463Y-78643071D02*
X85279463Y-78300214D01*
X85279463Y-78300214D02*
X85222320Y-78185928D01*
X85222320Y-78185928D02*
X85165177Y-78128785D01*
X85165177Y-78128785D02*
X85050892Y-78071642D01*
X85050892Y-78071642D02*
X84822320Y-78071642D01*
X84822320Y-78071642D02*
X84708035Y-78128785D01*
X83965178Y-78871642D02*
X84079463Y-78814500D01*
X84079463Y-78814500D02*
X84136606Y-78757357D01*
X84136606Y-78757357D02*
X84193749Y-78643071D01*
X84193749Y-78643071D02*
X84193749Y-78300214D01*
X84193749Y-78300214D02*
X84136606Y-78185928D01*
X84136606Y-78185928D02*
X84079463Y-78128785D01*
X84079463Y-78128785D02*
X83965178Y-78071642D01*
X83965178Y-78071642D02*
X83793749Y-78071642D01*
X83793749Y-78071642D02*
X83679463Y-78128785D01*
X83679463Y-78128785D02*
X83622321Y-78185928D01*
X83622321Y-78185928D02*
X83565178Y-78300214D01*
X83565178Y-78300214D02*
X83565178Y-78643071D01*
X83565178Y-78643071D02*
X83622321Y-78757357D01*
X83622321Y-78757357D02*
X83679463Y-78814500D01*
X83679463Y-78814500D02*
X83793749Y-78871642D01*
X83793749Y-78871642D02*
X83965178Y-78871642D01*
X83050892Y-78071642D02*
X83050892Y-78871642D01*
X83050892Y-78185928D02*
X82993749Y-78128785D01*
X82993749Y-78128785D02*
X82879464Y-78071642D01*
X82879464Y-78071642D02*
X82708035Y-78071642D01*
X82708035Y-78071642D02*
X82593749Y-78128785D01*
X82593749Y-78128785D02*
X82536607Y-78243071D01*
X82536607Y-78243071D02*
X82536607Y-78871642D01*
X80422321Y-77728785D02*
X80536607Y-77671642D01*
X80536607Y-77671642D02*
X80708035Y-77671642D01*
X80708035Y-77671642D02*
X80879464Y-77728785D01*
X80879464Y-77728785D02*
X80993749Y-77843071D01*
X80993749Y-77843071D02*
X81050892Y-77957357D01*
X81050892Y-77957357D02*
X81108035Y-78185928D01*
X81108035Y-78185928D02*
X81108035Y-78357357D01*
X81108035Y-78357357D02*
X81050892Y-78585928D01*
X81050892Y-78585928D02*
X80993749Y-78700214D01*
X80993749Y-78700214D02*
X80879464Y-78814500D01*
X80879464Y-78814500D02*
X80708035Y-78871642D01*
X80708035Y-78871642D02*
X80593749Y-78871642D01*
X80593749Y-78871642D02*
X80422321Y-78814500D01*
X80422321Y-78814500D02*
X80365178Y-78757357D01*
X80365178Y-78757357D02*
X80365178Y-78357357D01*
X80365178Y-78357357D02*
X80593749Y-78357357D01*
X79679464Y-78871642D02*
X79793749Y-78814500D01*
X79793749Y-78814500D02*
X79850892Y-78757357D01*
X79850892Y-78757357D02*
X79908035Y-78643071D01*
X79908035Y-78643071D02*
X79908035Y-78300214D01*
X79908035Y-78300214D02*
X79850892Y-78185928D01*
X79850892Y-78185928D02*
X79793749Y-78128785D01*
X79793749Y-78128785D02*
X79679464Y-78071642D01*
X79679464Y-78071642D02*
X79508035Y-78071642D01*
X79508035Y-78071642D02*
X79393749Y-78128785D01*
X79393749Y-78128785D02*
X79336607Y-78185928D01*
X79336607Y-78185928D02*
X79279464Y-78300214D01*
X79279464Y-78300214D02*
X79279464Y-78643071D01*
X79279464Y-78643071D02*
X79336607Y-78757357D01*
X79336607Y-78757357D02*
X79393749Y-78814500D01*
X79393749Y-78814500D02*
X79508035Y-78871642D01*
X79508035Y-78871642D02*
X79679464Y-78871642D01*
X78765178Y-78071642D02*
X78765178Y-78871642D01*
X78765178Y-78185928D02*
X78708035Y-78128785D01*
X78708035Y-78128785D02*
X78593750Y-78071642D01*
X78593750Y-78071642D02*
X78422321Y-78071642D01*
X78422321Y-78071642D02*
X78308035Y-78128785D01*
X78308035Y-78128785D02*
X78250893Y-78243071D01*
X78250893Y-78243071D02*
X78250893Y-78871642D01*
X77165179Y-78071642D02*
X77165179Y-79043071D01*
X77165179Y-79043071D02*
X77222321Y-79157357D01*
X77222321Y-79157357D02*
X77279464Y-79214500D01*
X77279464Y-79214500D02*
X77393750Y-79271642D01*
X77393750Y-79271642D02*
X77565179Y-79271642D01*
X77565179Y-79271642D02*
X77679464Y-79214500D01*
X77165179Y-78814500D02*
X77279464Y-78871642D01*
X77279464Y-78871642D02*
X77508036Y-78871642D01*
X77508036Y-78871642D02*
X77622321Y-78814500D01*
X77622321Y-78814500D02*
X77679464Y-78757357D01*
X77679464Y-78757357D02*
X77736607Y-78643071D01*
X77736607Y-78643071D02*
X77736607Y-78300214D01*
X77736607Y-78300214D02*
X77679464Y-78185928D01*
X77679464Y-78185928D02*
X77622321Y-78128785D01*
X77622321Y-78128785D02*
X77508036Y-78071642D01*
X77508036Y-78071642D02*
X77279464Y-78071642D01*
X77279464Y-78071642D02*
X77165179Y-78128785D01*
X75165179Y-78871642D02*
X75165179Y-78243071D01*
X75165179Y-78243071D02*
X75222321Y-78128785D01*
X75222321Y-78128785D02*
X75336607Y-78071642D01*
X75336607Y-78071642D02*
X75565179Y-78071642D01*
X75565179Y-78071642D02*
X75679464Y-78128785D01*
X75165179Y-78814500D02*
X75279464Y-78871642D01*
X75279464Y-78871642D02*
X75565179Y-78871642D01*
X75565179Y-78871642D02*
X75679464Y-78814500D01*
X75679464Y-78814500D02*
X75736607Y-78700214D01*
X75736607Y-78700214D02*
X75736607Y-78585928D01*
X75736607Y-78585928D02*
X75679464Y-78471642D01*
X75679464Y-78471642D02*
X75565179Y-78414500D01*
X75565179Y-78414500D02*
X75279464Y-78414500D01*
X75279464Y-78414500D02*
X75165179Y-78357357D01*
X74593750Y-78071642D02*
X74593750Y-78871642D01*
X74593750Y-78185928D02*
X74536607Y-78128785D01*
X74536607Y-78128785D02*
X74422322Y-78071642D01*
X74422322Y-78071642D02*
X74250893Y-78071642D01*
X74250893Y-78071642D02*
X74136607Y-78128785D01*
X74136607Y-78128785D02*
X74079465Y-78243071D01*
X74079465Y-78243071D02*
X74079465Y-78871642D01*
X72993751Y-78871642D02*
X72993751Y-77671642D01*
X72993751Y-78814500D02*
X73108036Y-78871642D01*
X73108036Y-78871642D02*
X73336608Y-78871642D01*
X73336608Y-78871642D02*
X73450893Y-78814500D01*
X73450893Y-78814500D02*
X73508036Y-78757357D01*
X73508036Y-78757357D02*
X73565179Y-78643071D01*
X73565179Y-78643071D02*
X73565179Y-78300214D01*
X73565179Y-78300214D02*
X73508036Y-78185928D01*
X73508036Y-78185928D02*
X73450893Y-78128785D01*
X73450893Y-78128785D02*
X73336608Y-78071642D01*
X73336608Y-78071642D02*
X73108036Y-78071642D01*
X73108036Y-78071642D02*
X72993751Y-78128785D01*
X70822322Y-78871642D02*
X71222322Y-78300214D01*
X71508036Y-78871642D02*
X71508036Y-77671642D01*
X71508036Y-77671642D02*
X71050893Y-77671642D01*
X71050893Y-77671642D02*
X70936608Y-77728785D01*
X70936608Y-77728785D02*
X70879465Y-77785928D01*
X70879465Y-77785928D02*
X70822322Y-77900214D01*
X70822322Y-77900214D02*
X70822322Y-78071642D01*
X70822322Y-78071642D02*
X70879465Y-78185928D01*
X70879465Y-78185928D02*
X70936608Y-78243071D01*
X70936608Y-78243071D02*
X71050893Y-78300214D01*
X71050893Y-78300214D02*
X71508036Y-78300214D01*
X69793751Y-78871642D02*
X69793751Y-78243071D01*
X69793751Y-78243071D02*
X69850893Y-78128785D01*
X69850893Y-78128785D02*
X69965179Y-78071642D01*
X69965179Y-78071642D02*
X70193751Y-78071642D01*
X70193751Y-78071642D02*
X70308036Y-78128785D01*
X69793751Y-78814500D02*
X69908036Y-78871642D01*
X69908036Y-78871642D02*
X70193751Y-78871642D01*
X70193751Y-78871642D02*
X70308036Y-78814500D01*
X70308036Y-78814500D02*
X70365179Y-78700214D01*
X70365179Y-78700214D02*
X70365179Y-78585928D01*
X70365179Y-78585928D02*
X70308036Y-78471642D01*
X70308036Y-78471642D02*
X70193751Y-78414500D01*
X70193751Y-78414500D02*
X69908036Y-78414500D01*
X69908036Y-78414500D02*
X69793751Y-78357357D01*
X69336608Y-78071642D02*
X69050894Y-78871642D01*
X68765179Y-78071642D02*
X69050894Y-78871642D01*
X69050894Y-78871642D02*
X69165179Y-79157357D01*
X69165179Y-79157357D02*
X69222322Y-79214500D01*
X69222322Y-79214500D02*
X69336608Y-79271642D01*
X67450893Y-78814500D02*
X67279465Y-78871642D01*
X67279465Y-78871642D02*
X66993750Y-78871642D01*
X66993750Y-78871642D02*
X66879465Y-78814500D01*
X66879465Y-78814500D02*
X66822322Y-78757357D01*
X66822322Y-78757357D02*
X66765179Y-78643071D01*
X66765179Y-78643071D02*
X66765179Y-78528785D01*
X66765179Y-78528785D02*
X66822322Y-78414500D01*
X66822322Y-78414500D02*
X66879465Y-78357357D01*
X66879465Y-78357357D02*
X66993750Y-78300214D01*
X66993750Y-78300214D02*
X67222322Y-78243071D01*
X67222322Y-78243071D02*
X67336607Y-78185928D01*
X67336607Y-78185928D02*
X67393750Y-78128785D01*
X67393750Y-78128785D02*
X67450893Y-78014500D01*
X67450893Y-78014500D02*
X67450893Y-77900214D01*
X67450893Y-77900214D02*
X67393750Y-77785928D01*
X67393750Y-77785928D02*
X67336607Y-77728785D01*
X67336607Y-77728785D02*
X67222322Y-77671642D01*
X67222322Y-77671642D02*
X66936607Y-77671642D01*
X66936607Y-77671642D02*
X66765179Y-77728785D01*
X65736608Y-78071642D02*
X65736608Y-78871642D01*
X66250893Y-78071642D02*
X66250893Y-78700214D01*
X66250893Y-78700214D02*
X66193750Y-78814500D01*
X66193750Y-78814500D02*
X66079465Y-78871642D01*
X66079465Y-78871642D02*
X65908036Y-78871642D01*
X65908036Y-78871642D02*
X65793750Y-78814500D01*
X65793750Y-78814500D02*
X65736608Y-78757357D01*
X65165179Y-78071642D02*
X65165179Y-78871642D01*
X65165179Y-78185928D02*
X65108036Y-78128785D01*
X65108036Y-78128785D02*
X64993751Y-78071642D01*
X64993751Y-78071642D02*
X64822322Y-78071642D01*
X64822322Y-78071642D02*
X64708036Y-78128785D01*
X64708036Y-78128785D02*
X64650894Y-78243071D01*
X64650894Y-78243071D02*
X64650894Y-78871642D01*
X81536606Y-80472785D02*
X80965178Y-80472785D01*
X81650892Y-80815642D02*
X81250892Y-79615642D01*
X81250892Y-79615642D02*
X80850892Y-80815642D01*
X80450892Y-80015642D02*
X80450892Y-81215642D01*
X80450892Y-80072785D02*
X80336607Y-80015642D01*
X80336607Y-80015642D02*
X80108035Y-80015642D01*
X80108035Y-80015642D02*
X79993749Y-80072785D01*
X79993749Y-80072785D02*
X79936607Y-80129928D01*
X79936607Y-80129928D02*
X79879464Y-80244214D01*
X79879464Y-80244214D02*
X79879464Y-80587071D01*
X79879464Y-80587071D02*
X79936607Y-80701357D01*
X79936607Y-80701357D02*
X79993749Y-80758500D01*
X79993749Y-80758500D02*
X80108035Y-80815642D01*
X80108035Y-80815642D02*
X80336607Y-80815642D01*
X80336607Y-80815642D02*
X80450892Y-80758500D01*
X79365178Y-80815642D02*
X79365178Y-80015642D01*
X79365178Y-80244214D02*
X79308035Y-80129928D01*
X79308035Y-80129928D02*
X79250893Y-80072785D01*
X79250893Y-80072785D02*
X79136607Y-80015642D01*
X79136607Y-80015642D02*
X79022321Y-80015642D01*
X78622321Y-80815642D02*
X78622321Y-80015642D01*
X78622321Y-79615642D02*
X78679464Y-79672785D01*
X78679464Y-79672785D02*
X78622321Y-79729928D01*
X78622321Y-79729928D02*
X78565178Y-79672785D01*
X78565178Y-79672785D02*
X78622321Y-79615642D01*
X78622321Y-79615642D02*
X78622321Y-79729928D01*
X77879464Y-80815642D02*
X77993749Y-80758500D01*
X77993749Y-80758500D02*
X78050892Y-80644214D01*
X78050892Y-80644214D02*
X78050892Y-79615642D01*
X76565178Y-79729928D02*
X76508035Y-79672785D01*
X76508035Y-79672785D02*
X76393750Y-79615642D01*
X76393750Y-79615642D02*
X76108035Y-79615642D01*
X76108035Y-79615642D02*
X75993750Y-79672785D01*
X75993750Y-79672785D02*
X75936607Y-79729928D01*
X75936607Y-79729928D02*
X75879464Y-79844214D01*
X75879464Y-79844214D02*
X75879464Y-79958500D01*
X75879464Y-79958500D02*
X75936607Y-80129928D01*
X75936607Y-80129928D02*
X76622321Y-80815642D01*
X76622321Y-80815642D02*
X75879464Y-80815642D01*
X75136607Y-79615642D02*
X75022321Y-79615642D01*
X75022321Y-79615642D02*
X74908035Y-79672785D01*
X74908035Y-79672785D02*
X74850893Y-79729928D01*
X74850893Y-79729928D02*
X74793750Y-79844214D01*
X74793750Y-79844214D02*
X74736607Y-80072785D01*
X74736607Y-80072785D02*
X74736607Y-80358500D01*
X74736607Y-80358500D02*
X74793750Y-80587071D01*
X74793750Y-80587071D02*
X74850893Y-80701357D01*
X74850893Y-80701357D02*
X74908035Y-80758500D01*
X74908035Y-80758500D02*
X75022321Y-80815642D01*
X75022321Y-80815642D02*
X75136607Y-80815642D01*
X75136607Y-80815642D02*
X75250893Y-80758500D01*
X75250893Y-80758500D02*
X75308035Y-80701357D01*
X75308035Y-80701357D02*
X75365178Y-80587071D01*
X75365178Y-80587071D02*
X75422321Y-80358500D01*
X75422321Y-80358500D02*
X75422321Y-80072785D01*
X75422321Y-80072785D02*
X75365178Y-79844214D01*
X75365178Y-79844214D02*
X75308035Y-79729928D01*
X75308035Y-79729928D02*
X75250893Y-79672785D01*
X75250893Y-79672785D02*
X75136607Y-79615642D01*
X74279464Y-79729928D02*
X74222321Y-79672785D01*
X74222321Y-79672785D02*
X74108036Y-79615642D01*
X74108036Y-79615642D02*
X73822321Y-79615642D01*
X73822321Y-79615642D02*
X73708036Y-79672785D01*
X73708036Y-79672785D02*
X73650893Y-79729928D01*
X73650893Y-79729928D02*
X73593750Y-79844214D01*
X73593750Y-79844214D02*
X73593750Y-79958500D01*
X73593750Y-79958500D02*
X73650893Y-80129928D01*
X73650893Y-80129928D02*
X74336607Y-80815642D01*
X74336607Y-80815642D02*
X73593750Y-80815642D01*
X73193750Y-79615642D02*
X72450893Y-79615642D01*
X72450893Y-79615642D02*
X72850893Y-80072785D01*
X72850893Y-80072785D02*
X72679464Y-80072785D01*
X72679464Y-80072785D02*
X72565179Y-80129928D01*
X72565179Y-80129928D02*
X72508036Y-80187071D01*
X72508036Y-80187071D02*
X72450893Y-80301357D01*
X72450893Y-80301357D02*
X72450893Y-80587071D01*
X72450893Y-80587071D02*
X72508036Y-80701357D01*
X72508036Y-80701357D02*
X72565179Y-80758500D01*
X72565179Y-80758500D02*
X72679464Y-80815642D01*
X72679464Y-80815642D02*
X73022321Y-80815642D01*
X73022321Y-80815642D02*
X73136607Y-80758500D01*
X73136607Y-80758500D02*
X73193750Y-80701357D01*
D11*
X91168302Y-27589107D02*
X91168302Y-29731964D01*
X91168302Y-29731964D02*
X91311159Y-30160535D01*
X91311159Y-30160535D02*
X91596873Y-30446250D01*
X91596873Y-30446250D02*
X92025445Y-30589107D01*
X92025445Y-30589107D02*
X92311159Y-30589107D01*
X89882588Y-29731964D02*
X88454017Y-29731964D01*
X90168302Y-30589107D02*
X89168302Y-27589107D01*
X89168302Y-27589107D02*
X88168302Y-30589107D01*
X87168302Y-30589107D02*
X87168302Y-27589107D01*
X87168302Y-27589107D02*
X86168302Y-29731964D01*
X86168302Y-29731964D02*
X85168302Y-27589107D01*
X85168302Y-27589107D02*
X85168302Y-30589107D01*
X81454017Y-30589107D02*
X81454017Y-27589107D01*
X81454017Y-27589107D02*
X80311160Y-27589107D01*
X80311160Y-27589107D02*
X80025445Y-27731964D01*
X80025445Y-27731964D02*
X79882588Y-27874821D01*
X79882588Y-27874821D02*
X79739731Y-28160535D01*
X79739731Y-28160535D02*
X79739731Y-28589107D01*
X79739731Y-28589107D02*
X79882588Y-28874821D01*
X79882588Y-28874821D02*
X80025445Y-29017678D01*
X80025445Y-29017678D02*
X80311160Y-29160535D01*
X80311160Y-29160535D02*
X81454017Y-29160535D01*
X78596874Y-29731964D02*
X77168303Y-29731964D01*
X78882588Y-30589107D02*
X77882588Y-27589107D01*
X77882588Y-27589107D02*
X76882588Y-30589107D01*
X75882588Y-30589107D02*
X75882588Y-27589107D01*
X75882588Y-27589107D02*
X75168302Y-27589107D01*
X75168302Y-27589107D02*
X74739731Y-27731964D01*
X74739731Y-27731964D02*
X74454016Y-28017678D01*
X74454016Y-28017678D02*
X74311159Y-28303392D01*
X74311159Y-28303392D02*
X74168302Y-28874821D01*
X74168302Y-28874821D02*
X74168302Y-29303392D01*
X74168302Y-29303392D02*
X74311159Y-29874821D01*
X74311159Y-29874821D02*
X74454016Y-30160535D01*
X74454016Y-30160535D02*
X74739731Y-30446250D01*
X74739731Y-30446250D02*
X75168302Y-30589107D01*
X75168302Y-30589107D02*
X75882588Y-30589107D01*
X72882588Y-30303392D02*
X72739731Y-30446250D01*
X72739731Y-30446250D02*
X72882588Y-30589107D01*
X72882588Y-30589107D02*
X73025445Y-30446250D01*
X73025445Y-30446250D02*
X72882588Y-30303392D01*
X72882588Y-30303392D02*
X72882588Y-30589107D01*
X72882588Y-29446250D02*
X73025445Y-27731964D01*
X73025445Y-27731964D02*
X72882588Y-27589107D01*
X72882588Y-27589107D02*
X72739731Y-27731964D01*
X72739731Y-27731964D02*
X72882588Y-29446250D01*
X72882588Y-29446250D02*
X72882588Y-27589107D01*
X69454017Y-28589107D02*
X68739731Y-30589107D01*
X68739731Y-30589107D02*
X68025446Y-28589107D01*
X65311160Y-30589107D02*
X67025446Y-30589107D01*
X66168303Y-30589107D02*
X66168303Y-27589107D01*
X66168303Y-27589107D02*
X66454017Y-28017678D01*
X66454017Y-28017678D02*
X66739732Y-28303392D01*
X66739732Y-28303392D02*
X67025446Y-28446250D01*
X64025446Y-30303392D02*
X63882589Y-30446250D01*
X63882589Y-30446250D02*
X64025446Y-30589107D01*
X64025446Y-30589107D02*
X64168303Y-30446250D01*
X64168303Y-30446250D02*
X64025446Y-30303392D01*
X64025446Y-30303392D02*
X64025446Y-30589107D01*
X62025446Y-27589107D02*
X61739732Y-27589107D01*
X61739732Y-27589107D02*
X61454018Y-27731964D01*
X61454018Y-27731964D02*
X61311161Y-27874821D01*
X61311161Y-27874821D02*
X61168303Y-28160535D01*
X61168303Y-28160535D02*
X61025446Y-28731964D01*
X61025446Y-28731964D02*
X61025446Y-29446250D01*
X61025446Y-29446250D02*
X61168303Y-30017678D01*
X61168303Y-30017678D02*
X61311161Y-30303392D01*
X61311161Y-30303392D02*
X61454018Y-30446250D01*
X61454018Y-30446250D02*
X61739732Y-30589107D01*
X61739732Y-30589107D02*
X62025446Y-30589107D01*
X62025446Y-30589107D02*
X62311161Y-30446250D01*
X62311161Y-30446250D02*
X62454018Y-30303392D01*
X62454018Y-30303392D02*
X62596875Y-30017678D01*
X62596875Y-30017678D02*
X62739732Y-29446250D01*
X62739732Y-29446250D02*
X62739732Y-28731964D01*
X62739732Y-28731964D02*
X62596875Y-28160535D01*
X62596875Y-28160535D02*
X62454018Y-27874821D01*
X62454018Y-27874821D02*
X62311161Y-27731964D01*
X62311161Y-27731964D02*
X62025446Y-27589107D01*
D12*
G04 #@! TO.C,C11*
X88196657Y-44182380D02*
X88244276Y-44230000D01*
X88244276Y-44230000D02*
X88387133Y-44277619D01*
X88387133Y-44277619D02*
X88482371Y-44277619D01*
X88482371Y-44277619D02*
X88625228Y-44230000D01*
X88625228Y-44230000D02*
X88720466Y-44134761D01*
X88720466Y-44134761D02*
X88768085Y-44039523D01*
X88768085Y-44039523D02*
X88815704Y-43849047D01*
X88815704Y-43849047D02*
X88815704Y-43706190D01*
X88815704Y-43706190D02*
X88768085Y-43515714D01*
X88768085Y-43515714D02*
X88720466Y-43420476D01*
X88720466Y-43420476D02*
X88625228Y-43325238D01*
X88625228Y-43325238D02*
X88482371Y-43277619D01*
X88482371Y-43277619D02*
X88387133Y-43277619D01*
X88387133Y-43277619D02*
X88244276Y-43325238D01*
X88244276Y-43325238D02*
X88196657Y-43372857D01*
X87244276Y-44277619D02*
X87815704Y-44277619D01*
X87529990Y-44277619D02*
X87529990Y-43277619D01*
X87529990Y-43277619D02*
X87625228Y-43420476D01*
X87625228Y-43420476D02*
X87720466Y-43515714D01*
X87720466Y-43515714D02*
X87815704Y-43563333D01*
X86291895Y-44277619D02*
X86863323Y-44277619D01*
X86577609Y-44277619D02*
X86577609Y-43277619D01*
X86577609Y-43277619D02*
X86672847Y-43420476D01*
X86672847Y-43420476D02*
X86768085Y-43515714D01*
X86768085Y-43515714D02*
X86863323Y-43563333D01*
G04 #@! TO.C,C24*
X126970505Y-76350892D02*
X127018125Y-76303273D01*
X127018125Y-76303273D02*
X127065744Y-76160416D01*
X127065744Y-76160416D02*
X127065744Y-76065178D01*
X127065744Y-76065178D02*
X127018125Y-75922321D01*
X127018125Y-75922321D02*
X126922886Y-75827083D01*
X126922886Y-75827083D02*
X126827648Y-75779464D01*
X126827648Y-75779464D02*
X126637172Y-75731845D01*
X126637172Y-75731845D02*
X126494315Y-75731845D01*
X126494315Y-75731845D02*
X126303839Y-75779464D01*
X126303839Y-75779464D02*
X126208601Y-75827083D01*
X126208601Y-75827083D02*
X126113363Y-75922321D01*
X126113363Y-75922321D02*
X126065744Y-76065178D01*
X126065744Y-76065178D02*
X126065744Y-76160416D01*
X126065744Y-76160416D02*
X126113363Y-76303273D01*
X126113363Y-76303273D02*
X126160982Y-76350892D01*
X126160982Y-76731845D02*
X126113363Y-76779464D01*
X126113363Y-76779464D02*
X126065744Y-76874702D01*
X126065744Y-76874702D02*
X126065744Y-77112797D01*
X126065744Y-77112797D02*
X126113363Y-77208035D01*
X126113363Y-77208035D02*
X126160982Y-77255654D01*
X126160982Y-77255654D02*
X126256220Y-77303273D01*
X126256220Y-77303273D02*
X126351458Y-77303273D01*
X126351458Y-77303273D02*
X126494315Y-77255654D01*
X126494315Y-77255654D02*
X127065744Y-76684226D01*
X127065744Y-76684226D02*
X127065744Y-77303273D01*
X126399077Y-78160416D02*
X127065744Y-78160416D01*
X126018125Y-77922321D02*
X126732410Y-77684226D01*
X126732410Y-77684226D02*
X126732410Y-78303273D01*
G04 #@! TO.C,D4*
X95712619Y-61174405D02*
X94712619Y-61174405D01*
X94712619Y-61174405D02*
X94712619Y-61412500D01*
X94712619Y-61412500D02*
X94760238Y-61555357D01*
X94760238Y-61555357D02*
X94855476Y-61650595D01*
X94855476Y-61650595D02*
X94950714Y-61698214D01*
X94950714Y-61698214D02*
X95141190Y-61745833D01*
X95141190Y-61745833D02*
X95284047Y-61745833D01*
X95284047Y-61745833D02*
X95474523Y-61698214D01*
X95474523Y-61698214D02*
X95569761Y-61650595D01*
X95569761Y-61650595D02*
X95665000Y-61555357D01*
X95665000Y-61555357D02*
X95712619Y-61412500D01*
X95712619Y-61412500D02*
X95712619Y-61174405D01*
X95045952Y-62602976D02*
X95712619Y-62602976D01*
X94665000Y-62364881D02*
X95379285Y-62126786D01*
X95379285Y-62126786D02*
X95379285Y-62745833D01*
G04 #@! TO.C,R12*
X79342857Y-64183619D02*
X79676190Y-63707428D01*
X79914285Y-64183619D02*
X79914285Y-63183619D01*
X79914285Y-63183619D02*
X79533333Y-63183619D01*
X79533333Y-63183619D02*
X79438095Y-63231238D01*
X79438095Y-63231238D02*
X79390476Y-63278857D01*
X79390476Y-63278857D02*
X79342857Y-63374095D01*
X79342857Y-63374095D02*
X79342857Y-63516952D01*
X79342857Y-63516952D02*
X79390476Y-63612190D01*
X79390476Y-63612190D02*
X79438095Y-63659809D01*
X79438095Y-63659809D02*
X79533333Y-63707428D01*
X79533333Y-63707428D02*
X79914285Y-63707428D01*
X78390476Y-64183619D02*
X78961904Y-64183619D01*
X78676190Y-64183619D02*
X78676190Y-63183619D01*
X78676190Y-63183619D02*
X78771428Y-63326476D01*
X78771428Y-63326476D02*
X78866666Y-63421714D01*
X78866666Y-63421714D02*
X78961904Y-63469333D01*
X78009523Y-63278857D02*
X77961904Y-63231238D01*
X77961904Y-63231238D02*
X77866666Y-63183619D01*
X77866666Y-63183619D02*
X77628571Y-63183619D01*
X77628571Y-63183619D02*
X77533333Y-63231238D01*
X77533333Y-63231238D02*
X77485714Y-63278857D01*
X77485714Y-63278857D02*
X77438095Y-63374095D01*
X77438095Y-63374095D02*
X77438095Y-63469333D01*
X77438095Y-63469333D02*
X77485714Y-63612190D01*
X77485714Y-63612190D02*
X78057142Y-64183619D01*
X78057142Y-64183619D02*
X77438095Y-64183619D01*
G04 #@! TO.C,C1*
X84793380Y-37425333D02*
X84841000Y-37377714D01*
X84841000Y-37377714D02*
X84888619Y-37234857D01*
X84888619Y-37234857D02*
X84888619Y-37139619D01*
X84888619Y-37139619D02*
X84841000Y-36996762D01*
X84841000Y-36996762D02*
X84745761Y-36901524D01*
X84745761Y-36901524D02*
X84650523Y-36853905D01*
X84650523Y-36853905D02*
X84460047Y-36806286D01*
X84460047Y-36806286D02*
X84317190Y-36806286D01*
X84317190Y-36806286D02*
X84126714Y-36853905D01*
X84126714Y-36853905D02*
X84031476Y-36901524D01*
X84031476Y-36901524D02*
X83936238Y-36996762D01*
X83936238Y-36996762D02*
X83888619Y-37139619D01*
X83888619Y-37139619D02*
X83888619Y-37234857D01*
X83888619Y-37234857D02*
X83936238Y-37377714D01*
X83936238Y-37377714D02*
X83983857Y-37425333D01*
X84888619Y-38377714D02*
X84888619Y-37806286D01*
X84888619Y-38092000D02*
X83888619Y-38092000D01*
X83888619Y-38092000D02*
X84031476Y-37996762D01*
X84031476Y-37996762D02*
X84126714Y-37901524D01*
X84126714Y-37901524D02*
X84174333Y-37806286D01*
G04 #@! TO.C,C6*
X79394380Y-47712333D02*
X79442000Y-47664714D01*
X79442000Y-47664714D02*
X79489619Y-47521857D01*
X79489619Y-47521857D02*
X79489619Y-47426619D01*
X79489619Y-47426619D02*
X79442000Y-47283762D01*
X79442000Y-47283762D02*
X79346761Y-47188524D01*
X79346761Y-47188524D02*
X79251523Y-47140905D01*
X79251523Y-47140905D02*
X79061047Y-47093286D01*
X79061047Y-47093286D02*
X78918190Y-47093286D01*
X78918190Y-47093286D02*
X78727714Y-47140905D01*
X78727714Y-47140905D02*
X78632476Y-47188524D01*
X78632476Y-47188524D02*
X78537238Y-47283762D01*
X78537238Y-47283762D02*
X78489619Y-47426619D01*
X78489619Y-47426619D02*
X78489619Y-47521857D01*
X78489619Y-47521857D02*
X78537238Y-47664714D01*
X78537238Y-47664714D02*
X78584857Y-47712333D01*
X78489619Y-48569476D02*
X78489619Y-48379000D01*
X78489619Y-48379000D02*
X78537238Y-48283762D01*
X78537238Y-48283762D02*
X78584857Y-48236143D01*
X78584857Y-48236143D02*
X78727714Y-48140905D01*
X78727714Y-48140905D02*
X78918190Y-48093286D01*
X78918190Y-48093286D02*
X79299142Y-48093286D01*
X79299142Y-48093286D02*
X79394380Y-48140905D01*
X79394380Y-48140905D02*
X79442000Y-48188524D01*
X79442000Y-48188524D02*
X79489619Y-48283762D01*
X79489619Y-48283762D02*
X79489619Y-48474238D01*
X79489619Y-48474238D02*
X79442000Y-48569476D01*
X79442000Y-48569476D02*
X79394380Y-48617095D01*
X79394380Y-48617095D02*
X79299142Y-48664714D01*
X79299142Y-48664714D02*
X79061047Y-48664714D01*
X79061047Y-48664714D02*
X78965809Y-48617095D01*
X78965809Y-48617095D02*
X78918190Y-48569476D01*
X78918190Y-48569476D02*
X78870571Y-48474238D01*
X78870571Y-48474238D02*
X78870571Y-48283762D01*
X78870571Y-48283762D02*
X78918190Y-48188524D01*
X78918190Y-48188524D02*
X78965809Y-48140905D01*
X78965809Y-48140905D02*
X79061047Y-48093286D01*
G04 #@! TO.C,R3*
X90759619Y-60259933D02*
X90283428Y-59926600D01*
X90759619Y-59688505D02*
X89759619Y-59688505D01*
X89759619Y-59688505D02*
X89759619Y-60069457D01*
X89759619Y-60069457D02*
X89807238Y-60164695D01*
X89807238Y-60164695D02*
X89854857Y-60212314D01*
X89854857Y-60212314D02*
X89950095Y-60259933D01*
X89950095Y-60259933D02*
X90092952Y-60259933D01*
X90092952Y-60259933D02*
X90188190Y-60212314D01*
X90188190Y-60212314D02*
X90235809Y-60164695D01*
X90235809Y-60164695D02*
X90283428Y-60069457D01*
X90283428Y-60069457D02*
X90283428Y-59688505D01*
X89759619Y-60593267D02*
X89759619Y-61212314D01*
X89759619Y-61212314D02*
X90140571Y-60878981D01*
X90140571Y-60878981D02*
X90140571Y-61021838D01*
X90140571Y-61021838D02*
X90188190Y-61117076D01*
X90188190Y-61117076D02*
X90235809Y-61164695D01*
X90235809Y-61164695D02*
X90331047Y-61212314D01*
X90331047Y-61212314D02*
X90569142Y-61212314D01*
X90569142Y-61212314D02*
X90664380Y-61164695D01*
X90664380Y-61164695D02*
X90712000Y-61117076D01*
X90712000Y-61117076D02*
X90759619Y-61021838D01*
X90759619Y-61021838D02*
X90759619Y-60736124D01*
X90759619Y-60736124D02*
X90712000Y-60640886D01*
X90712000Y-60640886D02*
X90664380Y-60593267D01*
G04 #@! TO.C,SW13*
X92693200Y-67532476D02*
X92740819Y-67675333D01*
X92740819Y-67675333D02*
X92740819Y-67913428D01*
X92740819Y-67913428D02*
X92693200Y-68008666D01*
X92693200Y-68008666D02*
X92645580Y-68056285D01*
X92645580Y-68056285D02*
X92550342Y-68103904D01*
X92550342Y-68103904D02*
X92455104Y-68103904D01*
X92455104Y-68103904D02*
X92359866Y-68056285D01*
X92359866Y-68056285D02*
X92312247Y-68008666D01*
X92312247Y-68008666D02*
X92264628Y-67913428D01*
X92264628Y-67913428D02*
X92217009Y-67722952D01*
X92217009Y-67722952D02*
X92169390Y-67627714D01*
X92169390Y-67627714D02*
X92121771Y-67580095D01*
X92121771Y-67580095D02*
X92026533Y-67532476D01*
X92026533Y-67532476D02*
X91931295Y-67532476D01*
X91931295Y-67532476D02*
X91836057Y-67580095D01*
X91836057Y-67580095D02*
X91788438Y-67627714D01*
X91788438Y-67627714D02*
X91740819Y-67722952D01*
X91740819Y-67722952D02*
X91740819Y-67961047D01*
X91740819Y-67961047D02*
X91788438Y-68103904D01*
X91740819Y-68437238D02*
X92740819Y-68675333D01*
X92740819Y-68675333D02*
X92026533Y-68865809D01*
X92026533Y-68865809D02*
X92740819Y-69056285D01*
X92740819Y-69056285D02*
X91740819Y-69294381D01*
X92740819Y-70199142D02*
X92740819Y-69627714D01*
X92740819Y-69913428D02*
X91740819Y-69913428D01*
X91740819Y-69913428D02*
X91883676Y-69818190D01*
X91883676Y-69818190D02*
X91978914Y-69722952D01*
X91978914Y-69722952D02*
X92026533Y-69627714D01*
X91740819Y-70532476D02*
X91740819Y-71151523D01*
X91740819Y-71151523D02*
X92121771Y-70818190D01*
X92121771Y-70818190D02*
X92121771Y-70961047D01*
X92121771Y-70961047D02*
X92169390Y-71056285D01*
X92169390Y-71056285D02*
X92217009Y-71103904D01*
X92217009Y-71103904D02*
X92312247Y-71151523D01*
X92312247Y-71151523D02*
X92550342Y-71151523D01*
X92550342Y-71151523D02*
X92645580Y-71103904D01*
X92645580Y-71103904D02*
X92693200Y-71056285D01*
X92693200Y-71056285D02*
X92740819Y-70961047D01*
X92740819Y-70961047D02*
X92740819Y-70675333D01*
X92740819Y-70675333D02*
X92693200Y-70580095D01*
X92693200Y-70580095D02*
X92645580Y-70532476D01*
G04 #@! TO.C,J2*
X65236369Y-74279166D02*
X65950654Y-74279166D01*
X65950654Y-74279166D02*
X66093511Y-74231547D01*
X66093511Y-74231547D02*
X66188750Y-74136309D01*
X66188750Y-74136309D02*
X66236369Y-73993452D01*
X66236369Y-73993452D02*
X66236369Y-73898214D01*
X65331607Y-74707738D02*
X65283988Y-74755357D01*
X65283988Y-74755357D02*
X65236369Y-74850595D01*
X65236369Y-74850595D02*
X65236369Y-75088690D01*
X65236369Y-75088690D02*
X65283988Y-75183928D01*
X65283988Y-75183928D02*
X65331607Y-75231547D01*
X65331607Y-75231547D02*
X65426845Y-75279166D01*
X65426845Y-75279166D02*
X65522083Y-75279166D01*
X65522083Y-75279166D02*
X65664940Y-75231547D01*
X65664940Y-75231547D02*
X66236369Y-74660119D01*
X66236369Y-74660119D02*
X66236369Y-75279166D01*
G04 #@! TO.C,D1*
X95712619Y-42124405D02*
X94712619Y-42124405D01*
X94712619Y-42124405D02*
X94712619Y-42362500D01*
X94712619Y-42362500D02*
X94760238Y-42505357D01*
X94760238Y-42505357D02*
X94855476Y-42600595D01*
X94855476Y-42600595D02*
X94950714Y-42648214D01*
X94950714Y-42648214D02*
X95141190Y-42695833D01*
X95141190Y-42695833D02*
X95284047Y-42695833D01*
X95284047Y-42695833D02*
X95474523Y-42648214D01*
X95474523Y-42648214D02*
X95569761Y-42600595D01*
X95569761Y-42600595D02*
X95665000Y-42505357D01*
X95665000Y-42505357D02*
X95712619Y-42362500D01*
X95712619Y-42362500D02*
X95712619Y-42124405D01*
X95712619Y-43648214D02*
X95712619Y-43076786D01*
X95712619Y-43362500D02*
X94712619Y-43362500D01*
X94712619Y-43362500D02*
X94855476Y-43267262D01*
X94855476Y-43267262D02*
X94950714Y-43172024D01*
X94950714Y-43172024D02*
X94998333Y-43076786D01*
G04 #@! TO.C,C13*
X87129857Y-51776980D02*
X87177476Y-51824600D01*
X87177476Y-51824600D02*
X87320333Y-51872219D01*
X87320333Y-51872219D02*
X87415571Y-51872219D01*
X87415571Y-51872219D02*
X87558428Y-51824600D01*
X87558428Y-51824600D02*
X87653666Y-51729361D01*
X87653666Y-51729361D02*
X87701285Y-51634123D01*
X87701285Y-51634123D02*
X87748904Y-51443647D01*
X87748904Y-51443647D02*
X87748904Y-51300790D01*
X87748904Y-51300790D02*
X87701285Y-51110314D01*
X87701285Y-51110314D02*
X87653666Y-51015076D01*
X87653666Y-51015076D02*
X87558428Y-50919838D01*
X87558428Y-50919838D02*
X87415571Y-50872219D01*
X87415571Y-50872219D02*
X87320333Y-50872219D01*
X87320333Y-50872219D02*
X87177476Y-50919838D01*
X87177476Y-50919838D02*
X87129857Y-50967457D01*
X86177476Y-51872219D02*
X86748904Y-51872219D01*
X86463190Y-51872219D02*
X86463190Y-50872219D01*
X86463190Y-50872219D02*
X86558428Y-51015076D01*
X86558428Y-51015076D02*
X86653666Y-51110314D01*
X86653666Y-51110314D02*
X86748904Y-51157933D01*
X85844142Y-50872219D02*
X85225095Y-50872219D01*
X85225095Y-50872219D02*
X85558428Y-51253171D01*
X85558428Y-51253171D02*
X85415571Y-51253171D01*
X85415571Y-51253171D02*
X85320333Y-51300790D01*
X85320333Y-51300790D02*
X85272714Y-51348409D01*
X85272714Y-51348409D02*
X85225095Y-51443647D01*
X85225095Y-51443647D02*
X85225095Y-51681742D01*
X85225095Y-51681742D02*
X85272714Y-51776980D01*
X85272714Y-51776980D02*
X85320333Y-51824600D01*
X85320333Y-51824600D02*
X85415571Y-51872219D01*
X85415571Y-51872219D02*
X85701285Y-51872219D01*
X85701285Y-51872219D02*
X85796523Y-51824600D01*
X85796523Y-51824600D02*
X85844142Y-51776980D01*
G04 #@! TO.C,R10*
X71635857Y-54343619D02*
X71969190Y-53867428D01*
X72207285Y-54343619D02*
X72207285Y-53343619D01*
X72207285Y-53343619D02*
X71826333Y-53343619D01*
X71826333Y-53343619D02*
X71731095Y-53391238D01*
X71731095Y-53391238D02*
X71683476Y-53438857D01*
X71683476Y-53438857D02*
X71635857Y-53534095D01*
X71635857Y-53534095D02*
X71635857Y-53676952D01*
X71635857Y-53676952D02*
X71683476Y-53772190D01*
X71683476Y-53772190D02*
X71731095Y-53819809D01*
X71731095Y-53819809D02*
X71826333Y-53867428D01*
X71826333Y-53867428D02*
X72207285Y-53867428D01*
X70683476Y-54343619D02*
X71254904Y-54343619D01*
X70969190Y-54343619D02*
X70969190Y-53343619D01*
X70969190Y-53343619D02*
X71064428Y-53486476D01*
X71064428Y-53486476D02*
X71159666Y-53581714D01*
X71159666Y-53581714D02*
X71254904Y-53629333D01*
X70064428Y-53343619D02*
X69969190Y-53343619D01*
X69969190Y-53343619D02*
X69873952Y-53391238D01*
X69873952Y-53391238D02*
X69826333Y-53438857D01*
X69826333Y-53438857D02*
X69778714Y-53534095D01*
X69778714Y-53534095D02*
X69731095Y-53724571D01*
X69731095Y-53724571D02*
X69731095Y-53962666D01*
X69731095Y-53962666D02*
X69778714Y-54153142D01*
X69778714Y-54153142D02*
X69826333Y-54248380D01*
X69826333Y-54248380D02*
X69873952Y-54296000D01*
X69873952Y-54296000D02*
X69969190Y-54343619D01*
X69969190Y-54343619D02*
X70064428Y-54343619D01*
X70064428Y-54343619D02*
X70159666Y-54296000D01*
X70159666Y-54296000D02*
X70207285Y-54248380D01*
X70207285Y-54248380D02*
X70254904Y-54153142D01*
X70254904Y-54153142D02*
X70302523Y-53962666D01*
X70302523Y-53962666D02*
X70302523Y-53724571D01*
X70302523Y-53724571D02*
X70254904Y-53534095D01*
X70254904Y-53534095D02*
X70207285Y-53438857D01*
X70207285Y-53438857D02*
X70159666Y-53391238D01*
X70159666Y-53391238D02*
X70064428Y-53343619D01*
G04 #@! TO.C,C19*
X146692857Y-43229880D02*
X146740476Y-43277500D01*
X146740476Y-43277500D02*
X146883333Y-43325119D01*
X146883333Y-43325119D02*
X146978571Y-43325119D01*
X146978571Y-43325119D02*
X147121428Y-43277500D01*
X147121428Y-43277500D02*
X147216666Y-43182261D01*
X147216666Y-43182261D02*
X147264285Y-43087023D01*
X147264285Y-43087023D02*
X147311904Y-42896547D01*
X147311904Y-42896547D02*
X147311904Y-42753690D01*
X147311904Y-42753690D02*
X147264285Y-42563214D01*
X147264285Y-42563214D02*
X147216666Y-42467976D01*
X147216666Y-42467976D02*
X147121428Y-42372738D01*
X147121428Y-42372738D02*
X146978571Y-42325119D01*
X146978571Y-42325119D02*
X146883333Y-42325119D01*
X146883333Y-42325119D02*
X146740476Y-42372738D01*
X146740476Y-42372738D02*
X146692857Y-42420357D01*
X145740476Y-43325119D02*
X146311904Y-43325119D01*
X146026190Y-43325119D02*
X146026190Y-42325119D01*
X146026190Y-42325119D02*
X146121428Y-42467976D01*
X146121428Y-42467976D02*
X146216666Y-42563214D01*
X146216666Y-42563214D02*
X146311904Y-42610833D01*
X145264285Y-43325119D02*
X145073809Y-43325119D01*
X145073809Y-43325119D02*
X144978571Y-43277500D01*
X144978571Y-43277500D02*
X144930952Y-43229880D01*
X144930952Y-43229880D02*
X144835714Y-43087023D01*
X144835714Y-43087023D02*
X144788095Y-42896547D01*
X144788095Y-42896547D02*
X144788095Y-42515595D01*
X144788095Y-42515595D02*
X144835714Y-42420357D01*
X144835714Y-42420357D02*
X144883333Y-42372738D01*
X144883333Y-42372738D02*
X144978571Y-42325119D01*
X144978571Y-42325119D02*
X145169047Y-42325119D01*
X145169047Y-42325119D02*
X145264285Y-42372738D01*
X145264285Y-42372738D02*
X145311904Y-42420357D01*
X145311904Y-42420357D02*
X145359523Y-42515595D01*
X145359523Y-42515595D02*
X145359523Y-42753690D01*
X145359523Y-42753690D02*
X145311904Y-42848928D01*
X145311904Y-42848928D02*
X145264285Y-42896547D01*
X145264285Y-42896547D02*
X145169047Y-42944166D01*
X145169047Y-42944166D02*
X144978571Y-42944166D01*
X144978571Y-42944166D02*
X144883333Y-42896547D01*
X144883333Y-42896547D02*
X144835714Y-42848928D01*
X144835714Y-42848928D02*
X144788095Y-42753690D01*
G04 #@! TO.C,D2*
X114762619Y-42124405D02*
X113762619Y-42124405D01*
X113762619Y-42124405D02*
X113762619Y-42362500D01*
X113762619Y-42362500D02*
X113810238Y-42505357D01*
X113810238Y-42505357D02*
X113905476Y-42600595D01*
X113905476Y-42600595D02*
X114000714Y-42648214D01*
X114000714Y-42648214D02*
X114191190Y-42695833D01*
X114191190Y-42695833D02*
X114334047Y-42695833D01*
X114334047Y-42695833D02*
X114524523Y-42648214D01*
X114524523Y-42648214D02*
X114619761Y-42600595D01*
X114619761Y-42600595D02*
X114715000Y-42505357D01*
X114715000Y-42505357D02*
X114762619Y-42362500D01*
X114762619Y-42362500D02*
X114762619Y-42124405D01*
X113857857Y-43076786D02*
X113810238Y-43124405D01*
X113810238Y-43124405D02*
X113762619Y-43219643D01*
X113762619Y-43219643D02*
X113762619Y-43457738D01*
X113762619Y-43457738D02*
X113810238Y-43552976D01*
X113810238Y-43552976D02*
X113857857Y-43600595D01*
X113857857Y-43600595D02*
X113953095Y-43648214D01*
X113953095Y-43648214D02*
X114048333Y-43648214D01*
X114048333Y-43648214D02*
X114191190Y-43600595D01*
X114191190Y-43600595D02*
X114762619Y-43029167D01*
X114762619Y-43029167D02*
X114762619Y-43648214D01*
G04 #@! TO.C,D8*
X114762619Y-80224405D02*
X113762619Y-80224405D01*
X113762619Y-80224405D02*
X113762619Y-80462500D01*
X113762619Y-80462500D02*
X113810238Y-80605357D01*
X113810238Y-80605357D02*
X113905476Y-80700595D01*
X113905476Y-80700595D02*
X114000714Y-80748214D01*
X114000714Y-80748214D02*
X114191190Y-80795833D01*
X114191190Y-80795833D02*
X114334047Y-80795833D01*
X114334047Y-80795833D02*
X114524523Y-80748214D01*
X114524523Y-80748214D02*
X114619761Y-80700595D01*
X114619761Y-80700595D02*
X114715000Y-80605357D01*
X114715000Y-80605357D02*
X114762619Y-80462500D01*
X114762619Y-80462500D02*
X114762619Y-80224405D01*
X114191190Y-81367262D02*
X114143571Y-81272024D01*
X114143571Y-81272024D02*
X114095952Y-81224405D01*
X114095952Y-81224405D02*
X114000714Y-81176786D01*
X114000714Y-81176786D02*
X113953095Y-81176786D01*
X113953095Y-81176786D02*
X113857857Y-81224405D01*
X113857857Y-81224405D02*
X113810238Y-81272024D01*
X113810238Y-81272024D02*
X113762619Y-81367262D01*
X113762619Y-81367262D02*
X113762619Y-81557738D01*
X113762619Y-81557738D02*
X113810238Y-81652976D01*
X113810238Y-81652976D02*
X113857857Y-81700595D01*
X113857857Y-81700595D02*
X113953095Y-81748214D01*
X113953095Y-81748214D02*
X114000714Y-81748214D01*
X114000714Y-81748214D02*
X114095952Y-81700595D01*
X114095952Y-81700595D02*
X114143571Y-81652976D01*
X114143571Y-81652976D02*
X114191190Y-81557738D01*
X114191190Y-81557738D02*
X114191190Y-81367262D01*
X114191190Y-81367262D02*
X114238809Y-81272024D01*
X114238809Y-81272024D02*
X114286428Y-81224405D01*
X114286428Y-81224405D02*
X114381666Y-81176786D01*
X114381666Y-81176786D02*
X114572142Y-81176786D01*
X114572142Y-81176786D02*
X114667380Y-81224405D01*
X114667380Y-81224405D02*
X114715000Y-81272024D01*
X114715000Y-81272024D02*
X114762619Y-81367262D01*
X114762619Y-81367262D02*
X114762619Y-81557738D01*
X114762619Y-81557738D02*
X114715000Y-81652976D01*
X114715000Y-81652976D02*
X114667380Y-81700595D01*
X114667380Y-81700595D02*
X114572142Y-81748214D01*
X114572142Y-81748214D02*
X114381666Y-81748214D01*
X114381666Y-81748214D02*
X114286428Y-81700595D01*
X114286428Y-81700595D02*
X114238809Y-81652976D01*
X114238809Y-81652976D02*
X114191190Y-81557738D01*
G04 #@! TO.C,F1*
X152888809Y-44878666D02*
X152888809Y-44545333D01*
X153412619Y-44545333D02*
X152412619Y-44545333D01*
X152412619Y-44545333D02*
X152412619Y-45021523D01*
X153412619Y-45926285D02*
X153412619Y-45354857D01*
X153412619Y-45640571D02*
X152412619Y-45640571D01*
X152412619Y-45640571D02*
X152555476Y-45545333D01*
X152555476Y-45545333D02*
X152650714Y-45450095D01*
X152650714Y-45450095D02*
X152698333Y-45354857D01*
G04 #@! TO.C,C9*
X82503380Y-60920333D02*
X82551000Y-60872714D01*
X82551000Y-60872714D02*
X82598619Y-60729857D01*
X82598619Y-60729857D02*
X82598619Y-60634619D01*
X82598619Y-60634619D02*
X82551000Y-60491762D01*
X82551000Y-60491762D02*
X82455761Y-60396524D01*
X82455761Y-60396524D02*
X82360523Y-60348905D01*
X82360523Y-60348905D02*
X82170047Y-60301286D01*
X82170047Y-60301286D02*
X82027190Y-60301286D01*
X82027190Y-60301286D02*
X81836714Y-60348905D01*
X81836714Y-60348905D02*
X81741476Y-60396524D01*
X81741476Y-60396524D02*
X81646238Y-60491762D01*
X81646238Y-60491762D02*
X81598619Y-60634619D01*
X81598619Y-60634619D02*
X81598619Y-60729857D01*
X81598619Y-60729857D02*
X81646238Y-60872714D01*
X81646238Y-60872714D02*
X81693857Y-60920333D01*
X82598619Y-61396524D02*
X82598619Y-61587000D01*
X82598619Y-61587000D02*
X82551000Y-61682238D01*
X82551000Y-61682238D02*
X82503380Y-61729857D01*
X82503380Y-61729857D02*
X82360523Y-61825095D01*
X82360523Y-61825095D02*
X82170047Y-61872714D01*
X82170047Y-61872714D02*
X81789095Y-61872714D01*
X81789095Y-61872714D02*
X81693857Y-61825095D01*
X81693857Y-61825095D02*
X81646238Y-61777476D01*
X81646238Y-61777476D02*
X81598619Y-61682238D01*
X81598619Y-61682238D02*
X81598619Y-61491762D01*
X81598619Y-61491762D02*
X81646238Y-61396524D01*
X81646238Y-61396524D02*
X81693857Y-61348905D01*
X81693857Y-61348905D02*
X81789095Y-61301286D01*
X81789095Y-61301286D02*
X82027190Y-61301286D01*
X82027190Y-61301286D02*
X82122428Y-61348905D01*
X82122428Y-61348905D02*
X82170047Y-61396524D01*
X82170047Y-61396524D02*
X82217666Y-61491762D01*
X82217666Y-61491762D02*
X82217666Y-61682238D01*
X82217666Y-61682238D02*
X82170047Y-61777476D01*
X82170047Y-61777476D02*
X82122428Y-61825095D01*
X82122428Y-61825095D02*
X82027190Y-61872714D01*
G04 #@! TO.C,R2*
X151405477Y-56729333D02*
X150929286Y-56396000D01*
X151405477Y-56157905D02*
X150405477Y-56157905D01*
X150405477Y-56157905D02*
X150405477Y-56538857D01*
X150405477Y-56538857D02*
X150453096Y-56634095D01*
X150453096Y-56634095D02*
X150500715Y-56681714D01*
X150500715Y-56681714D02*
X150595953Y-56729333D01*
X150595953Y-56729333D02*
X150738810Y-56729333D01*
X150738810Y-56729333D02*
X150834048Y-56681714D01*
X150834048Y-56681714D02*
X150881667Y-56634095D01*
X150881667Y-56634095D02*
X150929286Y-56538857D01*
X150929286Y-56538857D02*
X150929286Y-56157905D01*
X150500715Y-57110286D02*
X150453096Y-57157905D01*
X150453096Y-57157905D02*
X150405477Y-57253143D01*
X150405477Y-57253143D02*
X150405477Y-57491238D01*
X150405477Y-57491238D02*
X150453096Y-57586476D01*
X150453096Y-57586476D02*
X150500715Y-57634095D01*
X150500715Y-57634095D02*
X150595953Y-57681714D01*
X150595953Y-57681714D02*
X150691191Y-57681714D01*
X150691191Y-57681714D02*
X150834048Y-57634095D01*
X150834048Y-57634095D02*
X151405477Y-57062667D01*
X151405477Y-57062667D02*
X151405477Y-57681714D01*
G04 #@! TO.C,Y1*
X67640428Y-61245809D02*
X68116619Y-61245809D01*
X67116619Y-60912476D02*
X67640428Y-61245809D01*
X67640428Y-61245809D02*
X67116619Y-61579142D01*
X68116619Y-62436285D02*
X68116619Y-61864857D01*
X68116619Y-62150571D02*
X67116619Y-62150571D01*
X67116619Y-62150571D02*
X67259476Y-62055333D01*
X67259476Y-62055333D02*
X67354714Y-61960095D01*
X67354714Y-61960095D02*
X67402333Y-61864857D01*
G04 #@! TO.C,R8*
X74080666Y-64122619D02*
X74413999Y-63646428D01*
X74652094Y-64122619D02*
X74652094Y-63122619D01*
X74652094Y-63122619D02*
X74271142Y-63122619D01*
X74271142Y-63122619D02*
X74175904Y-63170238D01*
X74175904Y-63170238D02*
X74128285Y-63217857D01*
X74128285Y-63217857D02*
X74080666Y-63313095D01*
X74080666Y-63313095D02*
X74080666Y-63455952D01*
X74080666Y-63455952D02*
X74128285Y-63551190D01*
X74128285Y-63551190D02*
X74175904Y-63598809D01*
X74175904Y-63598809D02*
X74271142Y-63646428D01*
X74271142Y-63646428D02*
X74652094Y-63646428D01*
X73509237Y-63551190D02*
X73604475Y-63503571D01*
X73604475Y-63503571D02*
X73652094Y-63455952D01*
X73652094Y-63455952D02*
X73699713Y-63360714D01*
X73699713Y-63360714D02*
X73699713Y-63313095D01*
X73699713Y-63313095D02*
X73652094Y-63217857D01*
X73652094Y-63217857D02*
X73604475Y-63170238D01*
X73604475Y-63170238D02*
X73509237Y-63122619D01*
X73509237Y-63122619D02*
X73318761Y-63122619D01*
X73318761Y-63122619D02*
X73223523Y-63170238D01*
X73223523Y-63170238D02*
X73175904Y-63217857D01*
X73175904Y-63217857D02*
X73128285Y-63313095D01*
X73128285Y-63313095D02*
X73128285Y-63360714D01*
X73128285Y-63360714D02*
X73175904Y-63455952D01*
X73175904Y-63455952D02*
X73223523Y-63503571D01*
X73223523Y-63503571D02*
X73318761Y-63551190D01*
X73318761Y-63551190D02*
X73509237Y-63551190D01*
X73509237Y-63551190D02*
X73604475Y-63598809D01*
X73604475Y-63598809D02*
X73652094Y-63646428D01*
X73652094Y-63646428D02*
X73699713Y-63741666D01*
X73699713Y-63741666D02*
X73699713Y-63932142D01*
X73699713Y-63932142D02*
X73652094Y-64027380D01*
X73652094Y-64027380D02*
X73604475Y-64075000D01*
X73604475Y-64075000D02*
X73509237Y-64122619D01*
X73509237Y-64122619D02*
X73318761Y-64122619D01*
X73318761Y-64122619D02*
X73223523Y-64075000D01*
X73223523Y-64075000D02*
X73175904Y-64027380D01*
X73175904Y-64027380D02*
X73128285Y-63932142D01*
X73128285Y-63932142D02*
X73128285Y-63741666D01*
X73128285Y-63741666D02*
X73175904Y-63646428D01*
X73175904Y-63646428D02*
X73223523Y-63598809D01*
X73223523Y-63598809D02*
X73318761Y-63551190D01*
G04 #@! TO.C,C12*
X74556857Y-56374380D02*
X74604476Y-56422000D01*
X74604476Y-56422000D02*
X74747333Y-56469619D01*
X74747333Y-56469619D02*
X74842571Y-56469619D01*
X74842571Y-56469619D02*
X74985428Y-56422000D01*
X74985428Y-56422000D02*
X75080666Y-56326761D01*
X75080666Y-56326761D02*
X75128285Y-56231523D01*
X75128285Y-56231523D02*
X75175904Y-56041047D01*
X75175904Y-56041047D02*
X75175904Y-55898190D01*
X75175904Y-55898190D02*
X75128285Y-55707714D01*
X75128285Y-55707714D02*
X75080666Y-55612476D01*
X75080666Y-55612476D02*
X74985428Y-55517238D01*
X74985428Y-55517238D02*
X74842571Y-55469619D01*
X74842571Y-55469619D02*
X74747333Y-55469619D01*
X74747333Y-55469619D02*
X74604476Y-55517238D01*
X74604476Y-55517238D02*
X74556857Y-55564857D01*
X73604476Y-56469619D02*
X74175904Y-56469619D01*
X73890190Y-56469619D02*
X73890190Y-55469619D01*
X73890190Y-55469619D02*
X73985428Y-55612476D01*
X73985428Y-55612476D02*
X74080666Y-55707714D01*
X74080666Y-55707714D02*
X74175904Y-55755333D01*
X73223523Y-55564857D02*
X73175904Y-55517238D01*
X73175904Y-55517238D02*
X73080666Y-55469619D01*
X73080666Y-55469619D02*
X72842571Y-55469619D01*
X72842571Y-55469619D02*
X72747333Y-55517238D01*
X72747333Y-55517238D02*
X72699714Y-55564857D01*
X72699714Y-55564857D02*
X72652095Y-55660095D01*
X72652095Y-55660095D02*
X72652095Y-55755333D01*
X72652095Y-55755333D02*
X72699714Y-55898190D01*
X72699714Y-55898190D02*
X73271142Y-56469619D01*
X73271142Y-56469619D02*
X72652095Y-56469619D01*
G04 #@! TO.C,C31*
X64211607Y-33068630D02*
X64259226Y-33116250D01*
X64259226Y-33116250D02*
X64402083Y-33163869D01*
X64402083Y-33163869D02*
X64497321Y-33163869D01*
X64497321Y-33163869D02*
X64640178Y-33116250D01*
X64640178Y-33116250D02*
X64735416Y-33021011D01*
X64735416Y-33021011D02*
X64783035Y-32925773D01*
X64783035Y-32925773D02*
X64830654Y-32735297D01*
X64830654Y-32735297D02*
X64830654Y-32592440D01*
X64830654Y-32592440D02*
X64783035Y-32401964D01*
X64783035Y-32401964D02*
X64735416Y-32306726D01*
X64735416Y-32306726D02*
X64640178Y-32211488D01*
X64640178Y-32211488D02*
X64497321Y-32163869D01*
X64497321Y-32163869D02*
X64402083Y-32163869D01*
X64402083Y-32163869D02*
X64259226Y-32211488D01*
X64259226Y-32211488D02*
X64211607Y-32259107D01*
X63878273Y-32163869D02*
X63259226Y-32163869D01*
X63259226Y-32163869D02*
X63592559Y-32544821D01*
X63592559Y-32544821D02*
X63449702Y-32544821D01*
X63449702Y-32544821D02*
X63354464Y-32592440D01*
X63354464Y-32592440D02*
X63306845Y-32640059D01*
X63306845Y-32640059D02*
X63259226Y-32735297D01*
X63259226Y-32735297D02*
X63259226Y-32973392D01*
X63259226Y-32973392D02*
X63306845Y-33068630D01*
X63306845Y-33068630D02*
X63354464Y-33116250D01*
X63354464Y-33116250D02*
X63449702Y-33163869D01*
X63449702Y-33163869D02*
X63735416Y-33163869D01*
X63735416Y-33163869D02*
X63830654Y-33116250D01*
X63830654Y-33116250D02*
X63878273Y-33068630D01*
X62306845Y-33163869D02*
X62878273Y-33163869D01*
X62592559Y-33163869D02*
X62592559Y-32163869D01*
X62592559Y-32163869D02*
X62687797Y-32306726D01*
X62687797Y-32306726D02*
X62783035Y-32401964D01*
X62783035Y-32401964D02*
X62878273Y-32449583D01*
G04 #@! TO.C,C32*
X43387380Y-38182142D02*
X43435000Y-38134523D01*
X43435000Y-38134523D02*
X43482619Y-37991666D01*
X43482619Y-37991666D02*
X43482619Y-37896428D01*
X43482619Y-37896428D02*
X43435000Y-37753571D01*
X43435000Y-37753571D02*
X43339761Y-37658333D01*
X43339761Y-37658333D02*
X43244523Y-37610714D01*
X43244523Y-37610714D02*
X43054047Y-37563095D01*
X43054047Y-37563095D02*
X42911190Y-37563095D01*
X42911190Y-37563095D02*
X42720714Y-37610714D01*
X42720714Y-37610714D02*
X42625476Y-37658333D01*
X42625476Y-37658333D02*
X42530238Y-37753571D01*
X42530238Y-37753571D02*
X42482619Y-37896428D01*
X42482619Y-37896428D02*
X42482619Y-37991666D01*
X42482619Y-37991666D02*
X42530238Y-38134523D01*
X42530238Y-38134523D02*
X42577857Y-38182142D01*
X42482619Y-38515476D02*
X42482619Y-39134523D01*
X42482619Y-39134523D02*
X42863571Y-38801190D01*
X42863571Y-38801190D02*
X42863571Y-38944047D01*
X42863571Y-38944047D02*
X42911190Y-39039285D01*
X42911190Y-39039285D02*
X42958809Y-39086904D01*
X42958809Y-39086904D02*
X43054047Y-39134523D01*
X43054047Y-39134523D02*
X43292142Y-39134523D01*
X43292142Y-39134523D02*
X43387380Y-39086904D01*
X43387380Y-39086904D02*
X43435000Y-39039285D01*
X43435000Y-39039285D02*
X43482619Y-38944047D01*
X43482619Y-38944047D02*
X43482619Y-38658333D01*
X43482619Y-38658333D02*
X43435000Y-38563095D01*
X43435000Y-38563095D02*
X43387380Y-38515476D01*
X42577857Y-39515476D02*
X42530238Y-39563095D01*
X42530238Y-39563095D02*
X42482619Y-39658333D01*
X42482619Y-39658333D02*
X42482619Y-39896428D01*
X42482619Y-39896428D02*
X42530238Y-39991666D01*
X42530238Y-39991666D02*
X42577857Y-40039285D01*
X42577857Y-40039285D02*
X42673095Y-40086904D01*
X42673095Y-40086904D02*
X42768333Y-40086904D01*
X42768333Y-40086904D02*
X42911190Y-40039285D01*
X42911190Y-40039285D02*
X43482619Y-39467857D01*
X43482619Y-39467857D02*
X43482619Y-40086904D01*
G04 #@! TO.C,C15*
X70746857Y-67042380D02*
X70794476Y-67090000D01*
X70794476Y-67090000D02*
X70937333Y-67137619D01*
X70937333Y-67137619D02*
X71032571Y-67137619D01*
X71032571Y-67137619D02*
X71175428Y-67090000D01*
X71175428Y-67090000D02*
X71270666Y-66994761D01*
X71270666Y-66994761D02*
X71318285Y-66899523D01*
X71318285Y-66899523D02*
X71365904Y-66709047D01*
X71365904Y-66709047D02*
X71365904Y-66566190D01*
X71365904Y-66566190D02*
X71318285Y-66375714D01*
X71318285Y-66375714D02*
X71270666Y-66280476D01*
X71270666Y-66280476D02*
X71175428Y-66185238D01*
X71175428Y-66185238D02*
X71032571Y-66137619D01*
X71032571Y-66137619D02*
X70937333Y-66137619D01*
X70937333Y-66137619D02*
X70794476Y-66185238D01*
X70794476Y-66185238D02*
X70746857Y-66232857D01*
X69794476Y-67137619D02*
X70365904Y-67137619D01*
X70080190Y-67137619D02*
X70080190Y-66137619D01*
X70080190Y-66137619D02*
X70175428Y-66280476D01*
X70175428Y-66280476D02*
X70270666Y-66375714D01*
X70270666Y-66375714D02*
X70365904Y-66423333D01*
X68889714Y-66137619D02*
X69365904Y-66137619D01*
X69365904Y-66137619D02*
X69413523Y-66613809D01*
X69413523Y-66613809D02*
X69365904Y-66566190D01*
X69365904Y-66566190D02*
X69270666Y-66518571D01*
X69270666Y-66518571D02*
X69032571Y-66518571D01*
X69032571Y-66518571D02*
X68937333Y-66566190D01*
X68937333Y-66566190D02*
X68889714Y-66613809D01*
X68889714Y-66613809D02*
X68842095Y-66709047D01*
X68842095Y-66709047D02*
X68842095Y-66947142D01*
X68842095Y-66947142D02*
X68889714Y-67042380D01*
X68889714Y-67042380D02*
X68937333Y-67090000D01*
X68937333Y-67090000D02*
X69032571Y-67137619D01*
X69032571Y-67137619D02*
X69270666Y-67137619D01*
X69270666Y-67137619D02*
X69365904Y-67090000D01*
X69365904Y-67090000D02*
X69413523Y-67042380D01*
G04 #@! TO.C,C25*
X146020505Y-76350892D02*
X146068125Y-76303273D01*
X146068125Y-76303273D02*
X146115744Y-76160416D01*
X146115744Y-76160416D02*
X146115744Y-76065178D01*
X146115744Y-76065178D02*
X146068125Y-75922321D01*
X146068125Y-75922321D02*
X145972886Y-75827083D01*
X145972886Y-75827083D02*
X145877648Y-75779464D01*
X145877648Y-75779464D02*
X145687172Y-75731845D01*
X145687172Y-75731845D02*
X145544315Y-75731845D01*
X145544315Y-75731845D02*
X145353839Y-75779464D01*
X145353839Y-75779464D02*
X145258601Y-75827083D01*
X145258601Y-75827083D02*
X145163363Y-75922321D01*
X145163363Y-75922321D02*
X145115744Y-76065178D01*
X145115744Y-76065178D02*
X145115744Y-76160416D01*
X145115744Y-76160416D02*
X145163363Y-76303273D01*
X145163363Y-76303273D02*
X145210982Y-76350892D01*
X145210982Y-76731845D02*
X145163363Y-76779464D01*
X145163363Y-76779464D02*
X145115744Y-76874702D01*
X145115744Y-76874702D02*
X145115744Y-77112797D01*
X145115744Y-77112797D02*
X145163363Y-77208035D01*
X145163363Y-77208035D02*
X145210982Y-77255654D01*
X145210982Y-77255654D02*
X145306220Y-77303273D01*
X145306220Y-77303273D02*
X145401458Y-77303273D01*
X145401458Y-77303273D02*
X145544315Y-77255654D01*
X145544315Y-77255654D02*
X146115744Y-76684226D01*
X146115744Y-76684226D02*
X146115744Y-77303273D01*
X145115744Y-78208035D02*
X145115744Y-77731845D01*
X145115744Y-77731845D02*
X145591934Y-77684226D01*
X145591934Y-77684226D02*
X145544315Y-77731845D01*
X145544315Y-77731845D02*
X145496696Y-77827083D01*
X145496696Y-77827083D02*
X145496696Y-78065178D01*
X145496696Y-78065178D02*
X145544315Y-78160416D01*
X145544315Y-78160416D02*
X145591934Y-78208035D01*
X145591934Y-78208035D02*
X145687172Y-78255654D01*
X145687172Y-78255654D02*
X145925267Y-78255654D01*
X145925267Y-78255654D02*
X146020505Y-78208035D01*
X146020505Y-78208035D02*
X146068125Y-78160416D01*
X146068125Y-78160416D02*
X146115744Y-78065178D01*
X146115744Y-78065178D02*
X146115744Y-77827083D01*
X146115744Y-77827083D02*
X146068125Y-77731845D01*
X146068125Y-77731845D02*
X146020505Y-77684226D01*
G04 #@! TO.C,D3*
X133812619Y-42124405D02*
X132812619Y-42124405D01*
X132812619Y-42124405D02*
X132812619Y-42362500D01*
X132812619Y-42362500D02*
X132860238Y-42505357D01*
X132860238Y-42505357D02*
X132955476Y-42600595D01*
X132955476Y-42600595D02*
X133050714Y-42648214D01*
X133050714Y-42648214D02*
X133241190Y-42695833D01*
X133241190Y-42695833D02*
X133384047Y-42695833D01*
X133384047Y-42695833D02*
X133574523Y-42648214D01*
X133574523Y-42648214D02*
X133669761Y-42600595D01*
X133669761Y-42600595D02*
X133765000Y-42505357D01*
X133765000Y-42505357D02*
X133812619Y-42362500D01*
X133812619Y-42362500D02*
X133812619Y-42124405D01*
X132812619Y-43029167D02*
X132812619Y-43648214D01*
X132812619Y-43648214D02*
X133193571Y-43314881D01*
X133193571Y-43314881D02*
X133193571Y-43457738D01*
X133193571Y-43457738D02*
X133241190Y-43552976D01*
X133241190Y-43552976D02*
X133288809Y-43600595D01*
X133288809Y-43600595D02*
X133384047Y-43648214D01*
X133384047Y-43648214D02*
X133622142Y-43648214D01*
X133622142Y-43648214D02*
X133717380Y-43600595D01*
X133717380Y-43600595D02*
X133765000Y-43552976D01*
X133765000Y-43552976D02*
X133812619Y-43457738D01*
X133812619Y-43457738D02*
X133812619Y-43172024D01*
X133812619Y-43172024D02*
X133765000Y-43076786D01*
X133765000Y-43076786D02*
X133717380Y-43029167D01*
G04 #@! TO.C,C20*
X136098630Y-58094642D02*
X136146250Y-58047023D01*
X136146250Y-58047023D02*
X136193869Y-57904166D01*
X136193869Y-57904166D02*
X136193869Y-57808928D01*
X136193869Y-57808928D02*
X136146250Y-57666071D01*
X136146250Y-57666071D02*
X136051011Y-57570833D01*
X136051011Y-57570833D02*
X135955773Y-57523214D01*
X135955773Y-57523214D02*
X135765297Y-57475595D01*
X135765297Y-57475595D02*
X135622440Y-57475595D01*
X135622440Y-57475595D02*
X135431964Y-57523214D01*
X135431964Y-57523214D02*
X135336726Y-57570833D01*
X135336726Y-57570833D02*
X135241488Y-57666071D01*
X135241488Y-57666071D02*
X135193869Y-57808928D01*
X135193869Y-57808928D02*
X135193869Y-57904166D01*
X135193869Y-57904166D02*
X135241488Y-58047023D01*
X135241488Y-58047023D02*
X135289107Y-58094642D01*
X135289107Y-58475595D02*
X135241488Y-58523214D01*
X135241488Y-58523214D02*
X135193869Y-58618452D01*
X135193869Y-58618452D02*
X135193869Y-58856547D01*
X135193869Y-58856547D02*
X135241488Y-58951785D01*
X135241488Y-58951785D02*
X135289107Y-58999404D01*
X135289107Y-58999404D02*
X135384345Y-59047023D01*
X135384345Y-59047023D02*
X135479583Y-59047023D01*
X135479583Y-59047023D02*
X135622440Y-58999404D01*
X135622440Y-58999404D02*
X136193869Y-58427976D01*
X136193869Y-58427976D02*
X136193869Y-59047023D01*
X135193869Y-59666071D02*
X135193869Y-59761309D01*
X135193869Y-59761309D02*
X135241488Y-59856547D01*
X135241488Y-59856547D02*
X135289107Y-59904166D01*
X135289107Y-59904166D02*
X135384345Y-59951785D01*
X135384345Y-59951785D02*
X135574821Y-59999404D01*
X135574821Y-59999404D02*
X135812916Y-59999404D01*
X135812916Y-59999404D02*
X136003392Y-59951785D01*
X136003392Y-59951785D02*
X136098630Y-59904166D01*
X136098630Y-59904166D02*
X136146250Y-59856547D01*
X136146250Y-59856547D02*
X136193869Y-59761309D01*
X136193869Y-59761309D02*
X136193869Y-59666071D01*
X136193869Y-59666071D02*
X136146250Y-59570833D01*
X136146250Y-59570833D02*
X136098630Y-59523214D01*
X136098630Y-59523214D02*
X136003392Y-59475595D01*
X136003392Y-59475595D02*
X135812916Y-59427976D01*
X135812916Y-59427976D02*
X135574821Y-59427976D01*
X135574821Y-59427976D02*
X135384345Y-59475595D01*
X135384345Y-59475595D02*
X135289107Y-59523214D01*
X135289107Y-59523214D02*
X135241488Y-59570833D01*
X135241488Y-59570833D02*
X135193869Y-59666071D01*
G04 #@! TO.C,D9*
X133812619Y-79430655D02*
X132812619Y-79430655D01*
X132812619Y-79430655D02*
X132812619Y-79668750D01*
X132812619Y-79668750D02*
X132860238Y-79811607D01*
X132860238Y-79811607D02*
X132955476Y-79906845D01*
X132955476Y-79906845D02*
X133050714Y-79954464D01*
X133050714Y-79954464D02*
X133241190Y-80002083D01*
X133241190Y-80002083D02*
X133384047Y-80002083D01*
X133384047Y-80002083D02*
X133574523Y-79954464D01*
X133574523Y-79954464D02*
X133669761Y-79906845D01*
X133669761Y-79906845D02*
X133765000Y-79811607D01*
X133765000Y-79811607D02*
X133812619Y-79668750D01*
X133812619Y-79668750D02*
X133812619Y-79430655D01*
X133812619Y-80478274D02*
X133812619Y-80668750D01*
X133812619Y-80668750D02*
X133765000Y-80763988D01*
X133765000Y-80763988D02*
X133717380Y-80811607D01*
X133717380Y-80811607D02*
X133574523Y-80906845D01*
X133574523Y-80906845D02*
X133384047Y-80954464D01*
X133384047Y-80954464D02*
X133003095Y-80954464D01*
X133003095Y-80954464D02*
X132907857Y-80906845D01*
X132907857Y-80906845D02*
X132860238Y-80859226D01*
X132860238Y-80859226D02*
X132812619Y-80763988D01*
X132812619Y-80763988D02*
X132812619Y-80573512D01*
X132812619Y-80573512D02*
X132860238Y-80478274D01*
X132860238Y-80478274D02*
X132907857Y-80430655D01*
X132907857Y-80430655D02*
X133003095Y-80383036D01*
X133003095Y-80383036D02*
X133241190Y-80383036D01*
X133241190Y-80383036D02*
X133336428Y-80430655D01*
X133336428Y-80430655D02*
X133384047Y-80478274D01*
X133384047Y-80478274D02*
X133431666Y-80573512D01*
X133431666Y-80573512D02*
X133431666Y-80763988D01*
X133431666Y-80763988D02*
X133384047Y-80859226D01*
X133384047Y-80859226D02*
X133336428Y-80906845D01*
X133336428Y-80906845D02*
X133241190Y-80954464D01*
G04 #@! TO.C,C23*
X107920505Y-76350892D02*
X107968125Y-76303273D01*
X107968125Y-76303273D02*
X108015744Y-76160416D01*
X108015744Y-76160416D02*
X108015744Y-76065178D01*
X108015744Y-76065178D02*
X107968125Y-75922321D01*
X107968125Y-75922321D02*
X107872886Y-75827083D01*
X107872886Y-75827083D02*
X107777648Y-75779464D01*
X107777648Y-75779464D02*
X107587172Y-75731845D01*
X107587172Y-75731845D02*
X107444315Y-75731845D01*
X107444315Y-75731845D02*
X107253839Y-75779464D01*
X107253839Y-75779464D02*
X107158601Y-75827083D01*
X107158601Y-75827083D02*
X107063363Y-75922321D01*
X107063363Y-75922321D02*
X107015744Y-76065178D01*
X107015744Y-76065178D02*
X107015744Y-76160416D01*
X107015744Y-76160416D02*
X107063363Y-76303273D01*
X107063363Y-76303273D02*
X107110982Y-76350892D01*
X107110982Y-76731845D02*
X107063363Y-76779464D01*
X107063363Y-76779464D02*
X107015744Y-76874702D01*
X107015744Y-76874702D02*
X107015744Y-77112797D01*
X107015744Y-77112797D02*
X107063363Y-77208035D01*
X107063363Y-77208035D02*
X107110982Y-77255654D01*
X107110982Y-77255654D02*
X107206220Y-77303273D01*
X107206220Y-77303273D02*
X107301458Y-77303273D01*
X107301458Y-77303273D02*
X107444315Y-77255654D01*
X107444315Y-77255654D02*
X108015744Y-76684226D01*
X108015744Y-76684226D02*
X108015744Y-77303273D01*
X107015744Y-77636607D02*
X107015744Y-78255654D01*
X107015744Y-78255654D02*
X107396696Y-77922321D01*
X107396696Y-77922321D02*
X107396696Y-78065178D01*
X107396696Y-78065178D02*
X107444315Y-78160416D01*
X107444315Y-78160416D02*
X107491934Y-78208035D01*
X107491934Y-78208035D02*
X107587172Y-78255654D01*
X107587172Y-78255654D02*
X107825267Y-78255654D01*
X107825267Y-78255654D02*
X107920505Y-78208035D01*
X107920505Y-78208035D02*
X107968125Y-78160416D01*
X107968125Y-78160416D02*
X108015744Y-78065178D01*
X108015744Y-78065178D02*
X108015744Y-77779464D01*
X108015744Y-77779464D02*
X107968125Y-77684226D01*
X107968125Y-77684226D02*
X107920505Y-77636607D01*
G04 #@! TO.C,R1*
X154265477Y-50125333D02*
X153789286Y-49792000D01*
X154265477Y-49553905D02*
X153265477Y-49553905D01*
X153265477Y-49553905D02*
X153265477Y-49934857D01*
X153265477Y-49934857D02*
X153313096Y-50030095D01*
X153313096Y-50030095D02*
X153360715Y-50077714D01*
X153360715Y-50077714D02*
X153455953Y-50125333D01*
X153455953Y-50125333D02*
X153598810Y-50125333D01*
X153598810Y-50125333D02*
X153694048Y-50077714D01*
X153694048Y-50077714D02*
X153741667Y-50030095D01*
X153741667Y-50030095D02*
X153789286Y-49934857D01*
X153789286Y-49934857D02*
X153789286Y-49553905D01*
X154265477Y-51077714D02*
X154265477Y-50506286D01*
X154265477Y-50792000D02*
X153265477Y-50792000D01*
X153265477Y-50792000D02*
X153408334Y-50696762D01*
X153408334Y-50696762D02*
X153503572Y-50601524D01*
X153503572Y-50601524D02*
X153551191Y-50506286D01*
G04 #@! TO.C,D5*
X114762619Y-61174405D02*
X113762619Y-61174405D01*
X113762619Y-61174405D02*
X113762619Y-61412500D01*
X113762619Y-61412500D02*
X113810238Y-61555357D01*
X113810238Y-61555357D02*
X113905476Y-61650595D01*
X113905476Y-61650595D02*
X114000714Y-61698214D01*
X114000714Y-61698214D02*
X114191190Y-61745833D01*
X114191190Y-61745833D02*
X114334047Y-61745833D01*
X114334047Y-61745833D02*
X114524523Y-61698214D01*
X114524523Y-61698214D02*
X114619761Y-61650595D01*
X114619761Y-61650595D02*
X114715000Y-61555357D01*
X114715000Y-61555357D02*
X114762619Y-61412500D01*
X114762619Y-61412500D02*
X114762619Y-61174405D01*
X113762619Y-62650595D02*
X113762619Y-62174405D01*
X113762619Y-62174405D02*
X114238809Y-62126786D01*
X114238809Y-62126786D02*
X114191190Y-62174405D01*
X114191190Y-62174405D02*
X114143571Y-62269643D01*
X114143571Y-62269643D02*
X114143571Y-62507738D01*
X114143571Y-62507738D02*
X114191190Y-62602976D01*
X114191190Y-62602976D02*
X114238809Y-62650595D01*
X114238809Y-62650595D02*
X114334047Y-62698214D01*
X114334047Y-62698214D02*
X114572142Y-62698214D01*
X114572142Y-62698214D02*
X114667380Y-62650595D01*
X114667380Y-62650595D02*
X114715000Y-62602976D01*
X114715000Y-62602976D02*
X114762619Y-62507738D01*
X114762619Y-62507738D02*
X114762619Y-62269643D01*
X114762619Y-62269643D02*
X114715000Y-62174405D01*
X114715000Y-62174405D02*
X114667380Y-62126786D01*
G04 #@! TO.C,U4*
X83311904Y-34654619D02*
X83311904Y-35464142D01*
X83311904Y-35464142D02*
X83264285Y-35559380D01*
X83264285Y-35559380D02*
X83216666Y-35607000D01*
X83216666Y-35607000D02*
X83121428Y-35654619D01*
X83121428Y-35654619D02*
X82930952Y-35654619D01*
X82930952Y-35654619D02*
X82835714Y-35607000D01*
X82835714Y-35607000D02*
X82788095Y-35559380D01*
X82788095Y-35559380D02*
X82740476Y-35464142D01*
X82740476Y-35464142D02*
X82740476Y-34654619D01*
X81835714Y-34987952D02*
X81835714Y-35654619D01*
X82073809Y-34607000D02*
X82311904Y-35321285D01*
X82311904Y-35321285D02*
X81692857Y-35321285D01*
G04 #@! TO.C,D7*
X95712619Y-80224405D02*
X94712619Y-80224405D01*
X94712619Y-80224405D02*
X94712619Y-80462500D01*
X94712619Y-80462500D02*
X94760238Y-80605357D01*
X94760238Y-80605357D02*
X94855476Y-80700595D01*
X94855476Y-80700595D02*
X94950714Y-80748214D01*
X94950714Y-80748214D02*
X95141190Y-80795833D01*
X95141190Y-80795833D02*
X95284047Y-80795833D01*
X95284047Y-80795833D02*
X95474523Y-80748214D01*
X95474523Y-80748214D02*
X95569761Y-80700595D01*
X95569761Y-80700595D02*
X95665000Y-80605357D01*
X95665000Y-80605357D02*
X95712619Y-80462500D01*
X95712619Y-80462500D02*
X95712619Y-80224405D01*
X94712619Y-81129167D02*
X94712619Y-81795833D01*
X94712619Y-81795833D02*
X95712619Y-81367262D01*
G04 #@! TO.C,C2*
X77681380Y-37425333D02*
X77729000Y-37377714D01*
X77729000Y-37377714D02*
X77776619Y-37234857D01*
X77776619Y-37234857D02*
X77776619Y-37139619D01*
X77776619Y-37139619D02*
X77729000Y-36996762D01*
X77729000Y-36996762D02*
X77633761Y-36901524D01*
X77633761Y-36901524D02*
X77538523Y-36853905D01*
X77538523Y-36853905D02*
X77348047Y-36806286D01*
X77348047Y-36806286D02*
X77205190Y-36806286D01*
X77205190Y-36806286D02*
X77014714Y-36853905D01*
X77014714Y-36853905D02*
X76919476Y-36901524D01*
X76919476Y-36901524D02*
X76824238Y-36996762D01*
X76824238Y-36996762D02*
X76776619Y-37139619D01*
X76776619Y-37139619D02*
X76776619Y-37234857D01*
X76776619Y-37234857D02*
X76824238Y-37377714D01*
X76824238Y-37377714D02*
X76871857Y-37425333D01*
X76871857Y-37806286D02*
X76824238Y-37853905D01*
X76824238Y-37853905D02*
X76776619Y-37949143D01*
X76776619Y-37949143D02*
X76776619Y-38187238D01*
X76776619Y-38187238D02*
X76824238Y-38282476D01*
X76824238Y-38282476D02*
X76871857Y-38330095D01*
X76871857Y-38330095D02*
X76967095Y-38377714D01*
X76967095Y-38377714D02*
X77062333Y-38377714D01*
X77062333Y-38377714D02*
X77205190Y-38330095D01*
X77205190Y-38330095D02*
X77776619Y-37758667D01*
X77776619Y-37758667D02*
X77776619Y-38377714D01*
G04 #@! TO.C,R7*
X94349866Y-47198619D02*
X94683199Y-46722428D01*
X94921294Y-47198619D02*
X94921294Y-46198619D01*
X94921294Y-46198619D02*
X94540342Y-46198619D01*
X94540342Y-46198619D02*
X94445104Y-46246238D01*
X94445104Y-46246238D02*
X94397485Y-46293857D01*
X94397485Y-46293857D02*
X94349866Y-46389095D01*
X94349866Y-46389095D02*
X94349866Y-46531952D01*
X94349866Y-46531952D02*
X94397485Y-46627190D01*
X94397485Y-46627190D02*
X94445104Y-46674809D01*
X94445104Y-46674809D02*
X94540342Y-46722428D01*
X94540342Y-46722428D02*
X94921294Y-46722428D01*
X94016532Y-46198619D02*
X93349866Y-46198619D01*
X93349866Y-46198619D02*
X93778437Y-47198619D01*
G04 #@! TO.C,R9*
X74503619Y-46670933D02*
X74027428Y-46337600D01*
X74503619Y-46099505D02*
X73503619Y-46099505D01*
X73503619Y-46099505D02*
X73503619Y-46480457D01*
X73503619Y-46480457D02*
X73551238Y-46575695D01*
X73551238Y-46575695D02*
X73598857Y-46623314D01*
X73598857Y-46623314D02*
X73694095Y-46670933D01*
X73694095Y-46670933D02*
X73836952Y-46670933D01*
X73836952Y-46670933D02*
X73932190Y-46623314D01*
X73932190Y-46623314D02*
X73979809Y-46575695D01*
X73979809Y-46575695D02*
X74027428Y-46480457D01*
X74027428Y-46480457D02*
X74027428Y-46099505D01*
X74503619Y-47147124D02*
X74503619Y-47337600D01*
X74503619Y-47337600D02*
X74456000Y-47432838D01*
X74456000Y-47432838D02*
X74408380Y-47480457D01*
X74408380Y-47480457D02*
X74265523Y-47575695D01*
X74265523Y-47575695D02*
X74075047Y-47623314D01*
X74075047Y-47623314D02*
X73694095Y-47623314D01*
X73694095Y-47623314D02*
X73598857Y-47575695D01*
X73598857Y-47575695D02*
X73551238Y-47528076D01*
X73551238Y-47528076D02*
X73503619Y-47432838D01*
X73503619Y-47432838D02*
X73503619Y-47242362D01*
X73503619Y-47242362D02*
X73551238Y-47147124D01*
X73551238Y-47147124D02*
X73598857Y-47099505D01*
X73598857Y-47099505D02*
X73694095Y-47051886D01*
X73694095Y-47051886D02*
X73932190Y-47051886D01*
X73932190Y-47051886D02*
X74027428Y-47099505D01*
X74027428Y-47099505D02*
X74075047Y-47147124D01*
X74075047Y-47147124D02*
X74122666Y-47242362D01*
X74122666Y-47242362D02*
X74122666Y-47432838D01*
X74122666Y-47432838D02*
X74075047Y-47528076D01*
X74075047Y-47528076D02*
X74027428Y-47575695D01*
X74027428Y-47575695D02*
X73932190Y-47623314D01*
G04 #@! TO.C,U3*
X86940219Y-55016495D02*
X87749742Y-55016495D01*
X87749742Y-55016495D02*
X87844980Y-55064114D01*
X87844980Y-55064114D02*
X87892600Y-55111733D01*
X87892600Y-55111733D02*
X87940219Y-55206971D01*
X87940219Y-55206971D02*
X87940219Y-55397447D01*
X87940219Y-55397447D02*
X87892600Y-55492685D01*
X87892600Y-55492685D02*
X87844980Y-55540304D01*
X87844980Y-55540304D02*
X87749742Y-55587923D01*
X87749742Y-55587923D02*
X86940219Y-55587923D01*
X86940219Y-55968876D02*
X86940219Y-56587923D01*
X86940219Y-56587923D02*
X87321171Y-56254590D01*
X87321171Y-56254590D02*
X87321171Y-56397447D01*
X87321171Y-56397447D02*
X87368790Y-56492685D01*
X87368790Y-56492685D02*
X87416409Y-56540304D01*
X87416409Y-56540304D02*
X87511647Y-56587923D01*
X87511647Y-56587923D02*
X87749742Y-56587923D01*
X87749742Y-56587923D02*
X87844980Y-56540304D01*
X87844980Y-56540304D02*
X87892600Y-56492685D01*
X87892600Y-56492685D02*
X87940219Y-56397447D01*
X87940219Y-56397447D02*
X87940219Y-56111733D01*
X87940219Y-56111733D02*
X87892600Y-56016495D01*
X87892600Y-56016495D02*
X87844980Y-55968876D01*
G04 #@! TO.C,C27*
X57724107Y-75616130D02*
X57771726Y-75663750D01*
X57771726Y-75663750D02*
X57914583Y-75711369D01*
X57914583Y-75711369D02*
X58009821Y-75711369D01*
X58009821Y-75711369D02*
X58152678Y-75663750D01*
X58152678Y-75663750D02*
X58247916Y-75568511D01*
X58247916Y-75568511D02*
X58295535Y-75473273D01*
X58295535Y-75473273D02*
X58343154Y-75282797D01*
X58343154Y-75282797D02*
X58343154Y-75139940D01*
X58343154Y-75139940D02*
X58295535Y-74949464D01*
X58295535Y-74949464D02*
X58247916Y-74854226D01*
X58247916Y-74854226D02*
X58152678Y-74758988D01*
X58152678Y-74758988D02*
X58009821Y-74711369D01*
X58009821Y-74711369D02*
X57914583Y-74711369D01*
X57914583Y-74711369D02*
X57771726Y-74758988D01*
X57771726Y-74758988D02*
X57724107Y-74806607D01*
X57343154Y-74806607D02*
X57295535Y-74758988D01*
X57295535Y-74758988D02*
X57200297Y-74711369D01*
X57200297Y-74711369D02*
X56962202Y-74711369D01*
X56962202Y-74711369D02*
X56866964Y-74758988D01*
X56866964Y-74758988D02*
X56819345Y-74806607D01*
X56819345Y-74806607D02*
X56771726Y-74901845D01*
X56771726Y-74901845D02*
X56771726Y-74997083D01*
X56771726Y-74997083D02*
X56819345Y-75139940D01*
X56819345Y-75139940D02*
X57390773Y-75711369D01*
X57390773Y-75711369D02*
X56771726Y-75711369D01*
X56438392Y-74711369D02*
X55771726Y-74711369D01*
X55771726Y-74711369D02*
X56200297Y-75711369D01*
G04 #@! TO.C,R11*
X99464732Y-44755119D02*
X99798065Y-44278928D01*
X100036160Y-44755119D02*
X100036160Y-43755119D01*
X100036160Y-43755119D02*
X99655208Y-43755119D01*
X99655208Y-43755119D02*
X99559970Y-43802738D01*
X99559970Y-43802738D02*
X99512351Y-43850357D01*
X99512351Y-43850357D02*
X99464732Y-43945595D01*
X99464732Y-43945595D02*
X99464732Y-44088452D01*
X99464732Y-44088452D02*
X99512351Y-44183690D01*
X99512351Y-44183690D02*
X99559970Y-44231309D01*
X99559970Y-44231309D02*
X99655208Y-44278928D01*
X99655208Y-44278928D02*
X100036160Y-44278928D01*
X98512351Y-44755119D02*
X99083779Y-44755119D01*
X98798065Y-44755119D02*
X98798065Y-43755119D01*
X98798065Y-43755119D02*
X98893303Y-43897976D01*
X98893303Y-43897976D02*
X98988541Y-43993214D01*
X98988541Y-43993214D02*
X99083779Y-44040833D01*
X97559970Y-44755119D02*
X98131398Y-44755119D01*
X97845684Y-44755119D02*
X97845684Y-43755119D01*
X97845684Y-43755119D02*
X97940922Y-43897976D01*
X97940922Y-43897976D02*
X98036160Y-43993214D01*
X98036160Y-43993214D02*
X98131398Y-44040833D01*
G04 #@! TO.C,C17*
X108592857Y-43229880D02*
X108640476Y-43277500D01*
X108640476Y-43277500D02*
X108783333Y-43325119D01*
X108783333Y-43325119D02*
X108878571Y-43325119D01*
X108878571Y-43325119D02*
X109021428Y-43277500D01*
X109021428Y-43277500D02*
X109116666Y-43182261D01*
X109116666Y-43182261D02*
X109164285Y-43087023D01*
X109164285Y-43087023D02*
X109211904Y-42896547D01*
X109211904Y-42896547D02*
X109211904Y-42753690D01*
X109211904Y-42753690D02*
X109164285Y-42563214D01*
X109164285Y-42563214D02*
X109116666Y-42467976D01*
X109116666Y-42467976D02*
X109021428Y-42372738D01*
X109021428Y-42372738D02*
X108878571Y-42325119D01*
X108878571Y-42325119D02*
X108783333Y-42325119D01*
X108783333Y-42325119D02*
X108640476Y-42372738D01*
X108640476Y-42372738D02*
X108592857Y-42420357D01*
X107640476Y-43325119D02*
X108211904Y-43325119D01*
X107926190Y-43325119D02*
X107926190Y-42325119D01*
X107926190Y-42325119D02*
X108021428Y-42467976D01*
X108021428Y-42467976D02*
X108116666Y-42563214D01*
X108116666Y-42563214D02*
X108211904Y-42610833D01*
X107307142Y-42325119D02*
X106640476Y-42325119D01*
X106640476Y-42325119D02*
X107069047Y-43325119D01*
G04 #@! TO.C,C26*
X77997380Y-68482142D02*
X78045000Y-68434523D01*
X78045000Y-68434523D02*
X78092619Y-68291666D01*
X78092619Y-68291666D02*
X78092619Y-68196428D01*
X78092619Y-68196428D02*
X78045000Y-68053571D01*
X78045000Y-68053571D02*
X77949761Y-67958333D01*
X77949761Y-67958333D02*
X77854523Y-67910714D01*
X77854523Y-67910714D02*
X77664047Y-67863095D01*
X77664047Y-67863095D02*
X77521190Y-67863095D01*
X77521190Y-67863095D02*
X77330714Y-67910714D01*
X77330714Y-67910714D02*
X77235476Y-67958333D01*
X77235476Y-67958333D02*
X77140238Y-68053571D01*
X77140238Y-68053571D02*
X77092619Y-68196428D01*
X77092619Y-68196428D02*
X77092619Y-68291666D01*
X77092619Y-68291666D02*
X77140238Y-68434523D01*
X77140238Y-68434523D02*
X77187857Y-68482142D01*
X77187857Y-68863095D02*
X77140238Y-68910714D01*
X77140238Y-68910714D02*
X77092619Y-69005952D01*
X77092619Y-69005952D02*
X77092619Y-69244047D01*
X77092619Y-69244047D02*
X77140238Y-69339285D01*
X77140238Y-69339285D02*
X77187857Y-69386904D01*
X77187857Y-69386904D02*
X77283095Y-69434523D01*
X77283095Y-69434523D02*
X77378333Y-69434523D01*
X77378333Y-69434523D02*
X77521190Y-69386904D01*
X77521190Y-69386904D02*
X78092619Y-68815476D01*
X78092619Y-68815476D02*
X78092619Y-69434523D01*
X77092619Y-70291666D02*
X77092619Y-70101190D01*
X77092619Y-70101190D02*
X77140238Y-70005952D01*
X77140238Y-70005952D02*
X77187857Y-69958333D01*
X77187857Y-69958333D02*
X77330714Y-69863095D01*
X77330714Y-69863095D02*
X77521190Y-69815476D01*
X77521190Y-69815476D02*
X77902142Y-69815476D01*
X77902142Y-69815476D02*
X77997380Y-69863095D01*
X77997380Y-69863095D02*
X78045000Y-69910714D01*
X78045000Y-69910714D02*
X78092619Y-70005952D01*
X78092619Y-70005952D02*
X78092619Y-70196428D01*
X78092619Y-70196428D02*
X78045000Y-70291666D01*
X78045000Y-70291666D02*
X77997380Y-70339285D01*
X77997380Y-70339285D02*
X77902142Y-70386904D01*
X77902142Y-70386904D02*
X77664047Y-70386904D01*
X77664047Y-70386904D02*
X77568809Y-70339285D01*
X77568809Y-70339285D02*
X77521190Y-70291666D01*
X77521190Y-70291666D02*
X77473571Y-70196428D01*
X77473571Y-70196428D02*
X77473571Y-70005952D01*
X77473571Y-70005952D02*
X77521190Y-69910714D01*
X77521190Y-69910714D02*
X77568809Y-69863095D01*
X77568809Y-69863095D02*
X77664047Y-69815476D01*
G04 #@! TO.C,D13*
X63486619Y-40187714D02*
X62486619Y-40187714D01*
X62486619Y-40187714D02*
X62486619Y-40425809D01*
X62486619Y-40425809D02*
X62534238Y-40568666D01*
X62534238Y-40568666D02*
X62629476Y-40663904D01*
X62629476Y-40663904D02*
X62724714Y-40711523D01*
X62724714Y-40711523D02*
X62915190Y-40759142D01*
X62915190Y-40759142D02*
X63058047Y-40759142D01*
X63058047Y-40759142D02*
X63248523Y-40711523D01*
X63248523Y-40711523D02*
X63343761Y-40663904D01*
X63343761Y-40663904D02*
X63439000Y-40568666D01*
X63439000Y-40568666D02*
X63486619Y-40425809D01*
X63486619Y-40425809D02*
X63486619Y-40187714D01*
X63486619Y-41711523D02*
X63486619Y-41140095D01*
X63486619Y-41425809D02*
X62486619Y-41425809D01*
X62486619Y-41425809D02*
X62629476Y-41330571D01*
X62629476Y-41330571D02*
X62724714Y-41235333D01*
X62724714Y-41235333D02*
X62772333Y-41140095D01*
X62486619Y-42044857D02*
X62486619Y-42663904D01*
X62486619Y-42663904D02*
X62867571Y-42330571D01*
X62867571Y-42330571D02*
X62867571Y-42473428D01*
X62867571Y-42473428D02*
X62915190Y-42568666D01*
X62915190Y-42568666D02*
X62962809Y-42616285D01*
X62962809Y-42616285D02*
X63058047Y-42663904D01*
X63058047Y-42663904D02*
X63296142Y-42663904D01*
X63296142Y-42663904D02*
X63391380Y-42616285D01*
X63391380Y-42616285D02*
X63439000Y-42568666D01*
X63439000Y-42568666D02*
X63486619Y-42473428D01*
X63486619Y-42473428D02*
X63486619Y-42187714D01*
X63486619Y-42187714D02*
X63439000Y-42092476D01*
X63439000Y-42092476D02*
X63391380Y-42044857D01*
G04 #@! TO.C,C3*
X87517266Y-45960380D02*
X87564885Y-46008000D01*
X87564885Y-46008000D02*
X87707742Y-46055619D01*
X87707742Y-46055619D02*
X87802980Y-46055619D01*
X87802980Y-46055619D02*
X87945837Y-46008000D01*
X87945837Y-46008000D02*
X88041075Y-45912761D01*
X88041075Y-45912761D02*
X88088694Y-45817523D01*
X88088694Y-45817523D02*
X88136313Y-45627047D01*
X88136313Y-45627047D02*
X88136313Y-45484190D01*
X88136313Y-45484190D02*
X88088694Y-45293714D01*
X88088694Y-45293714D02*
X88041075Y-45198476D01*
X88041075Y-45198476D02*
X87945837Y-45103238D01*
X87945837Y-45103238D02*
X87802980Y-45055619D01*
X87802980Y-45055619D02*
X87707742Y-45055619D01*
X87707742Y-45055619D02*
X87564885Y-45103238D01*
X87564885Y-45103238D02*
X87517266Y-45150857D01*
X87183932Y-45055619D02*
X86564885Y-45055619D01*
X86564885Y-45055619D02*
X86898218Y-45436571D01*
X86898218Y-45436571D02*
X86755361Y-45436571D01*
X86755361Y-45436571D02*
X86660123Y-45484190D01*
X86660123Y-45484190D02*
X86612504Y-45531809D01*
X86612504Y-45531809D02*
X86564885Y-45627047D01*
X86564885Y-45627047D02*
X86564885Y-45865142D01*
X86564885Y-45865142D02*
X86612504Y-45960380D01*
X86612504Y-45960380D02*
X86660123Y-46008000D01*
X86660123Y-46008000D02*
X86755361Y-46055619D01*
X86755361Y-46055619D02*
X87041075Y-46055619D01*
X87041075Y-46055619D02*
X87136313Y-46008000D01*
X87136313Y-46008000D02*
X87183932Y-45960380D01*
G04 #@! TO.C,C21*
X117048630Y-58094642D02*
X117096250Y-58047023D01*
X117096250Y-58047023D02*
X117143869Y-57904166D01*
X117143869Y-57904166D02*
X117143869Y-57808928D01*
X117143869Y-57808928D02*
X117096250Y-57666071D01*
X117096250Y-57666071D02*
X117001011Y-57570833D01*
X117001011Y-57570833D02*
X116905773Y-57523214D01*
X116905773Y-57523214D02*
X116715297Y-57475595D01*
X116715297Y-57475595D02*
X116572440Y-57475595D01*
X116572440Y-57475595D02*
X116381964Y-57523214D01*
X116381964Y-57523214D02*
X116286726Y-57570833D01*
X116286726Y-57570833D02*
X116191488Y-57666071D01*
X116191488Y-57666071D02*
X116143869Y-57808928D01*
X116143869Y-57808928D02*
X116143869Y-57904166D01*
X116143869Y-57904166D02*
X116191488Y-58047023D01*
X116191488Y-58047023D02*
X116239107Y-58094642D01*
X116239107Y-58475595D02*
X116191488Y-58523214D01*
X116191488Y-58523214D02*
X116143869Y-58618452D01*
X116143869Y-58618452D02*
X116143869Y-58856547D01*
X116143869Y-58856547D02*
X116191488Y-58951785D01*
X116191488Y-58951785D02*
X116239107Y-58999404D01*
X116239107Y-58999404D02*
X116334345Y-59047023D01*
X116334345Y-59047023D02*
X116429583Y-59047023D01*
X116429583Y-59047023D02*
X116572440Y-58999404D01*
X116572440Y-58999404D02*
X117143869Y-58427976D01*
X117143869Y-58427976D02*
X117143869Y-59047023D01*
X117143869Y-59999404D02*
X117143869Y-59427976D01*
X117143869Y-59713690D02*
X116143869Y-59713690D01*
X116143869Y-59713690D02*
X116286726Y-59618452D01*
X116286726Y-59618452D02*
X116381964Y-59523214D01*
X116381964Y-59523214D02*
X116429583Y-59427976D01*
G04 #@! TO.C,R6*
X94349866Y-48976619D02*
X94683199Y-48500428D01*
X94921294Y-48976619D02*
X94921294Y-47976619D01*
X94921294Y-47976619D02*
X94540342Y-47976619D01*
X94540342Y-47976619D02*
X94445104Y-48024238D01*
X94445104Y-48024238D02*
X94397485Y-48071857D01*
X94397485Y-48071857D02*
X94349866Y-48167095D01*
X94349866Y-48167095D02*
X94349866Y-48309952D01*
X94349866Y-48309952D02*
X94397485Y-48405190D01*
X94397485Y-48405190D02*
X94445104Y-48452809D01*
X94445104Y-48452809D02*
X94540342Y-48500428D01*
X94540342Y-48500428D02*
X94921294Y-48500428D01*
X93492723Y-47976619D02*
X93683199Y-47976619D01*
X93683199Y-47976619D02*
X93778437Y-48024238D01*
X93778437Y-48024238D02*
X93826056Y-48071857D01*
X93826056Y-48071857D02*
X93921294Y-48214714D01*
X93921294Y-48214714D02*
X93968913Y-48405190D01*
X93968913Y-48405190D02*
X93968913Y-48786142D01*
X93968913Y-48786142D02*
X93921294Y-48881380D01*
X93921294Y-48881380D02*
X93873675Y-48929000D01*
X93873675Y-48929000D02*
X93778437Y-48976619D01*
X93778437Y-48976619D02*
X93587961Y-48976619D01*
X93587961Y-48976619D02*
X93492723Y-48929000D01*
X93492723Y-48929000D02*
X93445104Y-48881380D01*
X93445104Y-48881380D02*
X93397485Y-48786142D01*
X93397485Y-48786142D02*
X93397485Y-48548047D01*
X93397485Y-48548047D02*
X93445104Y-48452809D01*
X93445104Y-48452809D02*
X93492723Y-48405190D01*
X93492723Y-48405190D02*
X93587961Y-48357571D01*
X93587961Y-48357571D02*
X93778437Y-48357571D01*
X93778437Y-48357571D02*
X93873675Y-48405190D01*
X93873675Y-48405190D02*
X93921294Y-48452809D01*
X93921294Y-48452809D02*
X93968913Y-48548047D01*
G04 #@! TO.C,SW15*
X70516523Y-44738000D02*
X70373666Y-44785619D01*
X70373666Y-44785619D02*
X70135571Y-44785619D01*
X70135571Y-44785619D02*
X70040333Y-44738000D01*
X70040333Y-44738000D02*
X69992714Y-44690380D01*
X69992714Y-44690380D02*
X69945095Y-44595142D01*
X69945095Y-44595142D02*
X69945095Y-44499904D01*
X69945095Y-44499904D02*
X69992714Y-44404666D01*
X69992714Y-44404666D02*
X70040333Y-44357047D01*
X70040333Y-44357047D02*
X70135571Y-44309428D01*
X70135571Y-44309428D02*
X70326047Y-44261809D01*
X70326047Y-44261809D02*
X70421285Y-44214190D01*
X70421285Y-44214190D02*
X70468904Y-44166571D01*
X70468904Y-44166571D02*
X70516523Y-44071333D01*
X70516523Y-44071333D02*
X70516523Y-43976095D01*
X70516523Y-43976095D02*
X70468904Y-43880857D01*
X70468904Y-43880857D02*
X70421285Y-43833238D01*
X70421285Y-43833238D02*
X70326047Y-43785619D01*
X70326047Y-43785619D02*
X70087952Y-43785619D01*
X70087952Y-43785619D02*
X69945095Y-43833238D01*
X69611761Y-43785619D02*
X69373666Y-44785619D01*
X69373666Y-44785619D02*
X69183190Y-44071333D01*
X69183190Y-44071333D02*
X68992714Y-44785619D01*
X68992714Y-44785619D02*
X68754619Y-43785619D01*
X67849857Y-44785619D02*
X68421285Y-44785619D01*
X68135571Y-44785619D02*
X68135571Y-43785619D01*
X68135571Y-43785619D02*
X68230809Y-43928476D01*
X68230809Y-43928476D02*
X68326047Y-44023714D01*
X68326047Y-44023714D02*
X68421285Y-44071333D01*
X66945095Y-43785619D02*
X67421285Y-43785619D01*
X67421285Y-43785619D02*
X67468904Y-44261809D01*
X67468904Y-44261809D02*
X67421285Y-44214190D01*
X67421285Y-44214190D02*
X67326047Y-44166571D01*
X67326047Y-44166571D02*
X67087952Y-44166571D01*
X67087952Y-44166571D02*
X66992714Y-44214190D01*
X66992714Y-44214190D02*
X66945095Y-44261809D01*
X66945095Y-44261809D02*
X66897476Y-44357047D01*
X66897476Y-44357047D02*
X66897476Y-44595142D01*
X66897476Y-44595142D02*
X66945095Y-44690380D01*
X66945095Y-44690380D02*
X66992714Y-44738000D01*
X66992714Y-44738000D02*
X67087952Y-44785619D01*
X67087952Y-44785619D02*
X67326047Y-44785619D01*
X67326047Y-44785619D02*
X67421285Y-44738000D01*
X67421285Y-44738000D02*
X67468904Y-44690380D01*
G04 #@! TO.C,R5*
X88245019Y-60259933D02*
X87768828Y-59926600D01*
X88245019Y-59688505D02*
X87245019Y-59688505D01*
X87245019Y-59688505D02*
X87245019Y-60069457D01*
X87245019Y-60069457D02*
X87292638Y-60164695D01*
X87292638Y-60164695D02*
X87340257Y-60212314D01*
X87340257Y-60212314D02*
X87435495Y-60259933D01*
X87435495Y-60259933D02*
X87578352Y-60259933D01*
X87578352Y-60259933D02*
X87673590Y-60212314D01*
X87673590Y-60212314D02*
X87721209Y-60164695D01*
X87721209Y-60164695D02*
X87768828Y-60069457D01*
X87768828Y-60069457D02*
X87768828Y-59688505D01*
X87245019Y-61164695D02*
X87245019Y-60688505D01*
X87245019Y-60688505D02*
X87721209Y-60640886D01*
X87721209Y-60640886D02*
X87673590Y-60688505D01*
X87673590Y-60688505D02*
X87625971Y-60783743D01*
X87625971Y-60783743D02*
X87625971Y-61021838D01*
X87625971Y-61021838D02*
X87673590Y-61117076D01*
X87673590Y-61117076D02*
X87721209Y-61164695D01*
X87721209Y-61164695D02*
X87816447Y-61212314D01*
X87816447Y-61212314D02*
X88054542Y-61212314D01*
X88054542Y-61212314D02*
X88149780Y-61164695D01*
X88149780Y-61164695D02*
X88197400Y-61117076D01*
X88197400Y-61117076D02*
X88245019Y-61021838D01*
X88245019Y-61021838D02*
X88245019Y-60783743D01*
X88245019Y-60783743D02*
X88197400Y-60688505D01*
X88197400Y-60688505D02*
X88149780Y-60640886D01*
G04 #@! TO.C,C22*
X97998630Y-58094642D02*
X98046250Y-58047023D01*
X98046250Y-58047023D02*
X98093869Y-57904166D01*
X98093869Y-57904166D02*
X98093869Y-57808928D01*
X98093869Y-57808928D02*
X98046250Y-57666071D01*
X98046250Y-57666071D02*
X97951011Y-57570833D01*
X97951011Y-57570833D02*
X97855773Y-57523214D01*
X97855773Y-57523214D02*
X97665297Y-57475595D01*
X97665297Y-57475595D02*
X97522440Y-57475595D01*
X97522440Y-57475595D02*
X97331964Y-57523214D01*
X97331964Y-57523214D02*
X97236726Y-57570833D01*
X97236726Y-57570833D02*
X97141488Y-57666071D01*
X97141488Y-57666071D02*
X97093869Y-57808928D01*
X97093869Y-57808928D02*
X97093869Y-57904166D01*
X97093869Y-57904166D02*
X97141488Y-58047023D01*
X97141488Y-58047023D02*
X97189107Y-58094642D01*
X97189107Y-58475595D02*
X97141488Y-58523214D01*
X97141488Y-58523214D02*
X97093869Y-58618452D01*
X97093869Y-58618452D02*
X97093869Y-58856547D01*
X97093869Y-58856547D02*
X97141488Y-58951785D01*
X97141488Y-58951785D02*
X97189107Y-58999404D01*
X97189107Y-58999404D02*
X97284345Y-59047023D01*
X97284345Y-59047023D02*
X97379583Y-59047023D01*
X97379583Y-59047023D02*
X97522440Y-58999404D01*
X97522440Y-58999404D02*
X98093869Y-58427976D01*
X98093869Y-58427976D02*
X98093869Y-59047023D01*
X97189107Y-59427976D02*
X97141488Y-59475595D01*
X97141488Y-59475595D02*
X97093869Y-59570833D01*
X97093869Y-59570833D02*
X97093869Y-59808928D01*
X97093869Y-59808928D02*
X97141488Y-59904166D01*
X97141488Y-59904166D02*
X97189107Y-59951785D01*
X97189107Y-59951785D02*
X97284345Y-59999404D01*
X97284345Y-59999404D02*
X97379583Y-59999404D01*
X97379583Y-59999404D02*
X97522440Y-59951785D01*
X97522440Y-59951785D02*
X98093869Y-59380357D01*
X98093869Y-59380357D02*
X98093869Y-59999404D01*
G04 #@! TO.C,C16*
X70746857Y-57161780D02*
X70794476Y-57209400D01*
X70794476Y-57209400D02*
X70937333Y-57257019D01*
X70937333Y-57257019D02*
X71032571Y-57257019D01*
X71032571Y-57257019D02*
X71175428Y-57209400D01*
X71175428Y-57209400D02*
X71270666Y-57114161D01*
X71270666Y-57114161D02*
X71318285Y-57018923D01*
X71318285Y-57018923D02*
X71365904Y-56828447D01*
X71365904Y-56828447D02*
X71365904Y-56685590D01*
X71365904Y-56685590D02*
X71318285Y-56495114D01*
X71318285Y-56495114D02*
X71270666Y-56399876D01*
X71270666Y-56399876D02*
X71175428Y-56304638D01*
X71175428Y-56304638D02*
X71032571Y-56257019D01*
X71032571Y-56257019D02*
X70937333Y-56257019D01*
X70937333Y-56257019D02*
X70794476Y-56304638D01*
X70794476Y-56304638D02*
X70746857Y-56352257D01*
X69794476Y-57257019D02*
X70365904Y-57257019D01*
X70080190Y-57257019D02*
X70080190Y-56257019D01*
X70080190Y-56257019D02*
X70175428Y-56399876D01*
X70175428Y-56399876D02*
X70270666Y-56495114D01*
X70270666Y-56495114D02*
X70365904Y-56542733D01*
X68937333Y-56257019D02*
X69127809Y-56257019D01*
X69127809Y-56257019D02*
X69223047Y-56304638D01*
X69223047Y-56304638D02*
X69270666Y-56352257D01*
X69270666Y-56352257D02*
X69365904Y-56495114D01*
X69365904Y-56495114D02*
X69413523Y-56685590D01*
X69413523Y-56685590D02*
X69413523Y-57066542D01*
X69413523Y-57066542D02*
X69365904Y-57161780D01*
X69365904Y-57161780D02*
X69318285Y-57209400D01*
X69318285Y-57209400D02*
X69223047Y-57257019D01*
X69223047Y-57257019D02*
X69032571Y-57257019D01*
X69032571Y-57257019D02*
X68937333Y-57209400D01*
X68937333Y-57209400D02*
X68889714Y-57161780D01*
X68889714Y-57161780D02*
X68842095Y-57066542D01*
X68842095Y-57066542D02*
X68842095Y-56828447D01*
X68842095Y-56828447D02*
X68889714Y-56733209D01*
X68889714Y-56733209D02*
X68937333Y-56685590D01*
X68937333Y-56685590D02*
X69032571Y-56637971D01*
X69032571Y-56637971D02*
X69223047Y-56637971D01*
X69223047Y-56637971D02*
X69318285Y-56685590D01*
X69318285Y-56685590D02*
X69365904Y-56733209D01*
X69365904Y-56733209D02*
X69413523Y-56828447D01*
G04 #@! TO.C,C5*
X83935866Y-48500380D02*
X83983485Y-48548000D01*
X83983485Y-48548000D02*
X84126342Y-48595619D01*
X84126342Y-48595619D02*
X84221580Y-48595619D01*
X84221580Y-48595619D02*
X84364437Y-48548000D01*
X84364437Y-48548000D02*
X84459675Y-48452761D01*
X84459675Y-48452761D02*
X84507294Y-48357523D01*
X84507294Y-48357523D02*
X84554913Y-48167047D01*
X84554913Y-48167047D02*
X84554913Y-48024190D01*
X84554913Y-48024190D02*
X84507294Y-47833714D01*
X84507294Y-47833714D02*
X84459675Y-47738476D01*
X84459675Y-47738476D02*
X84364437Y-47643238D01*
X84364437Y-47643238D02*
X84221580Y-47595619D01*
X84221580Y-47595619D02*
X84126342Y-47595619D01*
X84126342Y-47595619D02*
X83983485Y-47643238D01*
X83983485Y-47643238D02*
X83935866Y-47690857D01*
X83031104Y-47595619D02*
X83507294Y-47595619D01*
X83507294Y-47595619D02*
X83554913Y-48071809D01*
X83554913Y-48071809D02*
X83507294Y-48024190D01*
X83507294Y-48024190D02*
X83412056Y-47976571D01*
X83412056Y-47976571D02*
X83173961Y-47976571D01*
X83173961Y-47976571D02*
X83078723Y-48024190D01*
X83078723Y-48024190D02*
X83031104Y-48071809D01*
X83031104Y-48071809D02*
X82983485Y-48167047D01*
X82983485Y-48167047D02*
X82983485Y-48405142D01*
X82983485Y-48405142D02*
X83031104Y-48500380D01*
X83031104Y-48500380D02*
X83078723Y-48548000D01*
X83078723Y-48548000D02*
X83173961Y-48595619D01*
X83173961Y-48595619D02*
X83412056Y-48595619D01*
X83412056Y-48595619D02*
X83507294Y-48548000D01*
X83507294Y-48548000D02*
X83554913Y-48500380D01*
G04 #@! TO.C,D6*
X133812619Y-61174405D02*
X132812619Y-61174405D01*
X132812619Y-61174405D02*
X132812619Y-61412500D01*
X132812619Y-61412500D02*
X132860238Y-61555357D01*
X132860238Y-61555357D02*
X132955476Y-61650595D01*
X132955476Y-61650595D02*
X133050714Y-61698214D01*
X133050714Y-61698214D02*
X133241190Y-61745833D01*
X133241190Y-61745833D02*
X133384047Y-61745833D01*
X133384047Y-61745833D02*
X133574523Y-61698214D01*
X133574523Y-61698214D02*
X133669761Y-61650595D01*
X133669761Y-61650595D02*
X133765000Y-61555357D01*
X133765000Y-61555357D02*
X133812619Y-61412500D01*
X133812619Y-61412500D02*
X133812619Y-61174405D01*
X132812619Y-62602976D02*
X132812619Y-62412500D01*
X132812619Y-62412500D02*
X132860238Y-62317262D01*
X132860238Y-62317262D02*
X132907857Y-62269643D01*
X132907857Y-62269643D02*
X133050714Y-62174405D01*
X133050714Y-62174405D02*
X133241190Y-62126786D01*
X133241190Y-62126786D02*
X133622142Y-62126786D01*
X133622142Y-62126786D02*
X133717380Y-62174405D01*
X133717380Y-62174405D02*
X133765000Y-62222024D01*
X133765000Y-62222024D02*
X133812619Y-62317262D01*
X133812619Y-62317262D02*
X133812619Y-62507738D01*
X133812619Y-62507738D02*
X133765000Y-62602976D01*
X133765000Y-62602976D02*
X133717380Y-62650595D01*
X133717380Y-62650595D02*
X133622142Y-62698214D01*
X133622142Y-62698214D02*
X133384047Y-62698214D01*
X133384047Y-62698214D02*
X133288809Y-62650595D01*
X133288809Y-62650595D02*
X133241190Y-62602976D01*
X133241190Y-62602976D02*
X133193571Y-62507738D01*
X133193571Y-62507738D02*
X133193571Y-62317262D01*
X133193571Y-62317262D02*
X133241190Y-62222024D01*
X133241190Y-62222024D02*
X133288809Y-62174405D01*
X133288809Y-62174405D02*
X133384047Y-62126786D01*
G04 #@! TO.C,C4*
X89269866Y-50989580D02*
X89317485Y-51037200D01*
X89317485Y-51037200D02*
X89460342Y-51084819D01*
X89460342Y-51084819D02*
X89555580Y-51084819D01*
X89555580Y-51084819D02*
X89698437Y-51037200D01*
X89698437Y-51037200D02*
X89793675Y-50941961D01*
X89793675Y-50941961D02*
X89841294Y-50846723D01*
X89841294Y-50846723D02*
X89888913Y-50656247D01*
X89888913Y-50656247D02*
X89888913Y-50513390D01*
X89888913Y-50513390D02*
X89841294Y-50322914D01*
X89841294Y-50322914D02*
X89793675Y-50227676D01*
X89793675Y-50227676D02*
X89698437Y-50132438D01*
X89698437Y-50132438D02*
X89555580Y-50084819D01*
X89555580Y-50084819D02*
X89460342Y-50084819D01*
X89460342Y-50084819D02*
X89317485Y-50132438D01*
X89317485Y-50132438D02*
X89269866Y-50180057D01*
X88412723Y-50418152D02*
X88412723Y-51084819D01*
X88650818Y-50037200D02*
X88888913Y-50751485D01*
X88888913Y-50751485D02*
X88269866Y-50751485D01*
G04 #@! TO.C,C7*
X76186380Y-46645533D02*
X76234000Y-46597914D01*
X76234000Y-46597914D02*
X76281619Y-46455057D01*
X76281619Y-46455057D02*
X76281619Y-46359819D01*
X76281619Y-46359819D02*
X76234000Y-46216962D01*
X76234000Y-46216962D02*
X76138761Y-46121724D01*
X76138761Y-46121724D02*
X76043523Y-46074105D01*
X76043523Y-46074105D02*
X75853047Y-46026486D01*
X75853047Y-46026486D02*
X75710190Y-46026486D01*
X75710190Y-46026486D02*
X75519714Y-46074105D01*
X75519714Y-46074105D02*
X75424476Y-46121724D01*
X75424476Y-46121724D02*
X75329238Y-46216962D01*
X75329238Y-46216962D02*
X75281619Y-46359819D01*
X75281619Y-46359819D02*
X75281619Y-46455057D01*
X75281619Y-46455057D02*
X75329238Y-46597914D01*
X75329238Y-46597914D02*
X75376857Y-46645533D01*
X75281619Y-46978867D02*
X75281619Y-47645533D01*
X75281619Y-47645533D02*
X76281619Y-47216962D01*
G04 #@! TO.C,C8*
X76874666Y-59803380D02*
X76922285Y-59851000D01*
X76922285Y-59851000D02*
X77065142Y-59898619D01*
X77065142Y-59898619D02*
X77160380Y-59898619D01*
X77160380Y-59898619D02*
X77303237Y-59851000D01*
X77303237Y-59851000D02*
X77398475Y-59755761D01*
X77398475Y-59755761D02*
X77446094Y-59660523D01*
X77446094Y-59660523D02*
X77493713Y-59470047D01*
X77493713Y-59470047D02*
X77493713Y-59327190D01*
X77493713Y-59327190D02*
X77446094Y-59136714D01*
X77446094Y-59136714D02*
X77398475Y-59041476D01*
X77398475Y-59041476D02*
X77303237Y-58946238D01*
X77303237Y-58946238D02*
X77160380Y-58898619D01*
X77160380Y-58898619D02*
X77065142Y-58898619D01*
X77065142Y-58898619D02*
X76922285Y-58946238D01*
X76922285Y-58946238D02*
X76874666Y-58993857D01*
X76303237Y-59327190D02*
X76398475Y-59279571D01*
X76398475Y-59279571D02*
X76446094Y-59231952D01*
X76446094Y-59231952D02*
X76493713Y-59136714D01*
X76493713Y-59136714D02*
X76493713Y-59089095D01*
X76493713Y-59089095D02*
X76446094Y-58993857D01*
X76446094Y-58993857D02*
X76398475Y-58946238D01*
X76398475Y-58946238D02*
X76303237Y-58898619D01*
X76303237Y-58898619D02*
X76112761Y-58898619D01*
X76112761Y-58898619D02*
X76017523Y-58946238D01*
X76017523Y-58946238D02*
X75969904Y-58993857D01*
X75969904Y-58993857D02*
X75922285Y-59089095D01*
X75922285Y-59089095D02*
X75922285Y-59136714D01*
X75922285Y-59136714D02*
X75969904Y-59231952D01*
X75969904Y-59231952D02*
X76017523Y-59279571D01*
X76017523Y-59279571D02*
X76112761Y-59327190D01*
X76112761Y-59327190D02*
X76303237Y-59327190D01*
X76303237Y-59327190D02*
X76398475Y-59374809D01*
X76398475Y-59374809D02*
X76446094Y-59422428D01*
X76446094Y-59422428D02*
X76493713Y-59517666D01*
X76493713Y-59517666D02*
X76493713Y-59708142D01*
X76493713Y-59708142D02*
X76446094Y-59803380D01*
X76446094Y-59803380D02*
X76398475Y-59851000D01*
X76398475Y-59851000D02*
X76303237Y-59898619D01*
X76303237Y-59898619D02*
X76112761Y-59898619D01*
X76112761Y-59898619D02*
X76017523Y-59851000D01*
X76017523Y-59851000D02*
X75969904Y-59803380D01*
X75969904Y-59803380D02*
X75922285Y-59708142D01*
X75922285Y-59708142D02*
X75922285Y-59517666D01*
X75922285Y-59517666D02*
X75969904Y-59422428D01*
X75969904Y-59422428D02*
X76017523Y-59374809D01*
X76017523Y-59374809D02*
X76112761Y-59327190D01*
G04 #@! TO.C,C28*
X43387380Y-61994642D02*
X43435000Y-61947023D01*
X43435000Y-61947023D02*
X43482619Y-61804166D01*
X43482619Y-61804166D02*
X43482619Y-61708928D01*
X43482619Y-61708928D02*
X43435000Y-61566071D01*
X43435000Y-61566071D02*
X43339761Y-61470833D01*
X43339761Y-61470833D02*
X43244523Y-61423214D01*
X43244523Y-61423214D02*
X43054047Y-61375595D01*
X43054047Y-61375595D02*
X42911190Y-61375595D01*
X42911190Y-61375595D02*
X42720714Y-61423214D01*
X42720714Y-61423214D02*
X42625476Y-61470833D01*
X42625476Y-61470833D02*
X42530238Y-61566071D01*
X42530238Y-61566071D02*
X42482619Y-61708928D01*
X42482619Y-61708928D02*
X42482619Y-61804166D01*
X42482619Y-61804166D02*
X42530238Y-61947023D01*
X42530238Y-61947023D02*
X42577857Y-61994642D01*
X42577857Y-62375595D02*
X42530238Y-62423214D01*
X42530238Y-62423214D02*
X42482619Y-62518452D01*
X42482619Y-62518452D02*
X42482619Y-62756547D01*
X42482619Y-62756547D02*
X42530238Y-62851785D01*
X42530238Y-62851785D02*
X42577857Y-62899404D01*
X42577857Y-62899404D02*
X42673095Y-62947023D01*
X42673095Y-62947023D02*
X42768333Y-62947023D01*
X42768333Y-62947023D02*
X42911190Y-62899404D01*
X42911190Y-62899404D02*
X43482619Y-62327976D01*
X43482619Y-62327976D02*
X43482619Y-62947023D01*
X42911190Y-63518452D02*
X42863571Y-63423214D01*
X42863571Y-63423214D02*
X42815952Y-63375595D01*
X42815952Y-63375595D02*
X42720714Y-63327976D01*
X42720714Y-63327976D02*
X42673095Y-63327976D01*
X42673095Y-63327976D02*
X42577857Y-63375595D01*
X42577857Y-63375595D02*
X42530238Y-63423214D01*
X42530238Y-63423214D02*
X42482619Y-63518452D01*
X42482619Y-63518452D02*
X42482619Y-63708928D01*
X42482619Y-63708928D02*
X42530238Y-63804166D01*
X42530238Y-63804166D02*
X42577857Y-63851785D01*
X42577857Y-63851785D02*
X42673095Y-63899404D01*
X42673095Y-63899404D02*
X42720714Y-63899404D01*
X42720714Y-63899404D02*
X42815952Y-63851785D01*
X42815952Y-63851785D02*
X42863571Y-63804166D01*
X42863571Y-63804166D02*
X42911190Y-63708928D01*
X42911190Y-63708928D02*
X42911190Y-63518452D01*
X42911190Y-63518452D02*
X42958809Y-63423214D01*
X42958809Y-63423214D02*
X43006428Y-63375595D01*
X43006428Y-63375595D02*
X43101666Y-63327976D01*
X43101666Y-63327976D02*
X43292142Y-63327976D01*
X43292142Y-63327976D02*
X43387380Y-63375595D01*
X43387380Y-63375595D02*
X43435000Y-63423214D01*
X43435000Y-63423214D02*
X43482619Y-63518452D01*
X43482619Y-63518452D02*
X43482619Y-63708928D01*
X43482619Y-63708928D02*
X43435000Y-63804166D01*
X43435000Y-63804166D02*
X43387380Y-63851785D01*
X43387380Y-63851785D02*
X43292142Y-63899404D01*
X43292142Y-63899404D02*
X43101666Y-63899404D01*
X43101666Y-63899404D02*
X43006428Y-63851785D01*
X43006428Y-63851785D02*
X42958809Y-63804166D01*
X42958809Y-63804166D02*
X42911190Y-63708928D01*
G04 #@! TO.C,C14*
X81520380Y-40835342D02*
X81568000Y-40787723D01*
X81568000Y-40787723D02*
X81615619Y-40644866D01*
X81615619Y-40644866D02*
X81615619Y-40549628D01*
X81615619Y-40549628D02*
X81568000Y-40406771D01*
X81568000Y-40406771D02*
X81472761Y-40311533D01*
X81472761Y-40311533D02*
X81377523Y-40263914D01*
X81377523Y-40263914D02*
X81187047Y-40216295D01*
X81187047Y-40216295D02*
X81044190Y-40216295D01*
X81044190Y-40216295D02*
X80853714Y-40263914D01*
X80853714Y-40263914D02*
X80758476Y-40311533D01*
X80758476Y-40311533D02*
X80663238Y-40406771D01*
X80663238Y-40406771D02*
X80615619Y-40549628D01*
X80615619Y-40549628D02*
X80615619Y-40644866D01*
X80615619Y-40644866D02*
X80663238Y-40787723D01*
X80663238Y-40787723D02*
X80710857Y-40835342D01*
X81615619Y-41787723D02*
X81615619Y-41216295D01*
X81615619Y-41502009D02*
X80615619Y-41502009D01*
X80615619Y-41502009D02*
X80758476Y-41406771D01*
X80758476Y-41406771D02*
X80853714Y-41311533D01*
X80853714Y-41311533D02*
X80901333Y-41216295D01*
X80948952Y-42644866D02*
X81615619Y-42644866D01*
X80568000Y-42406771D02*
X81282285Y-42168676D01*
X81282285Y-42168676D02*
X81282285Y-42787723D01*
G04 #@! TO.C,U5*
X79485619Y-66827495D02*
X80295142Y-66827495D01*
X80295142Y-66827495D02*
X80390380Y-66875114D01*
X80390380Y-66875114D02*
X80438000Y-66922733D01*
X80438000Y-66922733D02*
X80485619Y-67017971D01*
X80485619Y-67017971D02*
X80485619Y-67208447D01*
X80485619Y-67208447D02*
X80438000Y-67303685D01*
X80438000Y-67303685D02*
X80390380Y-67351304D01*
X80390380Y-67351304D02*
X80295142Y-67398923D01*
X80295142Y-67398923D02*
X79485619Y-67398923D01*
X79485619Y-68351304D02*
X79485619Y-67875114D01*
X79485619Y-67875114D02*
X79961809Y-67827495D01*
X79961809Y-67827495D02*
X79914190Y-67875114D01*
X79914190Y-67875114D02*
X79866571Y-67970352D01*
X79866571Y-67970352D02*
X79866571Y-68208447D01*
X79866571Y-68208447D02*
X79914190Y-68303685D01*
X79914190Y-68303685D02*
X79961809Y-68351304D01*
X79961809Y-68351304D02*
X80057047Y-68398923D01*
X80057047Y-68398923D02*
X80295142Y-68398923D01*
X80295142Y-68398923D02*
X80390380Y-68351304D01*
X80390380Y-68351304D02*
X80438000Y-68303685D01*
X80438000Y-68303685D02*
X80485619Y-68208447D01*
X80485619Y-68208447D02*
X80485619Y-67970352D01*
X80485619Y-67970352D02*
X80438000Y-67875114D01*
X80438000Y-67875114D02*
X80390380Y-67827495D01*
G04 #@! TO.C,C18*
X127642857Y-43229880D02*
X127690476Y-43277500D01*
X127690476Y-43277500D02*
X127833333Y-43325119D01*
X127833333Y-43325119D02*
X127928571Y-43325119D01*
X127928571Y-43325119D02*
X128071428Y-43277500D01*
X128071428Y-43277500D02*
X128166666Y-43182261D01*
X128166666Y-43182261D02*
X128214285Y-43087023D01*
X128214285Y-43087023D02*
X128261904Y-42896547D01*
X128261904Y-42896547D02*
X128261904Y-42753690D01*
X128261904Y-42753690D02*
X128214285Y-42563214D01*
X128214285Y-42563214D02*
X128166666Y-42467976D01*
X128166666Y-42467976D02*
X128071428Y-42372738D01*
X128071428Y-42372738D02*
X127928571Y-42325119D01*
X127928571Y-42325119D02*
X127833333Y-42325119D01*
X127833333Y-42325119D02*
X127690476Y-42372738D01*
X127690476Y-42372738D02*
X127642857Y-42420357D01*
X126690476Y-43325119D02*
X127261904Y-43325119D01*
X126976190Y-43325119D02*
X126976190Y-42325119D01*
X126976190Y-42325119D02*
X127071428Y-42467976D01*
X127071428Y-42467976D02*
X127166666Y-42563214D01*
X127166666Y-42563214D02*
X127261904Y-42610833D01*
X126119047Y-42753690D02*
X126214285Y-42706071D01*
X126214285Y-42706071D02*
X126261904Y-42658452D01*
X126261904Y-42658452D02*
X126309523Y-42563214D01*
X126309523Y-42563214D02*
X126309523Y-42515595D01*
X126309523Y-42515595D02*
X126261904Y-42420357D01*
X126261904Y-42420357D02*
X126214285Y-42372738D01*
X126214285Y-42372738D02*
X126119047Y-42325119D01*
X126119047Y-42325119D02*
X125928571Y-42325119D01*
X125928571Y-42325119D02*
X125833333Y-42372738D01*
X125833333Y-42372738D02*
X125785714Y-42420357D01*
X125785714Y-42420357D02*
X125738095Y-42515595D01*
X125738095Y-42515595D02*
X125738095Y-42563214D01*
X125738095Y-42563214D02*
X125785714Y-42658452D01*
X125785714Y-42658452D02*
X125833333Y-42706071D01*
X125833333Y-42706071D02*
X125928571Y-42753690D01*
X125928571Y-42753690D02*
X126119047Y-42753690D01*
X126119047Y-42753690D02*
X126214285Y-42801309D01*
X126214285Y-42801309D02*
X126261904Y-42848928D01*
X126261904Y-42848928D02*
X126309523Y-42944166D01*
X126309523Y-42944166D02*
X126309523Y-43134642D01*
X126309523Y-43134642D02*
X126261904Y-43229880D01*
X126261904Y-43229880D02*
X126214285Y-43277500D01*
X126214285Y-43277500D02*
X126119047Y-43325119D01*
X126119047Y-43325119D02*
X125928571Y-43325119D01*
X125928571Y-43325119D02*
X125833333Y-43277500D01*
X125833333Y-43277500D02*
X125785714Y-43229880D01*
X125785714Y-43229880D02*
X125738095Y-43134642D01*
X125738095Y-43134642D02*
X125738095Y-42944166D01*
X125738095Y-42944166D02*
X125785714Y-42848928D01*
X125785714Y-42848928D02*
X125833333Y-42801309D01*
X125833333Y-42801309D02*
X125928571Y-42753690D01*
G04 #@! TO.C,R4*
X79837619Y-41794133D02*
X79361428Y-41460800D01*
X79837619Y-41222705D02*
X78837619Y-41222705D01*
X78837619Y-41222705D02*
X78837619Y-41603657D01*
X78837619Y-41603657D02*
X78885238Y-41698895D01*
X78885238Y-41698895D02*
X78932857Y-41746514D01*
X78932857Y-41746514D02*
X79028095Y-41794133D01*
X79028095Y-41794133D02*
X79170952Y-41794133D01*
X79170952Y-41794133D02*
X79266190Y-41746514D01*
X79266190Y-41746514D02*
X79313809Y-41698895D01*
X79313809Y-41698895D02*
X79361428Y-41603657D01*
X79361428Y-41603657D02*
X79361428Y-41222705D01*
X79170952Y-42651276D02*
X79837619Y-42651276D01*
X78790000Y-42413181D02*
X79504285Y-42175086D01*
X79504285Y-42175086D02*
X79504285Y-42794133D01*
G04 #@! TO.C,U2*
X91646279Y-43137619D02*
X91646279Y-43947142D01*
X91646279Y-43947142D02*
X91598660Y-44042380D01*
X91598660Y-44042380D02*
X91551041Y-44090000D01*
X91551041Y-44090000D02*
X91455803Y-44137619D01*
X91455803Y-44137619D02*
X91265327Y-44137619D01*
X91265327Y-44137619D02*
X91170089Y-44090000D01*
X91170089Y-44090000D02*
X91122470Y-44042380D01*
X91122470Y-44042380D02*
X91074851Y-43947142D01*
X91074851Y-43947142D02*
X91074851Y-43137619D01*
X90646279Y-43232857D02*
X90598660Y-43185238D01*
X90598660Y-43185238D02*
X90503422Y-43137619D01*
X90503422Y-43137619D02*
X90265327Y-43137619D01*
X90265327Y-43137619D02*
X90170089Y-43185238D01*
X90170089Y-43185238D02*
X90122470Y-43232857D01*
X90122470Y-43232857D02*
X90074851Y-43328095D01*
X90074851Y-43328095D02*
X90074851Y-43423333D01*
X90074851Y-43423333D02*
X90122470Y-43566190D01*
X90122470Y-43566190D02*
X90693898Y-44137619D01*
X90693898Y-44137619D02*
X90074851Y-44137619D01*
G04 #@! TO.C,C30*
X75137380Y-42944642D02*
X75185000Y-42897023D01*
X75185000Y-42897023D02*
X75232619Y-42754166D01*
X75232619Y-42754166D02*
X75232619Y-42658928D01*
X75232619Y-42658928D02*
X75185000Y-42516071D01*
X75185000Y-42516071D02*
X75089761Y-42420833D01*
X75089761Y-42420833D02*
X74994523Y-42373214D01*
X74994523Y-42373214D02*
X74804047Y-42325595D01*
X74804047Y-42325595D02*
X74661190Y-42325595D01*
X74661190Y-42325595D02*
X74470714Y-42373214D01*
X74470714Y-42373214D02*
X74375476Y-42420833D01*
X74375476Y-42420833D02*
X74280238Y-42516071D01*
X74280238Y-42516071D02*
X74232619Y-42658928D01*
X74232619Y-42658928D02*
X74232619Y-42754166D01*
X74232619Y-42754166D02*
X74280238Y-42897023D01*
X74280238Y-42897023D02*
X74327857Y-42944642D01*
X74232619Y-43277976D02*
X74232619Y-43897023D01*
X74232619Y-43897023D02*
X74613571Y-43563690D01*
X74613571Y-43563690D02*
X74613571Y-43706547D01*
X74613571Y-43706547D02*
X74661190Y-43801785D01*
X74661190Y-43801785D02*
X74708809Y-43849404D01*
X74708809Y-43849404D02*
X74804047Y-43897023D01*
X74804047Y-43897023D02*
X75042142Y-43897023D01*
X75042142Y-43897023D02*
X75137380Y-43849404D01*
X75137380Y-43849404D02*
X75185000Y-43801785D01*
X75185000Y-43801785D02*
X75232619Y-43706547D01*
X75232619Y-43706547D02*
X75232619Y-43420833D01*
X75232619Y-43420833D02*
X75185000Y-43325595D01*
X75185000Y-43325595D02*
X75137380Y-43277976D01*
X74232619Y-44516071D02*
X74232619Y-44611309D01*
X74232619Y-44611309D02*
X74280238Y-44706547D01*
X74280238Y-44706547D02*
X74327857Y-44754166D01*
X74327857Y-44754166D02*
X74423095Y-44801785D01*
X74423095Y-44801785D02*
X74613571Y-44849404D01*
X74613571Y-44849404D02*
X74851666Y-44849404D01*
X74851666Y-44849404D02*
X75042142Y-44801785D01*
X75042142Y-44801785D02*
X75137380Y-44754166D01*
X75137380Y-44754166D02*
X75185000Y-44706547D01*
X75185000Y-44706547D02*
X75232619Y-44611309D01*
X75232619Y-44611309D02*
X75232619Y-44516071D01*
X75232619Y-44516071D02*
X75185000Y-44420833D01*
X75185000Y-44420833D02*
X75137380Y-44373214D01*
X75137380Y-44373214D02*
X75042142Y-44325595D01*
X75042142Y-44325595D02*
X74851666Y-44277976D01*
X74851666Y-44277976D02*
X74613571Y-44277976D01*
X74613571Y-44277976D02*
X74423095Y-44325595D01*
X74423095Y-44325595D02*
X74327857Y-44373214D01*
X74327857Y-44373214D02*
X74280238Y-44420833D01*
X74280238Y-44420833D02*
X74232619Y-44516071D01*
G04 #@! TO.C,U1*
X84484733Y-49891962D02*
X83912313Y-50464382D01*
X83912313Y-50464382D02*
X83811298Y-50498053D01*
X83811298Y-50498053D02*
X83743955Y-50498053D01*
X83743955Y-50498053D02*
X83642939Y-50464382D01*
X83642939Y-50464382D02*
X83508252Y-50329695D01*
X83508252Y-50329695D02*
X83474581Y-50228679D01*
X83474581Y-50228679D02*
X83474581Y-50161336D01*
X83474581Y-50161336D02*
X83508252Y-50060321D01*
X83508252Y-50060321D02*
X84080672Y-49487901D01*
X82666459Y-49487901D02*
X83070520Y-49891962D01*
X82868489Y-49689931D02*
X83575596Y-48982825D01*
X83575596Y-48982825D02*
X83541924Y-49151183D01*
X83541924Y-49151183D02*
X83541924Y-49285870D01*
X83541924Y-49285870D02*
X83575596Y-49386886D01*
G04 #@! TO.C,C10*
X86092380Y-57218342D02*
X86140000Y-57170723D01*
X86140000Y-57170723D02*
X86187619Y-57027866D01*
X86187619Y-57027866D02*
X86187619Y-56932628D01*
X86187619Y-56932628D02*
X86140000Y-56789771D01*
X86140000Y-56789771D02*
X86044761Y-56694533D01*
X86044761Y-56694533D02*
X85949523Y-56646914D01*
X85949523Y-56646914D02*
X85759047Y-56599295D01*
X85759047Y-56599295D02*
X85616190Y-56599295D01*
X85616190Y-56599295D02*
X85425714Y-56646914D01*
X85425714Y-56646914D02*
X85330476Y-56694533D01*
X85330476Y-56694533D02*
X85235238Y-56789771D01*
X85235238Y-56789771D02*
X85187619Y-56932628D01*
X85187619Y-56932628D02*
X85187619Y-57027866D01*
X85187619Y-57027866D02*
X85235238Y-57170723D01*
X85235238Y-57170723D02*
X85282857Y-57218342D01*
X86187619Y-58170723D02*
X86187619Y-57599295D01*
X86187619Y-57885009D02*
X85187619Y-57885009D01*
X85187619Y-57885009D02*
X85330476Y-57789771D01*
X85330476Y-57789771D02*
X85425714Y-57694533D01*
X85425714Y-57694533D02*
X85473333Y-57599295D01*
X85187619Y-58789771D02*
X85187619Y-58885009D01*
X85187619Y-58885009D02*
X85235238Y-58980247D01*
X85235238Y-58980247D02*
X85282857Y-59027866D01*
X85282857Y-59027866D02*
X85378095Y-59075485D01*
X85378095Y-59075485D02*
X85568571Y-59123104D01*
X85568571Y-59123104D02*
X85806666Y-59123104D01*
X85806666Y-59123104D02*
X85997142Y-59075485D01*
X85997142Y-59075485D02*
X86092380Y-59027866D01*
X86092380Y-59027866D02*
X86140000Y-58980247D01*
X86140000Y-58980247D02*
X86187619Y-58885009D01*
X86187619Y-58885009D02*
X86187619Y-58789771D01*
X86187619Y-58789771D02*
X86140000Y-58694533D01*
X86140000Y-58694533D02*
X86092380Y-58646914D01*
X86092380Y-58646914D02*
X85997142Y-58599295D01*
X85997142Y-58599295D02*
X85806666Y-58551676D01*
X85806666Y-58551676D02*
X85568571Y-58551676D01*
X85568571Y-58551676D02*
X85378095Y-58599295D01*
X85378095Y-58599295D02*
X85282857Y-58646914D01*
X85282857Y-58646914D02*
X85235238Y-58694533D01*
X85235238Y-58694533D02*
X85187619Y-58789771D01*
D13*
G04 #@! TO.C,SW4*
X104193750Y-61055000D02*
X104593750Y-60655000D01*
G04 #@! TO.C,SW9*
X138693750Y-76105000D02*
X138293750Y-76505000D01*
G04 #@! TO.C,SW5*
X123243750Y-61055000D02*
X123643750Y-60655000D01*
G04 #@! TO.C,SW7*
X100593750Y-76105000D02*
X100193750Y-76505000D01*
G04 #@! TO.C,SW8*
X119643750Y-76105000D02*
X119243750Y-76505000D01*
G04 #@! TO.C,SW6*
X142293750Y-61055000D02*
X142693750Y-60655000D01*
G04 #@! TO.C,SW1*
X100593750Y-38005000D02*
X100193750Y-38405000D01*
G04 #@! TO.C,SW2*
X119643750Y-38005000D02*
X119243750Y-38405000D01*
G04 #@! TO.C,SW3*
X138693750Y-38005000D02*
X138293750Y-38405000D01*
G04 #@! TO.C,C11*
X84601267Y-46103000D02*
X84308733Y-46103000D01*
X84601267Y-45083000D02*
X84308733Y-45083000D01*
G04 #@! TO.C,C24*
X126093125Y-80315017D02*
X126093125Y-80022483D01*
X127113125Y-80315017D02*
X127113125Y-80022483D01*
G04 #@! TO.C,D4*
X94250000Y-60193750D02*
X94250000Y-56293750D01*
X96250000Y-60193750D02*
X94250000Y-60193750D01*
X96250000Y-60193750D02*
X96250000Y-56293750D01*
G04 #@! TO.C,R12*
X78954724Y-65673500D02*
X78445276Y-65673500D01*
X78954724Y-64628500D02*
X78445276Y-64628500D01*
G04 #@! TO.C,C1*
X86841000Y-37330748D02*
X86841000Y-37853252D01*
X85371000Y-37330748D02*
X85371000Y-37853252D01*
G04 #@! TO.C,C6*
X77087000Y-48025267D02*
X77087000Y-47732733D01*
X78107000Y-48025267D02*
X78107000Y-47732733D01*
G04 #@! TO.C,R3*
X89774500Y-63424524D02*
X89774500Y-62915076D01*
X90819500Y-63424524D02*
X90819500Y-62915076D01*
G04 #@! TO.C,SW13*
X89611200Y-72136000D02*
X87325200Y-72136000D01*
X85674200Y-70485000D02*
X85674200Y-68199000D01*
X91262200Y-70485000D02*
X91262200Y-68199000D01*
X89611200Y-66548000D02*
X87325200Y-66548000D01*
G04 #@! TO.C,D1*
X94250000Y-41143750D02*
X94250000Y-37243750D01*
X96250000Y-41143750D02*
X94250000Y-41143750D01*
X96250000Y-41143750D02*
X96250000Y-37243750D01*
G04 #@! TO.C,C13*
X86633267Y-50421000D02*
X86340733Y-50421000D01*
X86633267Y-49401000D02*
X86340733Y-49401000D01*
G04 #@! TO.C,R10*
X70738276Y-51928500D02*
X71247724Y-51928500D01*
X70738276Y-52973500D02*
X71247724Y-52973500D01*
G04 #@! TO.C,C19*
X143021267Y-43372500D02*
X142728733Y-43372500D01*
X143021267Y-42352500D02*
X142728733Y-42352500D01*
G04 #@! TO.C,D2*
X113300000Y-41143750D02*
X113300000Y-37243750D01*
X115300000Y-41143750D02*
X113300000Y-41143750D01*
X115300000Y-41143750D02*
X115300000Y-37243750D01*
G04 #@! TO.C,D8*
X113300000Y-79243750D02*
X113300000Y-75343750D01*
X115300000Y-79243750D02*
X113300000Y-79243750D01*
X115300000Y-79243750D02*
X115300000Y-75343750D01*
G04 #@! TO.C,F1*
X150220000Y-45814064D02*
X150220000Y-44609936D01*
X152040000Y-45814064D02*
X152040000Y-44609936D01*
G04 #@! TO.C,C9*
X84076000Y-60940733D02*
X84076000Y-61233267D01*
X83056000Y-60940733D02*
X83056000Y-61233267D01*
G04 #@! TO.C,R2*
X152895358Y-56641276D02*
X152895358Y-57150724D01*
X151850358Y-56641276D02*
X151850358Y-57150724D01*
G04 #@! TO.C,Y1*
X71704000Y-59722000D02*
X71704000Y-63722000D01*
X68504000Y-59722000D02*
X71704000Y-59722000D01*
G04 #@! TO.C,R8*
X73659276Y-61707500D02*
X74168724Y-61707500D01*
X73659276Y-62752500D02*
X74168724Y-62752500D01*
G04 #@! TO.C,C12*
X73767733Y-57148000D02*
X74060267Y-57148000D01*
X73767733Y-58168000D02*
X74060267Y-58168000D01*
G04 #@! TO.C,C31*
X63715017Y-34641250D02*
X63422483Y-34641250D01*
X63715017Y-33621250D02*
X63422483Y-33621250D01*
G04 #@! TO.C,C32*
X44960000Y-38678733D02*
X44960000Y-38971267D01*
X43940000Y-38678733D02*
X43940000Y-38971267D01*
G04 #@! TO.C,C15*
X70250267Y-65534000D02*
X69957733Y-65534000D01*
X70250267Y-64514000D02*
X69957733Y-64514000D01*
G04 #@! TO.C,C25*
X145143125Y-80315017D02*
X145143125Y-80022483D01*
X146163125Y-80315017D02*
X146163125Y-80022483D01*
G04 #@! TO.C,D3*
X132350000Y-41143750D02*
X132350000Y-37243750D01*
X134350000Y-41143750D02*
X132350000Y-41143750D01*
X134350000Y-41143750D02*
X134350000Y-37243750D01*
G04 #@! TO.C,C20*
X136602517Y-56866250D02*
X136309983Y-56866250D01*
X136602517Y-55846250D02*
X136309983Y-55846250D01*
G04 #@! TO.C,D9*
X132350000Y-79243750D02*
X132350000Y-75343750D01*
X134350000Y-79243750D02*
X132350000Y-79243750D01*
X134350000Y-79243750D02*
X134350000Y-75343750D01*
G04 #@! TO.C,C23*
X107043125Y-80315017D02*
X107043125Y-80022483D01*
X108063125Y-80315017D02*
X108063125Y-80022483D01*
G04 #@! TO.C,R1*
X151850358Y-50546724D02*
X151850358Y-50037276D01*
X152895358Y-50546724D02*
X152895358Y-50037276D01*
G04 #@! TO.C,D5*
X113300000Y-60193750D02*
X113300000Y-56293750D01*
X115300000Y-60193750D02*
X113300000Y-60193750D01*
X115300000Y-60193750D02*
X115300000Y-56293750D01*
G04 #@! TO.C,U4*
X82550000Y-39152000D02*
X83350000Y-39152000D01*
X82550000Y-39152000D02*
X81750000Y-39152000D01*
X82550000Y-36032000D02*
X84350000Y-36032000D01*
X82550000Y-36032000D02*
X81750000Y-36032000D01*
G04 #@! TO.C,D7*
X94250000Y-79243750D02*
X94250000Y-75343750D01*
X96250000Y-79243750D02*
X94250000Y-79243750D01*
X96250000Y-79243750D02*
X96250000Y-75343750D01*
G04 #@! TO.C,C2*
X79729000Y-37330748D02*
X79729000Y-37853252D01*
X78259000Y-37330748D02*
X78259000Y-37853252D01*
G04 #@! TO.C,R7*
X91058276Y-46213500D02*
X91567724Y-46213500D01*
X91058276Y-47258500D02*
X91567724Y-47258500D01*
G04 #@! TO.C,R9*
X73518500Y-49860924D02*
X73518500Y-49351476D01*
X74563500Y-49860924D02*
X74563500Y-49351476D01*
G04 #@! TO.C,U3*
X88346600Y-55778400D02*
X88346600Y-57728400D01*
X88346600Y-55778400D02*
X88346600Y-53828400D01*
X93466600Y-55778400D02*
X93466600Y-59228400D01*
X93466600Y-55778400D02*
X93466600Y-53828400D01*
G04 #@! TO.C,C27*
X56934983Y-73308750D02*
X57227517Y-73308750D01*
X56934983Y-74328750D02*
X57227517Y-74328750D01*
G04 #@! TO.C,R11*
X98567151Y-42340000D02*
X99076599Y-42340000D01*
X98567151Y-43385000D02*
X99076599Y-43385000D01*
G04 #@! TO.C,C17*
X104921267Y-43372500D02*
X104628733Y-43372500D01*
X104921267Y-42352500D02*
X104628733Y-42352500D01*
G04 #@! TO.C,C26*
X75690000Y-69271267D02*
X75690000Y-68978733D01*
X76710000Y-69271267D02*
X76710000Y-68978733D01*
G04 #@! TO.C,D13*
X66024000Y-39152000D02*
X66024000Y-43052000D01*
X64024000Y-39152000D02*
X66024000Y-39152000D01*
X64024000Y-39152000D02*
X64024000Y-43052000D01*
G04 #@! TO.C,Ref\u002A\u002A*
D14*
X40943859Y-46072339D02*
X41242684Y-46122626D01*
X41529768Y-46209450D01*
X41802035Y-46330958D01*
X42056410Y-46485298D01*
X42289818Y-46670616D01*
X42499185Y-46885059D01*
X42681434Y-47126774D01*
X42833493Y-47393906D01*
X42952284Y-47684604D01*
X42961808Y-47713023D01*
X42979573Y-47766800D01*
X42995450Y-47817791D01*
X43009546Y-47868503D01*
X43021967Y-47921442D01*
X43032818Y-47979116D01*
X43042206Y-48044031D01*
X43050237Y-48118693D01*
X43057018Y-48205609D01*
X43062653Y-48307285D01*
X43067249Y-48426229D01*
X43070913Y-48564946D01*
X43073749Y-48725944D01*
X43075866Y-48911730D01*
X43077368Y-49124808D01*
X43078361Y-49367687D01*
X43078953Y-49642873D01*
X43079248Y-49952873D01*
X43079353Y-50300192D01*
X43079374Y-50687338D01*
X43079459Y-53104094D01*
X42966031Y-53193316D01*
X40488036Y-53185883D01*
X40449062Y-53185767D01*
X40070189Y-53184662D01*
X39730906Y-53183651D01*
X39428711Y-53182624D01*
X39161104Y-53181468D01*
X38925584Y-53180072D01*
X38719651Y-53178326D01*
X38540803Y-53176116D01*
X38386541Y-53173332D01*
X38254363Y-53169862D01*
X38141769Y-53165594D01*
X38046257Y-53160418D01*
X37965328Y-53154221D01*
X37896481Y-53146891D01*
X37837214Y-53138318D01*
X37785028Y-53128390D01*
X37737421Y-53116996D01*
X37691893Y-53104023D01*
X37645942Y-53089360D01*
X37597070Y-53072896D01*
X37542773Y-53054519D01*
X37514331Y-53044752D01*
X37247881Y-52929586D01*
X36993788Y-52777836D01*
X36757572Y-52594286D01*
X36544751Y-52383719D01*
X36360846Y-52150918D01*
X36211373Y-51900666D01*
X36129640Y-51721105D01*
X36031676Y-51427776D01*
X35971036Y-51124943D01*
X35948386Y-50818456D01*
X35964392Y-50514164D01*
X36019722Y-50217916D01*
X36063048Y-50075914D01*
X36142956Y-49873866D01*
X36241375Y-49671526D01*
X36351244Y-49483073D01*
X36465500Y-49322688D01*
X36533063Y-49242599D01*
X36750715Y-49026080D01*
X36993580Y-48839131D01*
X37256886Y-48684300D01*
X37535863Y-48564134D01*
X37825739Y-48481183D01*
X38121743Y-48437996D01*
X38308336Y-48423910D01*
X38332835Y-48199080D01*
X38364961Y-47983159D01*
X38443438Y-47677947D01*
X38559221Y-47391837D01*
X38713211Y-47122734D01*
X38906311Y-46868546D01*
X39005500Y-46761383D01*
X39225625Y-46567444D01*
X39472641Y-46399756D01*
X39739886Y-46262016D01*
X40020691Y-46157919D01*
X40308393Y-46091161D01*
X40323281Y-46088793D01*
X40636366Y-46060444D01*
X40943859Y-46072339D01*
G36*
X40943859Y-46072339D02*
G01*
X41242684Y-46122626D01*
X41529768Y-46209450D01*
X41802035Y-46330958D01*
X42056410Y-46485298D01*
X42289818Y-46670616D01*
X42499185Y-46885059D01*
X42681434Y-47126774D01*
X42833493Y-47393906D01*
X42952284Y-47684604D01*
X42961808Y-47713023D01*
X42979573Y-47766800D01*
X42995450Y-47817791D01*
X43009546Y-47868503D01*
X43021967Y-47921442D01*
X43032818Y-47979116D01*
X43042206Y-48044031D01*
X43050237Y-48118693D01*
X43057018Y-48205609D01*
X43062653Y-48307285D01*
X43067249Y-48426229D01*
X43070913Y-48564946D01*
X43073749Y-48725944D01*
X43075866Y-48911730D01*
X43077368Y-49124808D01*
X43078361Y-49367687D01*
X43078953Y-49642873D01*
X43079248Y-49952873D01*
X43079353Y-50300192D01*
X43079374Y-50687338D01*
X43079459Y-53104094D01*
X42966031Y-53193316D01*
X40488036Y-53185883D01*
X40449062Y-53185767D01*
X40070189Y-53184662D01*
X39730906Y-53183651D01*
X39428711Y-53182624D01*
X39161104Y-53181468D01*
X38925584Y-53180072D01*
X38719651Y-53178326D01*
X38540803Y-53176116D01*
X38386541Y-53173332D01*
X38254363Y-53169862D01*
X38141769Y-53165594D01*
X38046257Y-53160418D01*
X37965328Y-53154221D01*
X37896481Y-53146891D01*
X37837214Y-53138318D01*
X37785028Y-53128390D01*
X37737421Y-53116996D01*
X37691893Y-53104023D01*
X37645942Y-53089360D01*
X37597070Y-53072896D01*
X37542773Y-53054519D01*
X37514331Y-53044752D01*
X37247881Y-52929586D01*
X36993788Y-52777836D01*
X36757572Y-52594286D01*
X36544751Y-52383719D01*
X36360846Y-52150918D01*
X36211373Y-51900666D01*
X36129640Y-51721105D01*
X36031676Y-51427776D01*
X35971036Y-51124943D01*
X35948386Y-50818456D01*
X35964392Y-50514164D01*
X36019722Y-50217916D01*
X36063048Y-50075914D01*
X36142956Y-49873866D01*
X36241375Y-49671526D01*
X36351244Y-49483073D01*
X36465500Y-49322688D01*
X36533063Y-49242599D01*
X36750715Y-49026080D01*
X36993580Y-48839131D01*
X37256886Y-48684300D01*
X37535863Y-48564134D01*
X37825739Y-48481183D01*
X38121743Y-48437996D01*
X38308336Y-48423910D01*
X38332835Y-48199080D01*
X38364961Y-47983159D01*
X38443438Y-47677947D01*
X38559221Y-47391837D01*
X38713211Y-47122734D01*
X38906311Y-46868546D01*
X39005500Y-46761383D01*
X39225625Y-46567444D01*
X39472641Y-46399756D01*
X39739886Y-46262016D01*
X40020691Y-46157919D01*
X40308393Y-46091161D01*
X40323281Y-46088793D01*
X40636366Y-46060444D01*
X40943859Y-46072339D01*
G37*
X47599022Y-46089812D02*
X47716567Y-46111854D01*
X48016197Y-46196345D01*
X48297292Y-46316735D01*
X48557450Y-46470407D01*
X48794270Y-46654747D01*
X49005351Y-46867140D01*
X49188292Y-47104972D01*
X49340691Y-47365628D01*
X49460147Y-47646493D01*
X49544258Y-47944952D01*
X49590623Y-48258391D01*
X49604879Y-48429333D01*
X49691794Y-48429418D01*
X49699675Y-48429482D01*
X49803745Y-48436918D01*
X49932729Y-48454903D01*
X50072663Y-48480873D01*
X50209582Y-48512264D01*
X50329522Y-48546511D01*
X50535637Y-48626477D01*
X50768464Y-48745562D01*
X50990776Y-48888425D01*
X51192008Y-49048192D01*
X51361591Y-49217986D01*
X51388850Y-49249791D01*
X51580865Y-49508486D01*
X51734894Y-49782459D01*
X51850527Y-50068627D01*
X51927353Y-50363902D01*
X51964960Y-50665201D01*
X51962936Y-50969437D01*
X51920870Y-51273525D01*
X51838352Y-51574380D01*
X51714970Y-51868916D01*
X51617012Y-52046556D01*
X51439780Y-52298497D01*
X51232637Y-52524204D01*
X50999184Y-52721132D01*
X50743022Y-52886732D01*
X50467755Y-53018460D01*
X50176983Y-53113768D01*
X49874309Y-53170112D01*
X49867529Y-53170715D01*
X49817044Y-53172867D01*
X49727898Y-53174978D01*
X49602964Y-53177025D01*
X49445113Y-53178988D01*
X49257221Y-53180844D01*
X49042158Y-53182572D01*
X48802799Y-53184151D01*
X48542016Y-53185558D01*
X48262682Y-53186774D01*
X47967670Y-53187775D01*
X47659854Y-53188542D01*
X47342105Y-53189051D01*
X47187421Y-53189230D01*
X46834773Y-53189620D01*
X46521152Y-53189905D01*
X46244207Y-53190045D01*
X46001588Y-53190001D01*
X45790941Y-53189733D01*
X45609915Y-53189203D01*
X45456159Y-53188370D01*
X45327321Y-53187195D01*
X45221049Y-53185638D01*
X45134992Y-53183661D01*
X45066797Y-53181224D01*
X45014115Y-53178287D01*
X44974592Y-53174811D01*
X44945876Y-53170756D01*
X44925618Y-53166083D01*
X44911464Y-53160753D01*
X44901063Y-53154726D01*
X44892063Y-53147963D01*
X44836292Y-53104094D01*
X44836292Y-50707950D01*
X44836441Y-50358351D01*
X44836985Y-49980085D01*
X44837916Y-49633328D01*
X44839224Y-49319282D01*
X44840900Y-49039150D01*
X44842933Y-48794134D01*
X44845313Y-48585438D01*
X44848030Y-48414263D01*
X44851073Y-48281813D01*
X44854433Y-48189290D01*
X44858099Y-48137896D01*
X44900736Y-47898080D01*
X44988393Y-47606720D01*
X45110656Y-47333719D01*
X45264625Y-47081243D01*
X45447403Y-46851455D01*
X45656093Y-46646523D01*
X45887796Y-46468610D01*
X46139614Y-46319883D01*
X46408651Y-46202506D01*
X46692008Y-46118646D01*
X46986787Y-46070466D01*
X47290091Y-46060133D01*
X47599022Y-46089812D01*
G36*
X47599022Y-46089812D02*
G01*
X47716567Y-46111854D01*
X48016197Y-46196345D01*
X48297292Y-46316735D01*
X48557450Y-46470407D01*
X48794270Y-46654747D01*
X49005351Y-46867140D01*
X49188292Y-47104972D01*
X49340691Y-47365628D01*
X49460147Y-47646493D01*
X49544258Y-47944952D01*
X49590623Y-48258391D01*
X49604879Y-48429333D01*
X49691794Y-48429418D01*
X49699675Y-48429482D01*
X49803745Y-48436918D01*
X49932729Y-48454903D01*
X50072663Y-48480873D01*
X50209582Y-48512264D01*
X50329522Y-48546511D01*
X50535637Y-48626477D01*
X50768464Y-48745562D01*
X50990776Y-48888425D01*
X51192008Y-49048192D01*
X51361591Y-49217986D01*
X51388850Y-49249791D01*
X51580865Y-49508486D01*
X51734894Y-49782459D01*
X51850527Y-50068627D01*
X51927353Y-50363902D01*
X51964960Y-50665201D01*
X51962936Y-50969437D01*
X51920870Y-51273525D01*
X51838352Y-51574380D01*
X51714970Y-51868916D01*
X51617012Y-52046556D01*
X51439780Y-52298497D01*
X51232637Y-52524204D01*
X50999184Y-52721132D01*
X50743022Y-52886732D01*
X50467755Y-53018460D01*
X50176983Y-53113768D01*
X49874309Y-53170112D01*
X49867529Y-53170715D01*
X49817044Y-53172867D01*
X49727898Y-53174978D01*
X49602964Y-53177025D01*
X49445113Y-53178988D01*
X49257221Y-53180844D01*
X49042158Y-53182572D01*
X48802799Y-53184151D01*
X48542016Y-53185558D01*
X48262682Y-53186774D01*
X47967670Y-53187775D01*
X47659854Y-53188542D01*
X47342105Y-53189051D01*
X47187421Y-53189230D01*
X46834773Y-53189620D01*
X46521152Y-53189905D01*
X46244207Y-53190045D01*
X46001588Y-53190001D01*
X45790941Y-53189733D01*
X45609915Y-53189203D01*
X45456159Y-53188370D01*
X45327321Y-53187195D01*
X45221049Y-53185638D01*
X45134992Y-53183661D01*
X45066797Y-53181224D01*
X45014115Y-53178287D01*
X44974592Y-53174811D01*
X44945876Y-53170756D01*
X44925618Y-53166083D01*
X44911464Y-53160753D01*
X44901063Y-53154726D01*
X44892063Y-53147963D01*
X44836292Y-53104094D01*
X44836292Y-50707950D01*
X44836441Y-50358351D01*
X44836985Y-49980085D01*
X44837916Y-49633328D01*
X44839224Y-49319282D01*
X44840900Y-49039150D01*
X44842933Y-48794134D01*
X44845313Y-48585438D01*
X44848030Y-48414263D01*
X44851073Y-48281813D01*
X44854433Y-48189290D01*
X44858099Y-48137896D01*
X44900736Y-47898080D01*
X44988393Y-47606720D01*
X45110656Y-47333719D01*
X45264625Y-47081243D01*
X45447403Y-46851455D01*
X45656093Y-46646523D01*
X45887796Y-46468610D01*
X46139614Y-46319883D01*
X46408651Y-46202506D01*
X46692008Y-46118646D01*
X46986787Y-46070466D01*
X47290091Y-46060133D01*
X47599022Y-46089812D01*
G37*
X42159396Y-54950866D02*
X42337488Y-54951184D01*
X42488794Y-54951838D01*
X42615592Y-54952858D01*
X42720157Y-54954278D01*
X42804767Y-54956129D01*
X42871699Y-54958444D01*
X42923229Y-54961255D01*
X42961634Y-54964595D01*
X42989190Y-54968495D01*
X43008175Y-54972987D01*
X43020866Y-54978105D01*
X43029538Y-54983879D01*
X43036470Y-54990344D01*
X43038864Y-54992772D01*
X43045220Y-55000291D01*
X43050876Y-55010486D01*
X43055871Y-55025689D01*
X43060247Y-55048233D01*
X43064044Y-55080451D01*
X43067304Y-55124676D01*
X43070067Y-55183240D01*
X43072374Y-55258477D01*
X43074265Y-55352718D01*
X43075782Y-55468298D01*
X43076966Y-55607549D01*
X43077856Y-55772803D01*
X43078495Y-55966393D01*
X43078922Y-56190653D01*
X43079179Y-56447915D01*
X43079306Y-56740512D01*
X43079344Y-57070776D01*
X43079334Y-57441041D01*
X43079331Y-57500619D01*
X43079280Y-57881830D01*
X43079110Y-58223577D01*
X43078725Y-58528365D01*
X43078029Y-58798694D01*
X43076925Y-59037068D01*
X43075318Y-59245989D01*
X43073111Y-59427960D01*
X43070208Y-59585482D01*
X43066513Y-59721058D01*
X43061929Y-59837192D01*
X43056361Y-59936384D01*
X43049712Y-60021137D01*
X43041887Y-60093955D01*
X43032788Y-60157339D01*
X43022321Y-60213791D01*
X43010387Y-60265815D01*
X42996893Y-60315913D01*
X42981741Y-60366586D01*
X42964834Y-60420337D01*
X42903193Y-60591388D01*
X42773760Y-60858150D01*
X42607643Y-61109204D01*
X42402350Y-61348661D01*
X42365738Y-61385909D01*
X42132712Y-61588359D01*
X41874127Y-61759437D01*
X41594936Y-61896643D01*
X41300090Y-61997477D01*
X40994542Y-62059438D01*
X40866484Y-62069946D01*
X40710623Y-62071996D01*
X40544383Y-62065915D01*
X40383353Y-62052280D01*
X40243125Y-62031665D01*
X40082079Y-61995298D01*
X39798475Y-61901147D01*
X39532621Y-61770922D01*
X39280947Y-61602734D01*
X39039880Y-61394691D01*
X38982109Y-61337139D01*
X38777344Y-61097084D01*
X38609640Y-60836701D01*
X38479362Y-60556744D01*
X38386878Y-60257966D01*
X38332555Y-59941121D01*
X38308273Y-59715993D01*
X38091064Y-59691552D01*
X37994842Y-59679156D01*
X37685128Y-59615413D01*
X37397313Y-59516923D01*
X37127687Y-59382220D01*
X36872539Y-59209835D01*
X36657434Y-59022807D01*
X36453370Y-58794820D01*
X36282708Y-58545884D01*
X36146244Y-58279607D01*
X36044775Y-57999597D01*
X35979097Y-57709462D01*
X35950006Y-57412809D01*
X35958299Y-57113249D01*
X36004773Y-56814388D01*
X36090225Y-56519834D01*
X36215449Y-56233197D01*
X36281741Y-56112898D01*
X36459065Y-55851367D01*
X36666037Y-55619706D01*
X36901649Y-55418710D01*
X37164897Y-55249172D01*
X37454772Y-55111885D01*
X37770270Y-55007641D01*
X37946542Y-54960637D01*
X40470011Y-54953996D01*
X40787465Y-54953165D01*
X41133636Y-54952293D01*
X41441638Y-54951596D01*
X41713748Y-54951103D01*
X41952241Y-54950849D01*
X42159396Y-54950866D01*
G36*
X42159396Y-54950866D02*
G01*
X42337488Y-54951184D01*
X42488794Y-54951838D01*
X42615592Y-54952858D01*
X42720157Y-54954278D01*
X42804767Y-54956129D01*
X42871699Y-54958444D01*
X42923229Y-54961255D01*
X42961634Y-54964595D01*
X42989190Y-54968495D01*
X43008175Y-54972987D01*
X43020866Y-54978105D01*
X43029538Y-54983879D01*
X43036470Y-54990344D01*
X43038864Y-54992772D01*
X43045220Y-55000291D01*
X43050876Y-55010486D01*
X43055871Y-55025689D01*
X43060247Y-55048233D01*
X43064044Y-55080451D01*
X43067304Y-55124676D01*
X43070067Y-55183240D01*
X43072374Y-55258477D01*
X43074265Y-55352718D01*
X43075782Y-55468298D01*
X43076966Y-55607549D01*
X43077856Y-55772803D01*
X43078495Y-55966393D01*
X43078922Y-56190653D01*
X43079179Y-56447915D01*
X43079306Y-56740512D01*
X43079344Y-57070776D01*
X43079334Y-57441041D01*
X43079331Y-57500619D01*
X43079280Y-57881830D01*
X43079110Y-58223577D01*
X43078725Y-58528365D01*
X43078029Y-58798694D01*
X43076925Y-59037068D01*
X43075318Y-59245989D01*
X43073111Y-59427960D01*
X43070208Y-59585482D01*
X43066513Y-59721058D01*
X43061929Y-59837192D01*
X43056361Y-59936384D01*
X43049712Y-60021137D01*
X43041887Y-60093955D01*
X43032788Y-60157339D01*
X43022321Y-60213791D01*
X43010387Y-60265815D01*
X42996893Y-60315913D01*
X42981741Y-60366586D01*
X42964834Y-60420337D01*
X42903193Y-60591388D01*
X42773760Y-60858150D01*
X42607643Y-61109204D01*
X42402350Y-61348661D01*
X42365738Y-61385909D01*
X42132712Y-61588359D01*
X41874127Y-61759437D01*
X41594936Y-61896643D01*
X41300090Y-61997477D01*
X40994542Y-62059438D01*
X40866484Y-62069946D01*
X40710623Y-62071996D01*
X40544383Y-62065915D01*
X40383353Y-62052280D01*
X40243125Y-62031665D01*
X40082079Y-61995298D01*
X39798475Y-61901147D01*
X39532621Y-61770922D01*
X39280947Y-61602734D01*
X39039880Y-61394691D01*
X38982109Y-61337139D01*
X38777344Y-61097084D01*
X38609640Y-60836701D01*
X38479362Y-60556744D01*
X38386878Y-60257966D01*
X38332555Y-59941121D01*
X38308273Y-59715993D01*
X38091064Y-59691552D01*
X37994842Y-59679156D01*
X37685128Y-59615413D01*
X37397313Y-59516923D01*
X37127687Y-59382220D01*
X36872539Y-59209835D01*
X36657434Y-59022807D01*
X36453370Y-58794820D01*
X36282708Y-58545884D01*
X36146244Y-58279607D01*
X36044775Y-57999597D01*
X35979097Y-57709462D01*
X35950006Y-57412809D01*
X35958299Y-57113249D01*
X36004773Y-56814388D01*
X36090225Y-56519834D01*
X36215449Y-56233197D01*
X36281741Y-56112898D01*
X36459065Y-55851367D01*
X36666037Y-55619706D01*
X36901649Y-55418710D01*
X37164897Y-55249172D01*
X37454772Y-55111885D01*
X37770270Y-55007641D01*
X37946542Y-54960637D01*
X40470011Y-54953996D01*
X40787465Y-54953165D01*
X41133636Y-54952293D01*
X41441638Y-54951596D01*
X41713748Y-54951103D01*
X41952241Y-54950849D01*
X42159396Y-54950866D01*
G37*
X46158843Y-54950807D02*
X46425036Y-54951210D01*
X46726732Y-54951817D01*
X47066208Y-54952596D01*
X47445740Y-54953515D01*
X49969209Y-54959675D01*
X50176163Y-55016598D01*
X50443746Y-55106155D01*
X50732135Y-55242091D01*
X50998253Y-55411574D01*
X51238566Y-55612314D01*
X51449542Y-55842021D01*
X51498999Y-55907643D01*
X51593952Y-56052895D01*
X51686262Y-56216388D01*
X51769559Y-56385650D01*
X51837470Y-56548215D01*
X51883624Y-56691610D01*
X51897621Y-56748880D01*
X51952203Y-57071472D01*
X51965112Y-57390189D01*
X51936608Y-57703263D01*
X51866948Y-58008923D01*
X51756394Y-58305400D01*
X51605203Y-58590924D01*
X51597650Y-58603025D01*
X51512007Y-58722707D01*
X51401199Y-58854947D01*
X51274510Y-58990260D01*
X51141222Y-59119161D01*
X51010616Y-59232162D01*
X50891976Y-59319779D01*
X50719694Y-59421488D01*
X50440517Y-59546261D01*
X50138851Y-59636837D01*
X49817366Y-59692289D01*
X49607461Y-59716158D01*
X49583188Y-59941204D01*
X49529665Y-60255750D01*
X49438294Y-60552626D01*
X49308857Y-60831124D01*
X49140975Y-61092063D01*
X48934267Y-61336259D01*
X48887777Y-61383629D01*
X48647775Y-61594611D01*
X48390369Y-61767094D01*
X48114516Y-61901605D01*
X47819172Y-61998672D01*
X47503292Y-62058822D01*
X47231565Y-62076902D01*
X46927809Y-62058542D01*
X46628840Y-62000854D01*
X46339117Y-61905342D01*
X46063100Y-61773509D01*
X45805249Y-61606860D01*
X45570023Y-61406897D01*
X45401007Y-61227787D01*
X45220406Y-60989188D01*
X45075842Y-60734385D01*
X44964150Y-60458423D01*
X44956399Y-60435216D01*
X44938393Y-60380495D01*
X44922288Y-60328542D01*
X44907977Y-60276854D01*
X44895354Y-60222923D01*
X44884312Y-60164245D01*
X44874746Y-60098313D01*
X44866550Y-60022622D01*
X44859617Y-59934667D01*
X44853842Y-59831940D01*
X44849119Y-59711938D01*
X44845340Y-59572153D01*
X44842401Y-59410081D01*
X44840195Y-59223215D01*
X44838616Y-59009051D01*
X44837559Y-58765081D01*
X44836916Y-58488801D01*
X44836582Y-58177705D01*
X44836451Y-57829287D01*
X44836417Y-57441041D01*
X44836411Y-57306942D01*
X44836413Y-56950922D01*
X44836478Y-56634087D01*
X44836645Y-56354105D01*
X44836957Y-56108643D01*
X44837453Y-55895367D01*
X44838175Y-55711945D01*
X44839164Y-55556044D01*
X44840459Y-55425332D01*
X44842102Y-55317475D01*
X44844134Y-55230141D01*
X44846596Y-55160996D01*
X44849528Y-55107709D01*
X44852971Y-55067945D01*
X44856966Y-55039373D01*
X44861554Y-55019660D01*
X44866775Y-55006473D01*
X44872671Y-54997478D01*
X44879281Y-54990344D01*
X44884950Y-54984952D01*
X44893164Y-54979059D01*
X44905006Y-54973828D01*
X44922753Y-54969227D01*
X44948681Y-54965223D01*
X44985068Y-54961782D01*
X45034190Y-54958873D01*
X45098324Y-54956462D01*
X45179747Y-54954518D01*
X45280735Y-54953007D01*
X45403565Y-54951896D01*
X45550514Y-54951154D01*
X45723859Y-54950746D01*
X45925877Y-54950642D01*
X46158843Y-54950807D01*
G36*
X46158843Y-54950807D02*
G01*
X46425036Y-54951210D01*
X46726732Y-54951817D01*
X47066208Y-54952596D01*
X47445740Y-54953515D01*
X49969209Y-54959675D01*
X50176163Y-55016598D01*
X50443746Y-55106155D01*
X50732135Y-55242091D01*
X50998253Y-55411574D01*
X51238566Y-55612314D01*
X51449542Y-55842021D01*
X51498999Y-55907643D01*
X51593952Y-56052895D01*
X51686262Y-56216388D01*
X51769559Y-56385650D01*
X51837470Y-56548215D01*
X51883624Y-56691610D01*
X51897621Y-56748880D01*
X51952203Y-57071472D01*
X51965112Y-57390189D01*
X51936608Y-57703263D01*
X51866948Y-58008923D01*
X51756394Y-58305400D01*
X51605203Y-58590924D01*
X51597650Y-58603025D01*
X51512007Y-58722707D01*
X51401199Y-58854947D01*
X51274510Y-58990260D01*
X51141222Y-59119161D01*
X51010616Y-59232162D01*
X50891976Y-59319779D01*
X50719694Y-59421488D01*
X50440517Y-59546261D01*
X50138851Y-59636837D01*
X49817366Y-59692289D01*
X49607461Y-59716158D01*
X49583188Y-59941204D01*
X49529665Y-60255750D01*
X49438294Y-60552626D01*
X49308857Y-60831124D01*
X49140975Y-61092063D01*
X48934267Y-61336259D01*
X48887777Y-61383629D01*
X48647775Y-61594611D01*
X48390369Y-61767094D01*
X48114516Y-61901605D01*
X47819172Y-61998672D01*
X47503292Y-62058822D01*
X47231565Y-62076902D01*
X46927809Y-62058542D01*
X46628840Y-62000854D01*
X46339117Y-61905342D01*
X46063100Y-61773509D01*
X45805249Y-61606860D01*
X45570023Y-61406897D01*
X45401007Y-61227787D01*
X45220406Y-60989188D01*
X45075842Y-60734385D01*
X44964150Y-60458423D01*
X44956399Y-60435216D01*
X44938393Y-60380495D01*
X44922288Y-60328542D01*
X44907977Y-60276854D01*
X44895354Y-60222923D01*
X44884312Y-60164245D01*
X44874746Y-60098313D01*
X44866550Y-60022622D01*
X44859617Y-59934667D01*
X44853842Y-59831940D01*
X44849119Y-59711938D01*
X44845340Y-59572153D01*
X44842401Y-59410081D01*
X44840195Y-59223215D01*
X44838616Y-59009051D01*
X44837559Y-58765081D01*
X44836916Y-58488801D01*
X44836582Y-58177705D01*
X44836451Y-57829287D01*
X44836417Y-57441041D01*
X44836411Y-57306942D01*
X44836413Y-56950922D01*
X44836478Y-56634087D01*
X44836645Y-56354105D01*
X44836957Y-56108643D01*
X44837453Y-55895367D01*
X44838175Y-55711945D01*
X44839164Y-55556044D01*
X44840459Y-55425332D01*
X44842102Y-55317475D01*
X44844134Y-55230141D01*
X44846596Y-55160996D01*
X44849528Y-55107709D01*
X44852971Y-55067945D01*
X44856966Y-55039373D01*
X44861554Y-55019660D01*
X44866775Y-55006473D01*
X44872671Y-54997478D01*
X44879281Y-54990344D01*
X44884950Y-54984952D01*
X44893164Y-54979059D01*
X44905006Y-54973828D01*
X44922753Y-54969227D01*
X44948681Y-54965223D01*
X44985068Y-54961782D01*
X45034190Y-54958873D01*
X45098324Y-54956462D01*
X45179747Y-54954518D01*
X45280735Y-54953007D01*
X45403565Y-54951896D01*
X45550514Y-54951154D01*
X45723859Y-54950746D01*
X45925877Y-54950642D01*
X46158843Y-54950807D01*
G37*
D13*
G04 #@! TO.C,C3*
X84308733Y-43305000D02*
X84601267Y-43305000D01*
X84308733Y-44325000D02*
X84601267Y-44325000D01*
G04 #@! TO.C,C21*
X117690017Y-56866250D02*
X117397483Y-56866250D01*
X117690017Y-55846250D02*
X117397483Y-55846250D01*
G04 #@! TO.C,R6*
X91058276Y-47991500D02*
X91567724Y-47991500D01*
X91058276Y-49036500D02*
X91567724Y-49036500D01*
G04 #@! TO.C,SW15*
X71501000Y-46990000D02*
X71501000Y-49276000D01*
X69850000Y-50927000D02*
X67564000Y-50927000D01*
X69850000Y-45339000D02*
X67564000Y-45339000D01*
X65913000Y-46990000D02*
X65913000Y-49276000D01*
G04 #@! TO.C,R5*
X88319500Y-62915076D02*
X88319500Y-63424524D01*
X87274500Y-62915076D02*
X87274500Y-63424524D01*
G04 #@! TO.C,C22*
X98640017Y-56866250D02*
X98347483Y-56866250D01*
X98640017Y-55846250D02*
X98347483Y-55846250D01*
G04 #@! TO.C,C16*
X69957733Y-57910000D02*
X70250267Y-57910000D01*
X69957733Y-58930000D02*
X70250267Y-58930000D01*
G04 #@! TO.C,C5*
X86340733Y-47623000D02*
X86633267Y-47623000D01*
X86340733Y-48643000D02*
X86633267Y-48643000D01*
G04 #@! TO.C,D6*
X132350000Y-60193750D02*
X132350000Y-56293750D01*
X134350000Y-60193750D02*
X132350000Y-60193750D01*
X134350000Y-60193750D02*
X134350000Y-56293750D01*
G04 #@! TO.C,C4*
X91840267Y-51132200D02*
X91547733Y-51132200D01*
X91840267Y-50112200D02*
X91547733Y-50112200D01*
G04 #@! TO.C,C7*
X75309000Y-49752467D02*
X75309000Y-49459933D01*
X76329000Y-49752467D02*
X76329000Y-49459933D01*
G04 #@! TO.C,C8*
X74060267Y-59946000D02*
X73767733Y-59946000D01*
X74060267Y-58926000D02*
X73767733Y-58926000D01*
G04 #@! TO.C,C28*
X44960000Y-62491233D02*
X44960000Y-62783767D01*
X43940000Y-62491233D02*
X43940000Y-62783767D01*
G04 #@! TO.C,C14*
X80643000Y-44850267D02*
X80643000Y-44557733D01*
X81663000Y-44850267D02*
X81663000Y-44557733D01*
G04 #@! TO.C,U5*
X83983000Y-66421000D02*
X83983000Y-65621000D01*
X83983000Y-66421000D02*
X83983000Y-67221000D01*
X80863000Y-66421000D02*
X80863000Y-64621000D01*
X80863000Y-66421000D02*
X80863000Y-67221000D01*
G04 #@! TO.C,C18*
X123971267Y-43372500D02*
X123678733Y-43372500D01*
X123971267Y-42352500D02*
X123678733Y-42352500D01*
G04 #@! TO.C,R4*
X78852500Y-44958724D02*
X78852500Y-44449276D01*
X79897500Y-44958724D02*
X79897500Y-44449276D01*
G04 #@! TO.C,U2*
X90884375Y-39715000D02*
X90084375Y-39715000D01*
X90884375Y-39715000D02*
X91684375Y-39715000D01*
X90884375Y-42835000D02*
X89084375Y-42835000D01*
X90884375Y-42835000D02*
X91684375Y-42835000D01*
G04 #@! TO.C,C30*
X76710000Y-43441233D02*
X76710000Y-43733767D01*
X75690000Y-43441233D02*
X75690000Y-43733767D01*
G04 #@! TO.C,U1*
X80899000Y-59080311D02*
X81358619Y-58620692D01*
X80439381Y-58620692D02*
X80899000Y-59080311D01*
X85544692Y-53515381D02*
X86004311Y-53975000D01*
X76253308Y-54434619D02*
X75793689Y-53975000D01*
X81358619Y-49329308D02*
X80899000Y-48869689D01*
X75793689Y-53975000D02*
X76253308Y-53515381D01*
X80899000Y-48869689D02*
X80439381Y-49329308D01*
G04 #@! TO.C,C10*
X86235000Y-60940733D02*
X86235000Y-61233267D01*
X85215000Y-60940733D02*
X85215000Y-61233267D01*
G04 #@! TD*
M02*
